<svg height="512pt" viewBox="0 -4 512.00021 512" width="512pt" xmlns="http://www.w3.org/2000/svg"><path d="m419.847656 206.511719v-101.3125h-126.152344v101.3125c-54.296874 24.175781-92.152343 78.601562-92.152343 141.871093 0 85.730469 69.496093 155.226563 155.226562 155.226563s155.230469-69.496094 155.230469-155.226563c0-63.269531-37.859375-117.695312-92.152344-141.871093zm0 0" fill="#c9fff7"/><path d="m480.585938 348.386719c0 68.273437-55.539063 123.808593-123.820313 123.808593-22.460937 0-43.539063-6.007812-61.714844-16.511718-37.089843-21.402344-62.09375-61.484375-62.09375-107.296875 0-34.25 14.1875-66.300781 38.039063-89.265625h171.546875c23.855469 22.964844 38.042969 55.015625 38.042969 89.265625zm0 0" fill="#f7d360"/><path d="m322.054688 206.515625v-28.039063c0-15.191406 12.3125-27.503906 27.5-27.503906h70.292968v-30.066406l-25.015625-22.765625-23.558593-6.28125-77.574219 29.042969v85.613281c-54.304688 24.175781-92.15625 78.59375-92.15625 141.871094 0 85.359375 68.898437 154.625 154.132812 155.210937-46.679687-1.078125-84.332031-70.15625-84.332031-155.210937 0-63.277344 20.835938-117.695313 50.710938-141.871094zm0 0" fill="#72cec0"/><path d="m295.050781 455.683594c-37.089843-21.402344-62.09375-61.484375-62.09375-107.296875 0-34.25 14.1875-66.300781 38.039063-89.265625h15.886718c-9.792968 25.246094-15.539062 56.03125-15.539062 89.265625 0 41.621093 9.015625 79.414062 23.707031 107.296875zm0 0" fill="#e58e13"/><path d="m303.523438 436.109375-100.808594-174.605469v-90.339844h-95.804688v90.339844l-100.808594 174.605469c-17.320312 30 4.328126 67.5 38.972657 67.5h219.480469c34.640624 0 56.292968-37.5 38.96875-67.5zm0 0" fill="#e6e6e6"/><path d="m202.714844 171.164062-29.332032-16.480468-56.214843.585937-10.261719 15.894531v90.335938l-100.804688 174.613281c-17.332031 30 4.324219 67.496094 38.960938 67.496094h59.917969c-15.730469 0-25.5625-37.496094-17.699219-67.496094l45.78125-174.613281v-46.378906c0-9.53125 7.726562-17.253906 17.257812-17.253906h52.394532zm0 0" fill="#ccc"/><path d="m237.449219 150.746094c0 11.277344-9.140625 20.417968-20.417969 20.417968h-124.441406c-5.632813 0-10.742188-2.28125-14.4375-5.980468-3.695313-3.695313-5.980469-8.804688-5.980469-14.4375 0-11.277344 9.140625-20.417969 20.417969-20.417969h124.441406c5.632812 0 10.742188 2.28125 14.4375 5.976563 3.695312 3.699218 5.980469 8.808593 5.980469 14.441406zm0 0" fill="#ccc"/><path d="m237.449219 150.746094c0 11.277344-9.140625 20.417968-20.417969 20.417968h-74.921875c-5.644531 0-10.742187-2.28125-14.441406-5.980468-3.695313-3.695313-5.976563-8.804688-5.976563-14.4375 0-11.277344 9.140625-20.417969 20.417969-20.417969h74.921875c5.632812 0 10.742188 2.28125 14.4375 5.976563 3.695312 3.699218 5.980469 8.808593 5.980469 14.441406zm0 0" fill="#e6e6e6"/><path d="m455.015625 100.484375c0 11.277344-9.140625 20.417969-20.417969 20.417969h-153.933594c-5.644531 0-10.746093-2.28125-14.441406-5.976563-3.695312-3.699219-5.980468-8.808593-5.980468-14.441406 0-11.277344 9.144531-20.417969 20.421874-20.417969h153.933594c5.632813 0 10.742188 2.28125 14.4375 5.980469 3.699219 3.695313 5.980469 8.804687 5.980469 14.4375zm0 0" fill="#72cec0"/><path d="m455.015625 100.484375c0 11.277344-9.140625 20.417969-20.417969 20.417969h-106.21875c-5.632812 0-10.742187-2.28125-14.441406-5.976563-3.695312-3.699219-5.976562-8.808593-5.976562-14.441406 0-11.277344 9.140624-20.417969 20.417968-20.417969h106.21875c5.632813 0 10.742188 2.28125 14.4375 5.980469 3.699219 3.695313 5.980469 8.804687 5.980469 14.4375zm0 0" fill="#c9fff7"/><path d="m276.316406 465.402344c-1.464844 2.542968-4.941406 6.792968-11.757812 6.792968h-219.484375c-6.828125 0-10.304688-4.25-11.769531-6.792968-1.464844-2.535156-3.414063-7.675782 0-13.582032l74.082031-128.3125h94.859375l74.070312 128.3125c3.414063 5.90625 1.464844 11.046876 0 13.582032zm0 0" fill="#fc5f61"/><g fill="#e83842"><path d="m87.28125 436.113281c-3.085938 11.78125-3.445312 24.710938-1.789062 36.082031h-40.417969c-6.828125 0-10.304688-4.25-11.769531-6.792968-1.464844-2.535156-3.414063-7.675782 0-13.582032l74.082031-128.3125h9.414062zm0 0"/><path d="m171.699219 413.03125c-7.132813 0-10.527344-9.167969-5.09375-13.820312 5.402343-4.625 13.882812.09375 12.863281 7.125-.550781 3.804687-3.933594 6.695312-7.769531 6.695312zm0 0"/><path d="m137.0625 91.070312c-6.855469 0-10.378906-8.570312-5.550781-13.414062 2.609375-2.613281 6.839843-3.019531 9.90625-.972656 2.6875 1.789062 4.027343 5.15625 3.289062 8.300781-.820312 3.511719-4.03125 6.085937-7.644531 6.085937zm0 0"/><path d="m168.316406 61.226562c-7.105468 0-10.578125-9.203124-5.101562-13.828124 2.605468-2.203126 6.40625-2.484376 9.300781-.660157 2.78125 1.753907 4.199219 5.199219 3.449219 8.40625-.820313 3.503907-4.03125 6.082031-7.648438 6.082031zm0 0"/><path d="m151.292969 15.679688c-3.429688 0-6.515625-2.304688-7.519531-5.574219-.996094-3.261719.316406-6.921875 3.152343-8.8125 5.828125-3.890625 13.714844 1.609375 11.976563 8.441406-.878906 3.445313-4.046875 5.945313-7.609375 5.945313zm0 0"/></g><path d="m425.726562 307.8125c-6.980468 0-10.460937-8.914062-5.3125-13.640625 4.933594-4.527344 13.167969-.914063 13.167969 5.785156 0 4.269531-3.578125 7.855469-7.855469 7.855469zm0 0" fill="#fff"/><path d="m431.195312 360.1875c-6.839843 0-10.425781-8.574219-5.550781-13.402344 2.4375-2.414062 6.226563-2.972656 9.253907-1.367187 2.902343 1.542969 4.535156 4.828125 4.066406 8.074219-.554688 3.808593-3.9375 6.695312-7.769532 6.695312zm0 0" fill="#fff"/><path d="m328.765625 419.316406c-3.359375 0-6.398437-2.207031-7.453125-5.390625-1.117188-3.359375.238281-7.171875 3.21875-9.078125 5.914062-3.785156 13.679688 1.90625 11.800781 8.699219-.925781 3.359375-4.074219 5.769531-7.566406 5.769531zm0 0" fill="#fff"/><path d="m292.640625 353.347656c-7.097656 0-10.542969-9.152344-5.132813-13.789062 2.597657-2.230469 6.402344-2.507813 9.304688-.707032 2.753906 1.714844 4.183594 5.085938 3.511719 8.261719-.757813 3.585938-4.011719 6.234375-7.683594 6.234375zm0 0" fill="#fff"/><path d="m388.441406 334.5c-7.019531 0-10.496094-8.964844-5.269531-13.664062 2.605469-2.34375 6.503906-2.671876 9.472656-.816407 2.714844 1.703125 4.125 5.023438 3.503907 8.167969-.71875 3.625-4.015626 6.3125-7.707032 6.3125zm0 0" fill="#fff"/><path d="m116.738281 429.296875c-3.152343 0-6.046875-1.945313-7.257812-4.847656-1.328125-3.195313-.335938-7.035157 2.390625-9.171875 5.597656-4.378906 14.003906.667968 12.5625 7.703125-.742188 3.625-3.984375 6.316406-7.695313 6.316406zm0 0" fill="#e83842"/><path d="m137.15625 378.480469c-3.285156 0-6.285156-2.113281-7.394531-5.207031-1.179688-3.289063.027343-7.09375 2.902343-9.085938 5.589844-3.871094 13.429688 1.039062 12.222657 7.785156-.664063 3.710938-3.949219 6.507813-7.730469 6.507813zm0 0" fill="#e83842"/></svg>