<?xml version="1.0" encoding="UTF-8" standalone="no"?>
<svg
   aria-hidden="true"
   role="img"
   class="iconify iconify--custom"
   width="100"
   viewBox="0 0 47.65625 47.65687"
   style="font-size:36px"
   height="100"
   version="1.1"
   id="svg9"
   sodipodi:docname="w_tv-icon.svg"
   inkscape:version="1.4 (86a8ad7, 2024-10-11)"
   xmlns:inkscape="http://www.inkscape.org/namespaces/inkscape"
   xmlns:sodipodi="http://sodipodi.sourceforge.net/DTD/sodipodi-0.dtd"
   xmlns="http://www.w3.org/2000/svg"
   xmlns:svg="http://www.w3.org/2000/svg">
  <defs
     id="defs9" />
  <sodipodi:namedview
     id="namedview9"
     pagecolor="#ffffff"
     bordercolor="#000000"
     borderopacity="0.25"
     inkscape:showpageshadow="2"
     inkscape:pageopacity="0.0"
     inkscape:pagecheckerboard="true"
     inkscape:deskcolor="#d1d1d1"
     inkscape:zoom="5.1595352"
     inkscape:cx="8.8186238"
     inkscape:cy="38.472458"
     inkscape:window-width="2560"
     inkscape:window-height="1351"
     inkscape:window-x="-9"
     inkscape:window-y="-9"
     inkscape:window-maximized="1"
     inkscape:current-layer="g9" />
  <g
     fill="none"
     id="g9"
     transform="translate(-3.9678072e-4)">
    <path
       d="m 22.497033,34.799566 c 0.04362,-0.14304 0.175426,-0.240761 0.324886,-0.240761 0.309213,0 0.707933,0 1.095982,0 h 0.57103 c 0.228298,0 0.391638,0.220745 0.32498,0.43913 l -1.684101,5.520323 c -0.146817,0.481239 -0.591989,0.810186 -1.096454,0.810279 h -4.789921 c -0.508148,0 -0.95568,-0.333666 -1.099476,-0.819626 l -0.286364,-0.96852 c -0.06449,-0.217818 0.09866,-0.436392 0.32583,-0.436392 h 4.151196 c 0.504464,0 0.949637,-0.329041 1.096548,-0.810185 z"
       fill="#ffffff"
       style="fill-opacity:1;stroke:#000000;stroke-width:0.71485305;stroke-dasharray:none;stroke-opacity:1;paint-order:normal"
       id="path1" />
    <path
       d="m 43.915715,16.394091 c 0.765432,6.6e-5 1.315878,0.733982 1.099382,1.46599 l -6.699487,22.64883 c -0.143796,0.48596 -0.591328,0.819626 -1.099476,0.819626 h -4.789826 c -0.50456,0 -0.949733,-0.32904 -1.096549,-0.810279 l -0.297505,-0.97513 c -0.06657,-0.218384 0.09678,-0.439129 0.325074,-0.439129 h 4.175366 c 0.508054,0 0.955681,-0.333667 1.099382,-0.819627 l 6.403209,-21.646829 c 0.04268,-0.144381 0.175331,-0.243452 0.32583,-0.243452 z"
       fill="#ffffff"
       style="fill-opacity:1;stroke:#000000;stroke-width:0.71485305;stroke-dasharray:none;stroke-opacity:1;paint-order:normal"
       id="path2" />
    <path
       d="m 20.310921,26.237626 c 0.03295,-0.108011 0.186378,-0.108011 0.21933,0 l 1.112222,3.645974 c 0.02965,0.09697 0.02965,0.200634 0,0.2976 l -1.777574,5.826893 c -0.146816,0.481239 -0.591988,0.810185 -1.096454,0.81028 h -4.78992 c -0.508148,0 -0.955681,-0.333667 -1.099476,-0.819627 l -0.296845,-1.003549 c -0.06449,-0.217818 0.09773,-0.436392 0.324886,-0.436392 0.878259,0 2.827764,0 4.015047,0 0.553845,0 0.97834,-0.42204 1.096738,-0.810185 z"
       fill="#ffffff"
       style="fill-opacity:1;stroke:#000000;stroke-width:0.71485305;stroke-dasharray:none;stroke-opacity:1;paint-order:normal"
       id="path3" />
    <path
       d="m 40.650805,11.883926 c 0.765432,9.5e-5 1.315877,0.733962 1.099381,1.466038 l -6.699487,22.648782 c -0.143796,0.48596 -0.591328,0.819627 -1.099476,0.819627 h -4.78992 c -0.504465,0 -0.949638,-0.329041 -1.096455,-0.81028 l -0.308174,-1.010158 c -0.06666,-0.218385 0.09668,-0.43913 0.32498,-0.43913 h 4.038557 c 0.508148,0 0.95568,-0.333667 1.099476,-0.819627 l 6.393295,-21.6118 c 0.04277,-0.144381 0.175331,-0.243452 0.32583,-0.243452 z"
       fill="#ffffff"
       style="fill-opacity:1;stroke:#000000;stroke-width:0.71485305;stroke-dasharray:none;stroke-opacity:1;paint-order:normal"
       id="path4" />
    <path
       d="m 8.8539184,7.3387234 c 0.5372091,0 1.0023408,0.371977 1.1188976,0.8948451 l 3.198167,14.3487365 c 0.01105,0.04928 0.05061,0.08611 0.09895,0.09489 0.0069,0.0012 0.01388,0.0018 0.02106,0.0018 0.05627,-1.9e-4 0.105463,-0.03796 0.119814,-0.09215 L 17.216998,8.1902655 C 17.349653,7.6884049 17.804833,7.3387234 18.32535,7.3387234 h 4.191511 c 0.520894,0 0.976263,0.3501404 1.108634,0.8524353 L 27.430843,22.63565 c 0.01322,0.04994 0.05599,0.08536 0.106596,0.09082 0.0039,4.73e-4 0.0079,0.0011 0.01208,0.0011 0.05807,-9.5e-5 0.108483,-0.04032 0.121041,-0.09687 L 30.870613,8.234238 c 0.116226,-0.5231977 0.581604,-0.8955146 1.119115,-0.8955146 h 5.117639 c 0.765526,4.5e-6 1.315972,0.733909 1.099476,1.4660374 L 31.507261,31.453553 c -0.143701,0.48596 -0.591045,0.819531 -1.099193,0.819626 h -4.78992 c -0.50456,0 -0.949921,-0.328945 -1.096738,-0.810279 L 20.546584,18.438002 c -0.0168,-0.05514 -0.06779,-0.09281 -0.125573,-0.0931 -0.05778,2.83e-4 -0.108673,0.03796 -0.125574,0.0931 L 16.321556,31.4629 c -0.146912,0.481239 -0.59199,0.810279 -1.096549,0.810279 h -4.789901 c -0.5081574,0 -0.9556805,-0.333666 -1.0994196,-0.819626 L 2.6361609,8.8047608 C 2.4196427,8.0726636 2.97007,7.3387769 3.735581,7.3387234 Z"
       fill="#ffffff"
       style="fill-opacity:1;stroke:#000000;stroke-width:0.71485305;stroke-dasharray:none;stroke-opacity:1;paint-order:normal"
       id="path5" />
  </g>
</svg>
