<?xml version="1.0" encoding="UTF-8"?>
<svg width="24px" height="24px" viewBox="0 0 24 24" version="1.1" xmlns="http://www.w3.org/2000/svg" xmlns:xlink="http://www.w3.org/1999/xlink">
    <!-- Generator: Sketch 43.1 (39012) - http://www.bohemiancoding.com/sketch -->
    <title>/svg/ic-activity</title>
    <desc>Created with Sketch.</desc>
    <defs></defs>
    <g id="Page-1" stroke="none" stroke-width="1" fill="none" fill-rule="evenodd">
        <g id="ic-activity" fill-rule="nonzero" fill="#4A4A4A">
            <path d="M6.07648166,18.3482078 C6.67806236,19.6766082 8.19294083,19.6088449 8.67622412,18.2261661 L10.9775725,11.6419831 L13.4358599,19.0166055 C13.940138,20.5293908 15.5873637,20.4052977 15.8512266,18.8221202 L17.8808368,6.64445879 L20.1055728,11.0939307 C20.3525621,11.5879091 20.9532351,11.7881335 21.4472136,11.5411442 C21.9411921,11.294155 22.1414164,10.6934819 21.8944272,10.1995034 L18.7430907,3.89683071 C18.066578,2.54380516 16.4995525,2.76663985 16.2487734,4.27131444 L14.3754879,15.5110276 L12.2641401,9.17719013 C11.784425,7.73809151 10.2186805,7.75170208 9.72377588,9.16762951 L7.2803205,16.1583821 L6.32351834,14.0455878 C5.76617151,12.8148639 4.32464407,12.7229086 3.63340484,13.8978906 L2.13808929,16.4396574 C1.85804774,16.9156775 2.01691977,17.5285866 2.49293991,17.8086282 C2.96896005,18.0886697 3.58186916,17.9297977 3.86191071,17.4537776 L4.88436337,15.7157924 L6.07648166,18.3482078 Z" id="Path-32"></path>
        </g>
    </g>
</svg>