<?xml version="1.0" encoding="UTF-8"?>
<svg width="24px" height="24px" viewBox="0 0 24 24" version="1.1" xmlns="http://www.w3.org/2000/svg" xmlns:xlink="http://www.w3.org/1999/xlink">
    <!-- Generator: Sketch 43.1 (39012) - http://www.bohemiancoding.com/sketch -->
    <title>/svg/ic-align-horizontally</title>
    <desc>Created with Sketch.</desc>
    <defs></defs>
    <g id="Page-1" stroke="none" stroke-width="1" fill="none" fill-rule="evenodd">
        <g id="ic-align-horizontally" fill-rule="nonzero" fill="#4A4A4A">
            <path d="M14.009222,15 L9.99077797,15 C9.45097518,15 9,15.4477153 9,16 C9,16.5561352 9.44358641,17 9.99077797,17 L14.009222,17 C14.5490248,17 15,16.5522847 15,16 C15,15.4438648 14.5564136,15 14.009222,15 Z M14.009222,13 C15.6652706,13 17,14.34357 17,16 C17,17.6524484 15.657998,19 14.009222,19 L9.99077797,19 C8.33472944,19 7,17.65643 7,16 C7,14.3475516 8.34200198,13 9.99077797,13 L14.009222,13 Z M17.4982026,7 L7.00179743,7 C6.44488162,7 6,7.44771525 6,8 C6,8.55613518 6.44851999,9 7.00179743,9 L17.4982026,9 C18.0551184,9 18.5,8.55228475 18.5,8 C18.5,7.44386482 18.05148,7 17.4982026,7 Z M17.4982026,5 C19.1553939,5 20.5,6.33862387 20.5,8 C20.5,9.6577913 19.158752,11 17.4982026,11 L7.00179743,11 C5.34460615,11 4,9.66137613 4,8 C4,6.3422087 5.34124801,5 7.00179743,5 L17.4982026,5 Z M11,22.0010434 L11,20 L13,20 L13,22.0010434 C13,22.5573397 12.5522847,23 12,23 C11.4438648,23 11,22.5527519 11,22.0010434 Z M11,1.99895656 C11,1.44724809 11.4438648,1 12,1 C12.5522847,1 13,1.44266033 13,1.99895656 L13,4 L11,4 L11,1.99895656 Z" id="Rectangle-122-Copy"></path>
        </g>
    </g>
</svg>