<?xml version="1.0" encoding="UTF-8"?>
<svg width="24px" height="24px" viewBox="0 0 24 24" version="1.1" xmlns="http://www.w3.org/2000/svg" xmlns:xlink="http://www.w3.org/1999/xlink">
    <!-- Generator: Sketch 43.1 (39012) - http://www.bohemiancoding.com/sketch -->
    <title>/svg/ic-align-vertical</title>
    <desc>Created with Sketch.</desc>
    <defs></defs>
    <g id="Page-1" stroke="none" stroke-width="1" fill="none" fill-rule="evenodd">
        <g id="ic-align-vertical" fill-rule="nonzero" fill="#4A4A4A">
            <path d="M7,7.9955775 L7,17.0044225 C7,17.555163 7.44771525,18 8,18 C8.55613518,18 9,17.5542648 9,17.0044225 L9,7.9955775 C9,7.44483697 8.55228475,7 8,7 C7.44386482,7 7,7.44573523 7,7.9955775 Z M5,7.9955775 C5,6.33904542 6.34141643,5 8,5 C9.65490888,5 11,6.33830788 11,7.9955775 L11,17.0044225 C11,18.6609546 9.65858357,20 8,20 C6.34509112,20 5,18.6616921 5,17.0044225 L5,7.9955775 Z M15,10.9998075 L15,14.0001925 C15,14.5562834 15.4477153,15 16,15 C16.5561352,15 17,14.5523709 17,14.0001925 L17,10.9998075 C17,10.4437166 16.5522847,10 16,10 C15.4438648,10 15,10.4476291 15,10.9998075 Z M13,10.9998075 C13,9.34283109 14.3395175,8 16,8 C17.6569135,8 19,9.3391983 19,10.9998075 L19,14.0001925 C19,15.6571689 17.6604825,17 16,17 C14.3430865,17 13,15.6608017 13,14.0001925 L13,10.9998075 Z M23,13 C23,13.5561352 22.5527519,14 22.0010434,14 L20,14 L20,12 L22.0010434,12 C22.5573397,12 23,12.4477153 23,13 Z M1,13 C1,12.4477153 1.44266033,12 1.99895656,12 L4,12 L4,14 L1.99895656,14 C1.44724809,14 1,13.5561352 1,13 Z" id="Rectangle-122"></path>
        </g>
    </g>
</svg>