<?xml version="1.0" encoding="UTF-8"?>
<svg width="24px" height="24px" viewBox="0 0 24 24" version="1.1" xmlns="http://www.w3.org/2000/svg" xmlns:xlink="http://www.w3.org/1999/xlink">
    <!-- Generator: Sketch 43.1 (39012) - http://www.bohemiancoding.com/sketch -->
    <title>/svg/ic-align-top</title>
    <desc>Created with Sketch.</desc>
    <defs></defs>
    <g id="Page-1" stroke="none" stroke-width="1" fill="none" fill-rule="evenodd">
        <g id="ic-align-top" fill-rule="nonzero" fill="#4A4A4A">
            <path d="M7,8.9955775 L7,18.0044225 C7,18.555163 7.44771525,19 8,19 C8.55613518,19 9,18.5542648 9,18.0044225 L9,8.9955775 C9,8.44483697 8.55228475,8 8,8 C7.44386482,8 7,8.44573523 7,8.9955775 Z M5,8.9955775 C5,7.33904542 6.34141643,6 8,6 C9.65490888,6 11,7.33830788 11,8.9955775 L11,18.0044225 C11,19.6609546 9.65858357,21 8,21 C6.34509112,21 5,19.6616921 5,18.0044225 L5,8.9955775 Z M15,8.99077797 L15,13.009222 C15,13.5490248 15.4477153,14 16,14 C16.5561352,14 17,13.5564136 17,13.009222 L17,8.99077797 C17,8.45097518 16.5522847,8 16,8 C15.4438648,8 15,8.44358641 15,8.99077797 Z M13,8.99077797 C13,7.33472944 14.34357,6 16,6 C17.6524484,6 19,7.34200198 19,8.99077797 L19,13.009222 C19,14.6652706 17.65643,16 16,16 C14.3475516,16 13,14.657998 13,13.009222 L13,8.99077797 Z M1,4 C1,3.44771525 1.43945834,3 2.00246167,3 L21.9975383,3 C22.5511826,3 23,3.44386482 23,4 C23,4.55228475 22.5605417,5 21.9975383,5 L2.00246167,5 C1.44881738,5 1,4.55613518 1,4 Z" id="Rectangle-122"></path>
        </g>
    </g>
</svg>