<?xml version="1.0" encoding="UTF-8"?>
<svg width="24px" height="24px" viewBox="0 0 24 24" version="1.1" xmlns="http://www.w3.org/2000/svg" xmlns:xlink="http://www.w3.org/1999/xlink">
    <!-- Generator: Sketch 43.1 (39012) - http://www.bohemiancoding.com/sketch -->
    <title>/svg/ic-align-left</title>
    <desc>Created with Sketch.</desc>
    <defs></defs>
    <g id="Page-1" stroke="none" stroke-width="1" fill="none" fill-rule="evenodd">
        <g id="ic-align-left" fill-rule="nonzero" fill="#4A4A4A">
            <path d="M18.0044225,7 L8.9955775,7 C8.44483697,7 8,7.44771525 8,8 C8,8.55613518 8.44573523,9 8.9955775,9 L18.0044225,9 C18.555163,9 19,8.55228475 19,8 C19,7.44386482 18.5542648,7 18.0044225,7 Z M18.0044225,5 C19.6609546,5 21,6.34141643 21,8 C21,9.65490888 19.6616921,11 18.0044225,11 L8.9955775,11 C7.33904542,11 6,9.65858357 6,8 C6,6.34509112 7.33830788,5 8.9955775,5 L18.0044225,5 Z M13.009222,15 L8.99077797,15 C8.45097518,15 8,15.4477153 8,16 C8,16.5561352 8.44358641,17 8.99077797,17 L13.009222,17 C13.5490248,17 14,16.5522847 14,16 C14,15.4438648 13.5564136,15 13.009222,15 Z M13.009222,13 C14.6652706,13 16,14.34357 16,16 C16,17.6524484 14.657998,19 13.009222,19 L8.99077797,19 C7.33472944,19 6,17.65643 6,16 C6,14.3475516 7.34200198,13 8.99077797,13 L13.009222,13 Z M3,2.00246167 C3,1.44881738 3.44386482,1 4,1 C4.55228475,1 5,1.43945834 5,2.00246167 L5,21.9975383 C5,22.5511826 4.55613518,23 4,23 C3.44771525,23 3,22.5605417 3,21.9975383 L3,2.00246167 Z" id="Rectangle-122"></path>
        </g>
    </g>
</svg>