<?xml version="1.0" encoding="UTF-8"?>
<svg width="24px" height="24px" viewBox="0 0 24 24" version="1.1" xmlns="http://www.w3.org/2000/svg" xmlns:xlink="http://www.w3.org/1999/xlink">
    <!-- Generator: Sketch 43.1 (39012) - http://www.bohemiancoding.com/sketch -->
    <title>/svg/ic-add</title>
    <desc>Created with Sketch.</desc>
    <defs></defs>
    <g id="Page-1" stroke="none" stroke-width="1" fill="none" fill-rule="evenodd">
        <g id="ic-add" fill-rule="nonzero" fill="#4A4A4A">
            <path d="M12,21 C16.9705627,21 21,16.9705627 21,12 C21,7.02943725 16.9705627,3 12,3 C7.02943725,3 3,7.02943725 3,12 C3,16.9705627 7.02943725,21 12,21 Z M12,23 C5.92486775,23 1,18.0751322 1,12 C1,5.92486775 5.92486775,1 12,1 C18.0751322,1 23,5.92486775 23,12 C23,18.0751322 18.0751322,23 12,23 Z M13,11 L13,8.99703014 C13,8.45303631 12.5522847,8 12,8 C11.4438648,8 11,8.4463856 11,8.99703014 L11,11 L8.99703014,11 C8.45303631,11 8,11.4477153 8,12 C8,12.5561352 8.4463856,13 8.99703014,13 L11,13 L11,15.0029699 C11,15.5469637 11.4477153,16 12,16 C12.5561352,16 13,15.5536144 13,15.0029699 L13,13 L15.0029699,13 C15.5469637,13 16,12.5522847 16,12 C16,11.4438648 15.5536144,11 15.0029699,11 L13,11 Z" id="Combined-Shape"></path>
        </g>
    </g>
</svg>