<?xml version="1.0" encoding="UTF-8"?>
<svg width="24px" height="24px" viewBox="0 0 24 24" version="1.1" xmlns="http://www.w3.org/2000/svg" xmlns:xlink="http://www.w3.org/1999/xlink">
    <!-- Generator: Sketch 43.1 (39012) - http://www.bohemiancoding.com/sketch -->
    <title>/svg/ic-box</title>
    <desc>Created with Sketch.</desc>
    <defs></defs>
    <g id="Page-1" stroke="none" stroke-width="1" fill="none" fill-rule="evenodd">
        <g id="ic-box" fill-rule="nonzero" fill="#4A4A4A">
            <path d="M3,9.99539757 L3,18.0046024 C3,18.5443356 3.44475929,19 3.99339768,19 L20.0066023,19 C20.5550537,19 21,18.5543453 21,18.0046024 L21,9.99539757 C21,9.4556644 20.6418968,8.73142256 20.200154,8.4001155 L17.799846,6.5998845 C17.3549733,6.26622999 16.5555095,6 16.0072027,6 L8.01892033,6 C7.48059711,6 6.66999585,6.26536238 6.23069069,6.59270346 L3.79543236,8.40729654 C3.35729156,8.73377001 3,9.44565467 3,9.99539757 Z M1,9.99539757 C1,8.81489803 1.65497559,7.50805042 2.60043293,6.80355829 L5.03569126,4.98896521 C5.81826735,4.40584139 7.04744243,4 8.01892033,4 L16.0072027,4 C16.9901028,4 18.2102662,4.40769965 18.999846,4.9998845 L21.400154,6.8001155 C22.3431209,7.50734065 23,8.82315552 23,9.99539757 L23,18.0046024 C23,19.6580088 21.6605309,21 20.0066023,21 L3.99339768,21 C2.33959693,21 1,19.6483825 1,18.0046024 L1,9.99539757 Z M14.0410722,10.7732142 C16.3607148,10.5154761 21,10 21,10 L21,12 L14.0647866,12.7705793 M9.95624821,12.7729165 C7.63749881,12.5152776 3,12 3,12 L3,10 L9.97349139,10.7748324 L9.95624821,12.7729165 Z M12,13 C11.4477153,13 11,12.5522847 11,12 C11,11.4477153 11.4477153,11 12,11 C12.5522847,11 13,11.4477153 13,12 C13,12.5522847 12.5522847,13 12,13 Z" id="Combined-Shape"></path>
        </g>
    </g>
</svg>