<?xml version="1.0" encoding="UTF-8"?>
<svg width="24px" height="24px" viewBox="0 0 24 24" version="1.1" xmlns="http://www.w3.org/2000/svg" xmlns:xlink="http://www.w3.org/1999/xlink">
    <!-- Generator: Sketch 43.1 (39012) - http://www.bohemiancoding.com/sketch -->
    <title>/svg/ic-bag</title>
    <desc>Created with Sketch.</desc>
    <defs></defs>
    <g id="Page-1" stroke="none" stroke-width="1" fill="none" fill-rule="evenodd">
        <g id="ic-bag" fill-rule="nonzero" fill="#4A4A4A">
            <path d="M4,9.0085302 L4,16.9914698 C4,17.5484013 4.4481604,18 4.99508929,18 L19.0049107,18 C19.5533259,18 20,17.5502218 20,16.9914698 L20,9.0085302 C20,8.45159872 19.5518396,8 19.0049107,8 L4.99508929,8 C4.44667411,8 4,8.4497782 4,9.0085302 Z M17,6 C17,5.44771525 17.4438648,5 18,5 C18.5522847,5 19,5.44386482 19,6 L19.0049107,6 C20.6598453,6 22,7.35043647 22,9.0085302 L22,16.9914698 C22,18.6517027 20.6610078,20 19.0049107,20 L4.99508929,20 C3.34015473,20 2,18.6495635 2,16.9914698 L2,9.0085302 C2,7.34829734 3.33899222,6 4.99508929,6 L5,6 C5,5.44771525 5.44386482,5 6,5 C6.55228475,5 7,5.44386482 7,6 L8.12601749,6 C8.57006028,4.27477279 10.1361606,3 12,3 C13.8638394,3 15.4299397,4.27477279 15.8739825,6 L17,6 Z M10.2675644,6 L13.7324356,6 C13.3866262,5.40219863 12.7402824,5 12,5 C11.2597176,5 10.6133738,5.40219863 10.2675644,6 Z" id="Rectangle"></path>
        </g>
    </g>
</svg>