<?xml version="1.0" encoding="UTF-8"?>
<svg width="24px" height="24px" viewBox="0 0 24 24" version="1.1" xmlns="http://www.w3.org/2000/svg" xmlns:xlink="http://www.w3.org/1999/xlink">
    <!-- Generator: Sketch 43.1 (39012) - http://www.bohemiancoding.com/sketch -->
    <title>/svg/ic-book</title>
    <desc>Created with Sketch.</desc>
    <defs></defs>
    <g id="Page-1" stroke="none" stroke-width="1" fill="none" fill-rule="evenodd">
        <g id="ic-book" fill-rule="nonzero" fill="#4A4A4A">
            <path d="M5,5.00955791 L5,18.9904421 C5,20.0989277 5.89694665,21 6.9947834,21 L17.0052166,21 C18.1034083,21 19,20.1005885 19,18.9904421 L19,5.00955791 C19,3.90107232 18.1030534,3 17.0052166,3 L6.9947834,3 C5.89659166,3 5,3.89941153 5,5.00955791 Z M3,5.00955791 C3,2.79514022 4.79171562,1 6.9947834,1 L17.0052166,1 C19.2114745,1 21,2.80035233 21,5.00955791 L21,18.9904421 C21,21.2048598 19.2082844,23 17.0052166,23 L6.9947834,23 C4.78852545,23 3,21.1996477 3,18.9904421 L3,5.00955791 Z M10,3 L14,3 L14,10.4427251 C14,10.9960409 13.6538055,11.1615188 13.2235383,10.8097018 L12.063572,9.86123105 L10.7919291,10.8369517 C10.3545588,11.1725422 10,10.9905741 10,10.4427251 L10,3 Z M7.00335124,15 L20,15 L20,17 L7.00335124,17 C5.89801946,17 5,17.8977137 5,19 L3,19 C3,16.7929918 4.79360238,15 7.00335124,15 Z" id="Rectangle"></path>
        </g>
    </g>
</svg>