<?xml version="1.0" encoding="UTF-8"?>
<svg width="24px" height="24px" viewBox="0 0 24 24" version="1.1" xmlns="http://www.w3.org/2000/svg" xmlns:xlink="http://www.w3.org/1999/xlink">
    <!-- Generator: Sketch 43.1 (39012) - http://www.bohemiancoding.com/sketch -->
    <title>/svg/ic-bottle</title>
    <desc>Created with Sketch.</desc>
    <defs></defs>
    <g id="Page-1" stroke="none" stroke-width="1" fill="none" fill-rule="evenodd">
        <g id="ic-bottle" fill-rule="nonzero" fill="#4A4A4A">
            <path d="M7,10.9961274 L7,10.9961274 L7,20.009948 C7,20.5609927 7.44565467,21.0060754 7.99539757,21.0060754 L16.0046024,21.0060754 C16.5443356,21.0060754 17,20.560094 17,20.009948 L17,10.9961274 C17,10.4450827 16.5480902,10 15.9906311,10 L14.0093689,10 C13.4433532,10 13,9.55241141 13,9.0002829 L13,5.11804445 L14,5.10979032 C14.5561352,5.10519991 15,4.65443251 15,4.10290217 L15,4.00470941 C15,3.45046873 14.5564136,3.00607538 14.009222,3.00607538 L9.99077797,3.00607538 C9.45097518,3.00607538 9,3.45317907 9,4.00470941 L9,4.10290217 C9,4.65714285 9.44771525,5.1052317 10,5.10979032 L11,5.11804445 L11,9.0002829 C11,9.54946797 10.5480902,10 9.9906311,10 L8.0093689,10 C7.44335318,10 7,10.4459814 7,10.9961274 L7,10.9961274 Z M5,10.9961274 L5,10.9961274 C5,9.3351821 6.34500846,8 8.0093689,8 L9.9906311,8 C9.4458742,8 9,8.44250877 9,9.0002829 L9,5.11804445 L11,5.11804445 L10.9834923,7.11797632 L9.98349231,7.1097222 C8.33362588,7.09610399 7,5.75578864 7,4.10290217 L7,4.00470941 C7,2.35240225 8.34261628,1.00607538 9.99077797,1.00607538 L14.009222,1.00607538 C15.6646184,1.00607538 17,2.34952218 17,4.00470941 L17,4.10290217 C17,5.75333391 15.6699631,7.09607437 14.0165077,7.1097222 L13.0165077,7.11797632 L13,5.11804445 L15,5.11804445 L15,9.0002829 C15,8.44911028 14.549209,8 14.0093689,8 L15.9906311,8 C17.6468308,8 19,9.33458526 19,10.9961274 L19,20.009948 C19,21.6640082 17.6496007,23.0060754 16.0046024,23.0060754 L7.99539757,23.0060754 C6.34072578,23.0060754 5,21.6652028 5,20.009948 L5,10.9961274 Z M10.25,11 C9.95645956,11 9.56869374,11.0646276 9.1645898,11.2666796 C8.4501558,11.6238966 8,12.2991303 8,13.25 C8,13.6642136 8.33578644,14 8.75,14 C9.16421356,14 9.5,13.6642136 9.5,13.25 C9.5,12.8883697 9.6123442,12.7198534 9.8354102,12.6083204 C9.99380626,12.5291224 10.1685404,12.5 10.25,12.5 C10.6642136,12.5 11,12.1642136 11,11.75 C11,11.3357864 10.6642136,11 10.25,11 L10.25,11 Z" id="Rectangle-181"></path>
        </g>
    </g>
</svg>