<?xml version="1.0" encoding="UTF-8"?>
<svg width="24px" height="24px" viewBox="0 0 24 24" version="1.1" xmlns="http://www.w3.org/2000/svg" xmlns:xlink="http://www.w3.org/1999/xlink">
    <!-- Generator: Sketch 43.1 (39012) - http://www.bohemiancoding.com/sketch -->
    <title>/svg/ic-battery-empty</title>
    <desc>Created with Sketch.</desc>
    <defs></defs>
    <g id="Page-1" stroke="none" stroke-width="1" fill="none" fill-rule="evenodd">
        <g id="ic-battery-empty" fill-rule="nonzero" fill="#4A4A4A">
            <path d="M19.8600203,8.09268063 C21.6558258,8.48614306 23,10.0860972 23,12 C23,13.9135298 21.6563497,15.5132332 19.8610703,15.9070892 C19.4762696,17.1226935 18.3358727,18 16.992516,18 L4.00748397,18 C2.35141007,18 1,16.6564502 1,15.0029699 L1,8.99703014 C1,7.33705118 2.34908251,6 4.00748397,6 L16.992516,6 C18.333007,6 19.4738848,6.88028265 19.8600203,8.09268063 L19.8600203,8.09268063 Z M3,8.99703014 L3,15.0029699 C3,15.5469637 3.45106594,16 4.00748397,16 L16.992516,16 C17.5510798,16 18,15.5536144 18,15.0029699 L18,8.99703014 C18,8.45303631 17.5489341,8 16.992516,8 L4.00748397,8 C3.44892021,8 3,8.4463856 3,8.99703014 Z" id="Combined-Shape"></path>
        </g>
    </g>
</svg>