<?xml version="1.0" encoding="UTF-8"?>
<svg width="24px" height="24px" viewBox="0 0 24 24" version="1.1" xmlns="http://www.w3.org/2000/svg" xmlns:xlink="http://www.w3.org/1999/xlink">
    <!-- Generator: Sketch 43.1 (39012) - http://www.bohemiancoding.com/sketch -->
    <title>/svg/ic-calendar</title>
    <desc>Created with Sketch.</desc>
    <defs></defs>
    <g id="Page-1" stroke="none" stroke-width="1" fill="none" fill-rule="evenodd">
        <g id="ic-calendar" fill-rule="nonzero" fill="#4A4A4A">
            <path d="M3,7.99850233 L3,19.0014977 C3,19.5525106 3.44475929,20 3.99339768,20 L20.0066023,20 C20.5550537,20 21,19.5529553 21,19.0014977 L21,7.99850233 C21,7.44748943 20.5552407,7 20.0066023,7 L3.99339768,7 C3.44494629,7 3,7.44704472 3,7.99850233 Z M1,7.99850233 C1,6.34477045 2.33806953,5 3.99339768,5 L20.0066023,5 C21.6620972,5 23,6.34519144 23,7.99850233 L23,19.0014977 C23,20.6552296 21.6619305,22 20.0066023,22 L3.99339768,22 C2.33790283,22 1,20.6548086 1,19.0014977 L1,7.99850233 Z M3,11 L3,9 L21,9 L21,11 L3,11 Z M6,2.99895656 C6,2.44724809 6.44386482,2 7,2 C7.55228475,2 8,2.44266033 8,2.99895656 L8,5 L6,5 L6,2.99895656 Z M16,2.99895656 C16,2.44724809 16.4438648,2 17,2 C17.5522847,2 18,2.44266033 18,2.99895656 L18,5 L16,5 L16,2.99895656 Z" id="Combined-Shape"></path>
        </g>
    </g>
</svg>