<?xml version="1.0" encoding="UTF-8"?>
<svg width="24px" height="24px" viewBox="0 0 24 24" version="1.1" xmlns="http://www.w3.org/2000/svg" xmlns:xlink="http://www.w3.org/1999/xlink">
    <!-- Generator: Sketch 43.1 (39012) - http://www.bohemiancoding.com/sketch -->
    <title>/svg/ic-compass</title>
    <desc>Created with Sketch.</desc>
    <defs></defs>
    <g id="Page-1" stroke="none" stroke-width="1" fill="none" fill-rule="evenodd">
        <g id="ic-compass" fill="#4A4A4A">
            <path d="M13,3.05492878 L13,3.9906311 C13,4.54809015 12.5561352,5 12,5 C11.4477153,5 11,4.55664682 11,3.9906311 L11,3.05492878 C6.82838339,3.5160776 3.5160776,6.82838339 3.05492878,11 L3.9906311,11 C4.54809015,11 5,11.4438648 5,12 C5,12.5522847 4.55664682,13 3.9906311,13 L3.05492878,13 C3.5160776,17.1716166 6.82838339,20.4839224 11,20.9450712 L11,20.0093689 C11,19.4519098 11.4438648,19 12,19 C12.5522847,19 13,19.4433532 13,20.0093689 L13,20.9450712 C17.1716166,20.4839224 20.4839224,17.1716166 20.9450712,13 L20.0093689,13 C19.4519098,13 19,12.5561352 19,12 C19,11.4477153 19.4433532,11 20.0093689,11 L20.9450712,11 C20.4839224,6.82838339 17.1716166,3.5160776 13,3.05492878 Z M12,23 C5.92486775,23 1,18.0751322 1,12 C1,5.92486775 5.92486775,1 12,1 C18.0751322,1 23,5.92486775 23,12 C23,18.0751322 18.0751322,23 12,23 Z M9.18025281,10.9408171 C9.44709983,10.1892113 10.1886262,9.44730756 10.9408171,9.18025281 L15.068574,7.7147509 C16.1104166,7.34485936 16.6580996,7.88124897 16.2852491,8.93142599 L14.8197472,13.0591829 C14.5529002,13.8107887 13.8113738,14.5526924 13.0591829,14.8197472 L8.93142599,16.2852491 C7.88958335,16.6551406 7.34190036,16.118751 7.7147509,15.068574 L9.18025281,10.9408171 Z M11.6949141,11.0173103 C11.451536,11.1037182 11.1036208,11.4518105 11.0173103,11.6949141 L10.3084234,13.6915766 L12.3050859,12.9826897 C12.548464,12.8962818 12.8963792,12.5481895 12.9826897,12.3050859 L13.6915766,10.3084234 L11.6949141,11.0173103 Z" id="Combined-Shape"></path>
        </g>
    </g>
</svg>