<?xml version="1.0" encoding="UTF-8"?>
<svg width="24px" height="24px" viewBox="0 0 24 24" version="1.1" xmlns="http://www.w3.org/2000/svg" xmlns:xlink="http://www.w3.org/1999/xlink">
    <!-- Generator: Sketch 43.1 (39012) - http://www.bohemiancoding.com/sketch -->
    <title>/svg/ic-cloud</title>
    <desc>Created with Sketch.</desc>
    <defs></defs>
    <g id="Page-1" stroke="none" stroke-width="1" fill="none" fill-rule="evenodd">
        <g id="ic-cloud" fill-rule="nonzero" fill="#4A4A4A">
            <path d="M7.99478315,10.0007127 C7.99439817,10.5526699 7.54683056,11 6.9947834,11 C5.34021017,11 4,12.3422966 4,14 C4,15.6543769 5.34282584,17 6.9947834,17 L17.0052166,17 C17.0590011,17 17.1117939,17.0042461 17.1632781,17.0124214 C17.2721172,17.0042721 17.3844566,17 17.5,17 C18.8807119,17 20,15.8807119 20,14.5 C20,13.1192881 18.8807119,12 17.5,12 C16.1192881,12 15,13.1192881 15,14.5 C15,15.0522847 14.5522847,15.5 14,15.5 C13.4477153,15.5 13,15.0522847 13,14.5 C13,12.5406835 14.2521964,10.8738332 15.9999685,10.2560697 C15.9912915,7.89247472 14.1915862,6 12,6 C9.80310996,6 8,7.6284075 8,10 L7.99478319,10.0007127 Z M6.10884541,9.07834747 C6.6415726,6.19259507 9.06736468,4 12,4 C15.2465307,4 17.8719112,6.68708456 17.9954525,10.026964 C20.2476168,10.2736169 22,12.1821629 22,14.5 C22,16.9852814 19.9852814,19 17.5,19 C17.3711982,19 17.2484906,18.9972914 17.1317277,18.9920737 C17.0902938,18.9973045 17.04807,19 17.0052166,19 L6.9947834,19 C4.2373236,19 2,16.7580158 2,14 C2,11.5409758 3.7720576,9.49675372 6.10884541,9.07834747 Z" id="Combined-Shape"></path>
        </g>
    </g>
</svg>