<?xml version="1.0" encoding="UTF-8"?>
<svg width="24px" height="24px" viewBox="0 0 24 24" version="1.1" xmlns="http://www.w3.org/2000/svg" xmlns:xlink="http://www.w3.org/1999/xlink">
    <!-- Generator: Sketch 43.1 (39012) - http://www.bohemiancoding.com/sketch -->
    <title>/svg/ic-cactus</title>
    <desc>Created with Sketch.</desc>
    <defs></defs>
    <g id="Page-1" stroke="none" stroke-width="1" fill="none" fill-rule="evenodd">
        <g id="ic-cactus" fill-rule="nonzero" fill="#4A4A4A">
            <path d="M10,3.99339768 L10,3.99339768 L10,21 L14,21 L14,3.99339768 C14,3.44494629 13.5480902,3 12.9906311,3 L11.0093689,3 C10.4433532,3 10,3.44475929 10,3.99339768 L10,3.99339768 Z M8,3.99339768 L8,3.99339768 C8,2.33272774 9.34622509,1 11.0093689,1 L12.9906311,1 C14.645574,1 16,2.33316828 16,3.99339768 L16,21 L16,23 L14,23 L10,23 L8,23 L8,21 L8,3.99339768 Z M3,22 C3,21.4477153 3.44494629,21 3.99339768,21 L20.0066023,21 C20.5552407,21 21,21.4438648 21,22 L21,22 C21,22.5522847 20.5550537,23 20.0066023,23 L3.99339768,23 C3.44475929,23 3,22.5561352 3,22 L3,22 Z M16,11 L16,11 L16,13 L20.0001925,13 C20.5562834,13 21,12.5564136 21,12.009222 L21,7.99077797 C21,7.45097518 20.5522847,7 20,7 L20,7 C19.4438648,7 19,7.45190985 19,8.0093689 L19,11 L16,11 Z M16,9 L16,9 L19,9 L17,11 L17,8.0093689 C17,6.35132605 18.3352224,5 20,5 C21.6524484,5 23,6.34200198 23,7.99077797 L23,12.009222 C23,13.6651857 21.6566617,15 20.0001925,15 L16,15 L14,15 L14,13 L14,11 L14,9 L16,9 Z M8,13 L5,13 L5,10.9989566 C5,10.4472481 4.55613518,10 4,10 L4,10 C3.44771525,10 3,10.4437166 3,10.9998075 L3,14.0001925 C3,14.5523709 3.44371665,15 3.99980749,15 L8,15 L8,13 L8,13 Z M8,11 L8,11 L10,11 L10,13 L10,15 L10,17 L8,17 L3.99980749,17 C2.33928476,17 1,15.6570853 1,14.0001925 L1,10.9998075 C1,9.3391983 2.34308651,8 4,8 C5.66010044,8 7,9.3420709 7,10.9989566 L7,13 L5,11 L8,11 Z" id="Rectangle-164"></path>
        </g>
    </g>
</svg>