<?xml version="1.0" encoding="UTF-8"?>
<svg width="24px" height="24px" viewBox="0 0 24 24" version="1.1" xmlns="http://www.w3.org/2000/svg" xmlns:xlink="http://www.w3.org/1999/xlink">
    <!-- Generator: Sketch 43.1 (39012) - http://www.bohemiancoding.com/sketch -->
    <title>/svg/ic-cup</title>
    <desc>Created with Sketch.</desc>
    <defs></defs>
    <g id="Page-1" stroke="none" stroke-width="1" fill="none" fill-rule="evenodd">
        <g id="ic-cup" fill-rule="nonzero" fill="#4A4A4A">
            <path d="M5,6 L5,6 L5,14.5070111 C5,17.5293078 7.46243388,20 10.5,20 L10.5,20 C13.5313853,20 16,17.5407051 16,14.5070111 L16,6 L5,6 Z M5,4 L5,4 L16,4 L18,4 L18,6 L18,14.5070111 C18,18.6440638 14.637172,22 10.5,22 C6.36172993,22 3,18.6377435 3,14.5070111 L3,6 L3,4 L5,4 Z M16,9 L5,9 L5,7 L16,7 L16,9 Z M17,17 L17,15.3333333 C18.8409492,15.3333333 20.3333333,13.8409492 20.3333333,12 C20.3333333,10.1590508 18.8409492,8.66666667 17,8.66666667 L17,7 C19.7614237,7 22,9.23857625 22,12 C22,14.7614237 19.7614237,17 17,17 Z" id="Rectangle-100"></path>
        </g>
    </g>
</svg>