<?xml version="1.0" encoding="UTF-8"?>
<svg width="24px" height="24px" viewBox="0 0 24 24" version="1.1" xmlns="http://www.w3.org/2000/svg" xmlns:xlink="http://www.w3.org/1999/xlink">
    <!-- Generator: Sketch 43.1 (39012) - http://www.bohemiancoding.com/sketch -->
    <title>/svg/ic-cogwheel</title>
    <desc>Created with Sketch.</desc>
    <defs></defs>
    <g id="Page-1" stroke="none" stroke-width="1" fill="none" fill-rule="evenodd">
        <g id="ic-cogwheel" fill-rule="nonzero" fill="#4A4A4A">
            <path d="M12,20 C7.581722,20 4,16.418278 4,12 C4,7.581722 7.581722,4 12,4 C16.418278,4 20,7.581722 20,12 C20,16.418278 16.418278,20 12,20 Z M12,18 C15.3137085,18 18,15.3137085 18,12 C18,8.6862915 15.3137085,6 12,6 C8.6862915,6 6,8.6862915 6,12 C6,15.3137085 8.6862915,18 12,18 Z M12,15 C10.3431458,15 9,13.6568542 9,12 C9,10.3431458 10.3431458,9 12,9 C13.6568542,9 15,10.3431458 15,12 C15,13.6568542 13.6568542,15 12,15 Z M12,13 C12.5522847,13 13,12.5522847 13,12 C13,11.4477153 12.5522847,11 12,11 C11.4477153,11 11,11.4477153 11,12 C11,12.5522847 11.4477153,13 12,13 Z M12.9906311,3 L11.0093689,3 C10.9975891,3 11,2.99759992 11,2.99895656 L11,4 L13,4 L13,2.99917107 C12.9999559,2.99967743 12.9992579,3 12.9906311,3 Z M9,2.99895656 C9,1.8910123 9.89502771,1 11.0093689,1 L12.9906311,1 C14.0989714,1 15,1.88890504 15,2.99895656 L15,6 L9,6 L9,2.99895656 Z M20.2895442,8.3579117 L19.2989131,6.6420883 C19.2930232,6.6318867 19.2963072,6.63277456 19.2951323,6.63345288 L18.4282032,7.1339746 L19.4282032,8.8660254 L20.2949465,8.36561094 C20.2944859,8.36582594 20.2938576,8.36538272 20.2895442,8.3579117 Z M21.0309639,5.6420883 L22.021595,7.3579117 C22.5757651,8.31776256 22.2564651,9.54252873 21.2951323,10.0975545 L18.6961524,11.5980762 L15.6961524,6.40192379 L18.2951323,4.90140207 C19.2546402,4.34742994 20.4737933,4.67704053 21.0309639,5.6420883 Z M19.2989131,17.3579117 L20.2895442,15.6420883 C20.2954341,15.6318867 20.2963072,15.6351746 20.2951323,15.6344963 L19.4282032,15.1339746 L18.4282032,16.8660254 L19.2949465,17.3664399 C19.29453,17.3661485 19.2945997,17.3653827 19.2989131,17.3579117 Z M22.021595,16.6420883 L21.0309639,18.3579117 C20.4767937,19.3177626 19.2564651,19.6536237 18.2951323,19.0985979 L15.6961524,17.5980762 L18.6961524,12.4019238 L21.2951323,13.9024455 C22.2546402,14.4564176 22.5787656,15.6770405 22.021595,16.6420883 Z M11.0093689,21 L12.9906311,21 C13.0024109,21 13,21.0024001 13,21.0010434 L13,20 L11,20 L11,21.0008289 C11.0000441,21.0003226 11.0007421,21 11.0093689,21 Z M15,21.0010434 C15,22.1089877 14.1049723,23 12.9906311,23 L11.0093689,23 C9.9010286,23 9,22.111095 9,21.0010434 L9,18 L15,18 L15,21.0010434 Z M3.71045581,15.6420883 L4.70108692,17.3579117 C4.70697681,17.3681133 4.70369284,17.3672254 4.70486772,17.3665471 L5.57179677,16.8660254 L4.57179677,15.1339746 L3.70505349,15.6343891 C3.70551406,15.6341741 3.70614242,15.6346173 3.71045581,15.6420883 Z M2.96903611,18.3579117 L1.97840501,16.6420883 C1.42423486,15.6822374 1.74353491,14.4574713 2.70486772,13.9024455 L5.30384758,12.4019238 L8.30384758,17.5980762 L5.70486772,19.0985979 C4.74535985,19.6525701 3.5262067,19.3229595 2.96903611,18.3579117 Z M4.70108692,6.6420883 L3.71045581,8.3579117 C3.70456592,8.3681133 3.70369284,8.36482536 3.70486772,8.36550368 L4.57179677,8.8660254 L5.57179677,7.1339746 L4.70505349,6.63356013 C4.70546997,6.63385149 4.70540031,6.63461728 4.70108692,6.6420883 Z M1.97840501,7.3579117 L2.96903611,5.6420883 C3.52320626,4.68223744 4.74353491,4.34637631 5.70486772,4.90140207 L8.30384758,6.40192379 L5.30384758,11.5980762 L2.70486772,10.0975545 C1.74535985,9.54358236 1.42123442,8.32295947 1.97840501,7.3579117 Z" id="Oval-6"></path>
        </g>
    </g>
</svg>