<?xml version="1.0" encoding="UTF-8"?>
<svg width="24px" height="24px" viewBox="0 0 24 24" version="1.1" xmlns="http://www.w3.org/2000/svg" xmlns:xlink="http://www.w3.org/1999/xlink">
    <!-- Generator: Sketch 43.1 (39012) - http://www.bohemiancoding.com/sketch -->
    <title>/svg/ic-camera</title>
    <desc>Created with Sketch.</desc>
    <defs></defs>
    <g id="Page-1" stroke="none" stroke-width="1" fill="none" fill-rule="evenodd">
        <g id="ic-camera" fill-rule="nonzero" fill="#4A4A4A">
            <path d="M2.83333333,7.67275153 L2.83333333,7.67275153 L2.83333333,18.3272485 C2.83333333,18.8222678 3.24037493,19.2222222 3.74248618,19.2222222 L20.2575138,19.2222222 C20.7493032,19.2222222 21.1666667,18.8215288 21.1666667,18.3272485 L21.1666667,7.67275153 C21.1666667,7.17773223 20.7596251,6.77777778 20.2575138,6.77777778 L3.74248618,6.77777778 C3.25069678,6.77777778 2.83333333,7.17847118 2.83333333,7.67275153 L2.83333333,7.67275153 Z M9.46481624,5 L10.6108382,3.28096706 C11.1020912,2.5440876 12.1132165,2 12.990778,2 L17.009222,2 C17.8941993,2 18.8937359,2.53782819 19.3891618,3.28096706 L20.544813,5.01444383 C21.9293509,5.15450585 23,6.29573929 23,7.67275153 L23,18.3272485 C23,19.7970162 21.7683738,21 20.2575138,21 L3.74248618,21 C2.22160271,21 1,19.7981352 1,18.3272485 L1,7.67275153 C1,6.20298378 2.23162618,5 3.74248618,5 L9.46481624,5 Z M11.8685171,5 L18.1314829,5 L17.7250612,4.39036745 C17.5996355,4.2022289 17.2237995,4 17.009222,4 L12.990778,4 C12.7836301,4 12.3961991,4.20847702 12.2749388,4.39036745 L11.8685171,5 Z M12,18 C9.23857625,18 7,15.7614237 7,13 C7,10.2385763 9.23857625,8 12,8 C14.7614237,8 17,10.2385763 17,13 C17,15.7614237 14.7614237,18 12,18 Z M12,16 C13.6568542,16 15,14.6568542 15,13 C15,11.3431458 13.6568542,10 12,10 C10.3431458,10 9,11.3431458 9,13 C9,14.6568542 10.3431458,16 12,16 Z M11.1645898,11.2666796 C10.4501558,11.6238966 10,12.2991303 10,13.25 C10,13.6642136 10.3357864,14 10.75,14 C11.1642136,14 11.5,13.6642136 11.5,13.25 C11.5,12.8883697 11.6123442,12.7198534 11.8354102,12.6083204 C11.9938063,12.5291224 12.1685404,12.5 12.25,12.5 C12.6642136,12.5 13,12.1642136 13,11.75 C13,11.3357864 12.6642136,11 12.25,11 C11.9564596,11 11.5686937,11.0646276 11.1645898,11.2666796 Z" id="Rectangle-113"></path>
        </g>
    </g>
</svg>