<?xml version="1.0" encoding="UTF-8"?>
<svg width="24px" height="24px" viewBox="0 0 24 24" version="1.1" xmlns="http://www.w3.org/2000/svg" xmlns:xlink="http://www.w3.org/1999/xlink">
    <!-- Generator: Sketch 43.1 (39012) - http://www.bohemiancoding.com/sketch -->
    <title>/svg/ic-camera-2</title>
    <desc>Created with Sketch.</desc>
    <defs></defs>
    <g id="Page-1" stroke="none" stroke-width="1" fill="none" fill-rule="evenodd">
        <g id="ic-camera-2" fill-rule="nonzero" fill="#4A4A4A">
            <path d="M4,7.49547865 L4,17.4905321 C4,18.0372444 4.4463856,18.4930054 4.99703014,18.4930054 L11.0029699,18.4930054 C11.5469637,18.4930054 12,18.0410955 12,17.4836365 L12,15.5023743 C12,14.9363585 12.4489176,14.4930054 13.0026855,14.4930054 L15,14.4930054 C17,14.4930054 19.4552372,18.6448239 19.4552372,18.6448239 C19.7650344,19.1171931 20,19.0422257 20,18.4861603 L20,6.49985086 C20,5.94295413 19.759492,5.86919587 19.4628104,6.33325038 C19.4628104,6.33325038 17,10.5130645 15,10.5130645 L13.0026855,10.5130645 C12.4396362,10.5130645 12,10.0681597 12,9.51934175 L12,7.48672808 C12,6.93858185 11.5536144,6.49300535 11.0029699,6.49300535 L4.99703014,6.49300535 C4.45303631,6.49300535 4,6.94182794 4,7.49547865 Z M14,17.4836365 C14,19.1399165 12.6572933,20.4930054 11.0029699,20.4930054 L4.99703014,20.4930054 C3.33958947,20.4930054 2,19.1396633 2,17.4905321 L2,7.49547865 C2,5.83993661 3.34579023,4.49300535 4.99703014,4.49300535 L11.0029699,4.49300535 C12.6566746,4.49300535 14,5.83249968 14,7.48672808 L14,8.51306446 L13.7550787,8.51306446 C13.9793923,8.51306446 14.285356,8.51306446 15,8.51306446 C15.3888363,8.27557819 15.8987099,7.80213447 16.4412781,7.14722309 C16.7724666,6.74745926 17.0921586,6.31117592 17.3844101,5.87430384 C17.5583574,5.61427885 17.6810185,5.41751519 17.7777513,5.25595013 C18.3664797,4.33509075 19.1533483,3.72730915 20.4332274,4.12287441 C21.6816425,4.50871525 22,5.42195163 22,6.49985086 L22,18.4861603 C22,19.5744851 21.6849178,20.4873459 20.4178401,20.867002 C19.1477265,21.2475677 18.3824338,20.6559193 17.7337274,19.6628632 C17.6754362,19.5642925 17.553335,19.3691719 17.3800845,19.1112244 C17.0889514,18.6777651 16.7704031,18.2448839 16.4403366,17.8482754 C15.8971252,17.1955518 15.3867969,16.7249288 15.0255599,16.5338374 C14.565095,16.4930054 14.2432601,16.4930054 14,16.4930054 L14,17.4836365 Z" id="Rectangle-155"></path>
        </g>
    </g>
</svg>