<?xml version="1.0" encoding="UTF-8"?>
<svg width="24px" height="24px" viewBox="0 0 24 24" version="1.1" xmlns="http://www.w3.org/2000/svg" xmlns:xlink="http://www.w3.org/1999/xlink">
    <!-- Generator: Sketch 43.1 (39012) - http://www.bohemiancoding.com/sketch -->
    <title>/svg/ic-clock</title>
    <desc>Created with Sketch.</desc>
    <defs></defs>
    <g id="Page-1" stroke="none" stroke-width="1" fill="none" fill-rule="evenodd">
        <g id="ic-clock" fill-rule="nonzero" fill="#4A4A4A">
            <path d="M12,19 C15.8659932,19 19,15.8659932 19,12 C19,8.13400675 15.8659932,5 12,5 C8.13400675,5 5,8.13400675 5,12 C5,15.8659932 8.13400675,19 12,19 L12,19 Z M5.93563394,18.6501525 C4.13178767,17.0042642 3,14.6343037 3,12 C3,7.02943725 7.02943725,3 12,3 C16.9705627,3 21,7.02943725 21,12 C21,14.6343037 19.8682123,17.0042642 18.0643661,18.6501525 L19.4075888,19.9933752 C19.8078223,20.3936087 19.8047379,21.0236893 19.4142136,21.4142136 C19.0209666,21.8074605 18.3875583,21.8017718 17.9933752,21.4075888 L16.4247778,19.8389914 C15.1181366,20.5781222 13.6083357,21 12,21 C10.3916643,21 8.88186344,20.5781222 7.5752222,19.8389914 L6.00662481,21.4075888 C5.60639126,21.8078223 4.97631073,21.8047379 4.58578644,21.4142136 C4.19253948,21.0209666 4.19822817,20.3875583 4.59241125,19.9933752 L5.93563394,18.6501525 Z M11,8.00292933 C11,7.44902676 11.4438648,7 12,7 L12,7 C12.5522847,7 13,7.43788135 13,8.00292933 L13,14 L11,14 L11,8.00292933 Z M8,13 C8,12.4477153 8.44266033,12 8.99895656,12 L11,12 L11,14 L8.99895656,14 C8.44724809,14 8,13.5561352 8,13 L8,13 Z" id="Combined-Shape"></path>
        </g>
    </g>
</svg>