<?xml version="1.0" encoding="UTF-8"?>
<svg width="24px" height="24px" viewBox="0 0 24 24" version="1.1" xmlns="http://www.w3.org/2000/svg" xmlns:xlink="http://www.w3.org/1999/xlink">
    <!-- Generator: Sketch 43.1 (39012) - http://www.bohemiancoding.com/sketch -->
    <title>/svg/ic-distribute-horizontally</title>
    <desc>Created with Sketch.</desc>
    <defs></defs>
    <g id="Page-1" stroke="none" stroke-width="1" fill="none" fill-rule="evenodd">
        <g id="ic-distribute-horizontally" fill-rule="nonzero" fill="#4A4A4A">
            <path d="M11,7.00247329 L11,16.9975267 C11,17.544239 11.4477153,18 12,18 C12.5561352,18 13,17.5511774 13,16.9975267 L13,7.00247329 C13,6.45576096 12.5522847,6 12,6 C11.4438648,6 11,6.44882258 11,7.00247329 Z M9,7.00247329 C9,5.34520818 10.3383203,4 12,4 C13.6577294,4 15,5.35202341 15,7.00247329 L15,16.9975267 C15,18.6547918 13.6616797,20 12,20 C10.3422706,20 9,18.6479766 9,16.9975267 L9,7.00247329 Z M19,2.00246167 C19,1.44881738 19.4438648,1 20,1 C20.5522847,1 21,1.43945834 21,2.00246167 L21,21.9975383 C21,22.5511826 20.5561352,23 20,23 C19.4477153,23 19,22.5605417 19,21.9975383 L19,2.00246167 Z M3,2.00246167 C3,1.44881738 3.44386482,1 4,1 C4.55228475,1 5,1.43945834 5,2.00246167 L5,21.9975383 C5,22.5511826 4.55613518,23 4,23 C3.44771525,23 3,22.5605417 3,21.9975383 L3,2.00246167 Z" id="Rectangle-122"></path>
        </g>
    </g>
</svg>