<?xml version="1.0" encoding="UTF-8"?>
<svg width="24px" height="24px" viewBox="0 0 24 24" version="1.1" xmlns="http://www.w3.org/2000/svg" xmlns:xlink="http://www.w3.org/1999/xlink">
    <!-- Generator: Sketch 43.1 (39012) - http://www.bohemiancoding.com/sketch -->
    <title>/svg/ic-drop</title>
    <desc>Created with Sketch.</desc>
    <defs></defs>
    <g id="Page-1" stroke="none" stroke-width="1" fill="none" fill-rule="evenodd">
        <g id="ic-drop" fill-rule="nonzero" fill="#4A4A4A">
            <path d="M12,6.17520814 C12,6.17520814 7,12.2541451 7,14.995119 C7,17.736093 9.23857625,19.9580914 12,19.9580914 C14.7614237,19.9580914 17,17.736093 17,14.995119 C17,12.2541451 12,6.17520814 12,6.17520814 Z M10.4683998,4.86210025 L12,3 L13.5316002,4.86210025 C13.5771565,4.91748701 13.6569919,5.01600867 13.7662775,5.15315604 C13.9452831,5.37779801 14.1439408,5.63188928 14.3574503,5.91097897 C14.9673143,6.70816461 15.5773268,7.55013189 16.1498093,8.40306481 C16.5629039,9.01852817 16.9417444,9.61832921 17.2792085,10.1970667 C18.3766677,12.0791657 19,13.6301602 19,14.995119 C19,18.8768817 15.8535808,22 12,22 C8.14641923,22 5,18.8768817 5,14.995119 C5,13.6301602 5.62333227,12.0791657 6.7207915,10.1970667 C7.05825558,9.61832921 7.43709608,9.01852817 7.85019068,8.40306481 C8.42267315,7.55013189 9.03268571,6.70816461 9.64254968,5.91097897 C9.85605923,5.63188928 10.0547169,5.37779801 10.2337225,5.15315604 C10.3430081,5.01600867 10.4228435,4.91748701 10.4683998,4.86210025 Z M12.75,18 C13.0435404,18 13.4313063,17.9353724 13.8354102,17.7333204 C14.5498442,17.3761034 15,16.7008697 15,15.75 C15,15.3357864 14.6642136,15 14.25,15 C13.8357864,15 13.5,15.3357864 13.5,15.75 C13.5,16.1116303 13.3876558,16.2801466 13.1645898,16.3916796 C13.0061937,16.4708776 12.8314596,16.5 12.75,16.5 C12.3357864,16.5 12,16.8357864 12,17.25 C12,17.6642136 12.3357864,18 12.75,18 L12.75,18 Z" id="Combined-Shape"></path>
        </g>
    </g>
</svg>