<?xml version="1.0" encoding="UTF-8"?>
<svg width="24px" height="24px" viewBox="0 0 24 24" version="1.1" xmlns="http://www.w3.org/2000/svg" xmlns:xlink="http://www.w3.org/1999/xlink">
    <!-- Generator: Sketch 43.1 (39012) - http://www.bohemiancoding.com/sketch -->
    <title>/svg/ic-dashboard</title>
    <desc>Created with Sketch.</desc>
    <defs></defs>
    <g id="Page-1" stroke="none" stroke-width="1" fill="none" fill-rule="evenodd">
        <g id="ic-dashboard" fill-rule="nonzero" fill="#4A4A4A">
            <path d="M12,23 C5.92486775,23 1,18.0751322 1,12 C1,5.92486775 5.92486775,1 12,1 C18.0751322,1 23,5.92486775 23,12 C23,18.0751322 18.0751322,23 12,23 Z M12,21 C16.9705627,21 21,16.9705627 21,12 C21,7.02943725 16.9705627,3 12,3 C7.02943725,3 3,7.02943725 3,12 C3,16.9705627 7.02943725,21 12,21 Z M11,2.99895656 C11,2.44724809 11.4438648,2 12,2 C12.5522847,2 13,2.44266033 13,2.99895656 L13,4.00104344 C13,4.55275191 12.5561352,5 12,5 C11.4477153,5 11,4.55733967 11,4.00104344 L11,2.99895656 Z M17.0197148,4.46201308 C17.3743461,4.03937987 18.0018518,3.98207877 18.4278761,4.33955557 C18.8509508,4.69455736 18.909384,5.32144067 18.5518036,5.7475883 L17.9076746,6.51523139 C17.5530432,6.9378646 16.9255375,6.9951657 16.4995133,6.6376889 C16.0764386,6.2826871 16.0180054,5.6558038 16.3755857,5.22965617 L17.0197148,4.46201308 Z M20.6906492,9.45217746 C21.233976,9.35637429 21.7515057,9.71583199 21.8480775,10.2635182 C21.9439808,10.8074125 21.5857904,11.3251931 21.0379455,11.421793 L20.0510826,11.5958035 C19.5077558,11.6916067 18.9902261,11.332149 18.8936543,10.7844628 C18.797751,10.2405685 19.1559414,9.72278784 19.7037863,9.62618802 L20.6906492,9.45217746 Z M20.2951323,15.6344963 C20.7729258,15.9103506 20.9383216,16.5183728 20.660254,17 C20.3841117,17.4782926 19.7768989,17.6446952 19.2951323,17.3665471 L18.4272996,16.8655037 C17.949506,16.5896494 17.7841102,15.9816272 18.0621778,15.5 C18.3383202,15.0217074 18.9455329,14.8553048 19.4272996,15.1334529 L20.2951323,15.6344963 Z M16.0182308,20.116194 C16.2069262,20.6346303 15.9427976,21.2067168 15.4202014,21.3969262 C14.9012235,21.5858187 14.3291101,21.3229817 14.1388455,20.8002342 L13.7961116,19.8585806 C13.6074162,19.3401442 13.8715449,18.7680578 14.394141,18.5778483 C14.9131189,18.3889558 15.4852324,18.6517928 15.6754969,19.1745403 L16.0182308,20.116194 Z M9.86115445,20.8002342 C9.67245904,21.3186706 9.10239469,21.5871356 8.57979857,21.3969262 C8.06082066,21.2080337 7.7915047,20.6389414 7.98176921,20.116194 L8.32450311,19.1745403 C8.51319852,18.6561039 9.08326287,18.3876389 9.605859,18.5778483 C10.1248369,18.7667409 10.3941529,19.3358331 10.2038884,19.8585806 L9.86115445,20.8002342 Z M4.70486772,17.3665471 C4.22707417,17.6424014 3.61781355,17.4816272 3.33974596,17 C3.06360359,16.5217074 3.22310105,15.9126444 3.70486772,15.6344963 L4.57270041,15.1334529 C5.05049397,14.8575986 5.65975458,15.0183728 5.93782217,15.5 C6.21396455,15.9782926 6.05446708,16.5873556 5.57270041,16.8655037 L4.70486772,17.3665471 Z M2.96205446,11.421793 C2.41872768,11.3259898 2.05535061,10.8112045 2.15192247,10.2635182 C2.24782571,9.71962392 2.76150597,9.35557763 3.30935081,9.45217746 L4.29621374,9.62618802 C4.83954052,9.72199119 5.20291759,10.2367765 5.10634573,10.7844628 C5.01044249,11.3283571 4.49676222,11.6924033 3.94891738,11.5958035 L2.96205446,11.421793 Z M5.44819636,5.7475883 C5.09356499,5.32495509 5.14609964,4.69703237 5.5721239,4.33955557 C5.99519857,3.98455377 6.62270492,4.03586545 6.98028525,4.46201308 L7.62441428,5.22965617 C7.97904565,5.65228938 7.92651099,6.2802121 7.50048673,6.6376889 C7.07741207,6.99269069 6.44990571,6.94137902 6.09232539,6.51523139 L5.44819636,5.7475883 Z M12.8863459,9.31471279 L14.7416553,9 L14.7538948,10.8817724 C14.755254,11.2857814 14.7349274,11.8069995 14.6699305,12.3414478 C14.5662773,13.1937549 14.4006003,13.8049091 13.9735705,14.3138234 C12.9776654,15.5006969 11.2070662,15.619461 10.0218,14.6249046 C8.83653379,13.6303482 8.64603228,11.8660251 9.6419374,10.6791516 C10.0771117,10.1605311 10.6642251,9.88930571 11.5118652,9.63626841 C12.0308803,9.48133216 12.5314935,9.37490577 12.8863459,9.31471279 Z M13.1539287,10.8921789 C13.1539287,10.8921789 11.2859608,11.209039 10.8676085,11.7076118 C10.4492562,12.2061846 10.5310322,12.9635495 11.0502601,13.3992335 C11.5694881,13.8349175 12.3295471,13.783936 12.7478994,13.2853632 C13.1662517,12.7867904 13.1539287,10.8921789 13.1539287,10.8921789 Z" id="Oval-7"></path>
        </g>
    </g>
</svg>