<?xml version="1.0" encoding="UTF-8"?>
<svg width="24px" height="24px" viewBox="0 0 24 24" version="1.1" xmlns="http://www.w3.org/2000/svg" xmlns:xlink="http://www.w3.org/1999/xlink">
    <!-- Generator: Sketch 43.1 (39012) - http://www.bohemiancoding.com/sketch -->
    <title>/svg/ic-file</title>
    <desc>Created with Sketch.</desc>
    <defs></defs>
    <g id="Page-1" stroke="none" stroke-width="1" fill="none" fill-rule="evenodd">
        <g id="ic-file" fill-rule="nonzero" fill="#4A4A4A">
            <path d="M7,18.9991283 C7,19.5553691 7.44565467,20 7.99539757,20 L16.0046024,20 C16.5443356,20 17,19.5520947 17,18.9995756 L17,7.97539999 C17,7.42332641 16.6862911,6.65932394 16.2993117,6.2699479 L14.7440233,4.70502769 C14.3597499,4.3183745 13.5915284,4 13.0341968,4 L8.00913817,4 C7.44059215,4 7,4.4481055 7,5.00087166 L7,18.9991283 Z M5,5.00087166 C5,3.33943216 6.34012837,2 8.00913817,2 L13.0341968,2 C14.1209055,2 15.4006434,2.52851542 16.1625957,3.29518642 L17.717884,4.86010663 C18.4778693,5.62479848 19,6.8958765 19,7.97539999 L19,18.9995756 C19,20.6540584 17.6515192,22 16.0046024,22 L7.99539757,22 C6.33850596,22 5,20.6573604 5,18.9991283 L5,5.00087166 Z M8,9 C8,8.44771525 8.45303631,8 8.99703014,8 L15.0029699,8 C15.5536144,8 16,8.44386482 16,9 L16,9 C16,9.55228475 15.5469637,10 15.0029699,10 L8.99703014,10 C8.4463856,10 8,9.55613518 8,9 L8,9 Z M8,12 C8,11.4477153 8.45097518,11 8.99077797,11 L13.009222,11 C13.5564136,11 14,11.4438648 14,12 L14,12 C14,12.5522847 13.5490248,13 13.009222,13 L8.99077797,13 C8.44358641,13 8,12.5561352 8,12 L8,12 Z M8,15 C8,14.4477153 8.44335318,14 9.0093689,14 L10.9906311,14 C11.5480902,14 12,14.4438648 12,15 L12,15 C12,15.5522847 11.5566468,16 10.9906311,16 L9.0093689,16 C8.45190985,16 8,15.5561352 8,15 L8,15 Z" id="Rectangle-156"></path>
        </g>
    </g>
</svg>