<?xml version="1.0" encoding="UTF-8"?>
<svg width="24px" height="24px" viewBox="0 0 24 24" version="1.1" xmlns="http://www.w3.org/2000/svg" xmlns:xlink="http://www.w3.org/1999/xlink">
    <!-- Generator: Sketch 43.1 (39012) - http://www.bohemiancoding.com/sketch -->
    <title>/svg/ic-flag</title>
    <desc>Created with Sketch.</desc>
    <defs></defs>
    <g id="Page-1" stroke="none" stroke-width="1" fill="none" fill-rule="evenodd">
        <g id="ic-flag" fill-rule="nonzero" fill="#4A4A4A">
            <path d="M7,20.0040556 L7,12.5222602 C7,11.9832513 7.40169764,11.6988344 7.8972168,11.9116468 C7.8972168,11.9116468 9,12.4736842 10,12.4736842 C11,12.4736842 14,10.5789474 16,10.5789474 C18,10.5789474 19.0666414,11.1573257 19.0666414,11.1573257 C19.5922804,11.3525538 20,11.0827128 20,10.5355008 L20,4.93818343 C20,4.39876918 19.5821211,3.78216593 19.0666414,3.57837834 C19.0666414,3.57837834 18,3 16,3 C14,3 12,4.89473684 10,4.89473684 C8,4.89473684 5.95755696,4.22138662 5.95755696,4.22138662 C5.42907643,4.07513474 5,4.39084345 5,4.93789762 L5,20.0094708 C5,20.5438833 5.44771525,21 6,21 C6.55613518,21 7,20.5541005 7,20.0040556 Z M22,4.93818343 L22,10.5355008 C22,12.4976788 20.1833226,13.7055646 18.3702973,13.032187 L18.2376671,12.9829267 L18.1132925,12.9154855 C18.1075624,12.9123783 17.983133,12.8609723 17.7443039,12.7941326 C17.2709215,12.66165 16.6894305,12.5789474 16,12.5789474 C15.6736461,12.5789474 15.1481447,12.7018717 14.4567191,12.9514087 C14.1456751,13.0636652 13.8127133,13.1962816 13.401114,13.3695865 C13.2076346,13.4510516 12.3655918,13.8119611 12.5965406,13.7132573 C12.2651113,13.8549049 12.0318835,13.9519301 11.8080703,14.039668 C11.0727068,14.3279412 10.5617389,14.4736842 10,14.4736842 C9.85722079,14.4736842 9.71378578,14.4671471 9.5695803,14.4546152 C9.37903005,14.4380557 9.1891732,14.411506 9,14.3760948 L9,20.0040556 C9,21.6606255 7.65874826,23 6,23 C4.34784574,23 3,21.6531498 3,20.0094708 L3,4.93789762 C3,3.06031344 4.69669393,1.79728247 6.5837617,2.32194786 C6.7794591,2.38646514 7.16199608,2.49488501 7.66095833,2.6053148 C8.44272522,2.77833461 9.21555857,2.88484143 9.90466322,2.89409119 C9.95252951,2.89462861 9.95252951,2.89462861 10,2.89473684 C10.4260959,2.89473684 10.9227826,2.71828235 12.1438273,2.13989274 C13.9227826,1.29722972 14.7594292,1 16,1 C17.0605695,1 18.004069,1.13418928 18.8223375,1.36319309 C19.2905315,1.49422368 19.6553254,1.63702292 19.9140352,1.76533422 C21.1301125,2.3021514 22,3.61366577 22,4.93818343 Z" id="Rectangle-101"></path>
        </g>
    </g>
</svg>