<?xml version="1.0" encoding="UTF-8"?>
<svg width="24px" height="24px" viewBox="0 0 24 24" version="1.1" xmlns="http://www.w3.org/2000/svg" xmlns:xlink="http://www.w3.org/1999/xlink">
    <!-- Generator: Sketch 43.1 (39012) - http://www.bohemiancoding.com/sketch -->
    <title>/svg/ic-folder</title>
    <desc>Created with Sketch.</desc>
    <defs></defs>
    <g id="Page-1" stroke="none" stroke-width="1" fill="none" fill-rule="evenodd">
        <g id="ic-folder" fill-rule="nonzero" fill="#4A4A4A">
            <path d="M3,7.00247329 L3,16.9975267 C3,17.544239 3.44475929,18 3.99339768,18 L20.0066023,18 C20.5550537,18 21,17.553384 21,17.0024554 L21,9.99754465 C21,9.4463114 20.5538732,9 20.0035479,9 L14.7113703,9 L12.0491388,6 L4.00299111,6 C3.4487482,6 3,6.44882258 3,7.00247329 Z M20.0035479,7 C21.6589442,7 23,8.3422431 23,9.99754465 L23,17.0024554 C23,18.6560858 21.6614987,20 20.0066023,20 L3.99339768,20 C2.3362989,20 1,18.6450458 1,16.9975267 L1,7.00247329 C1,5.34401056 2.34442121,4 4.00299111,4 L12.9482643,4 L15.6104958,7 L20.0035479,7 Z" id="Rectangle-73"></path>
        </g>
    </g>
</svg>