<?xml version="1.0" encoding="UTF-8"?>
<svg width="24px" height="24px" viewBox="0 0 24 24" version="1.1" xmlns="http://www.w3.org/2000/svg" xmlns:xlink="http://www.w3.org/1999/xlink">
    <!-- Generator: Sketch 43.1 (39012) - http://www.bohemiancoding.com/sketch -->
    <title>/svg/ic-folders</title>
    <desc>Created with Sketch.</desc>
    <defs></defs>
    <g id="Page-1" stroke="none" stroke-width="1" fill="none" fill-rule="evenodd">
        <g id="ic-folders" fill-rule="nonzero" fill="#4A4A4A">
            <path d="M3,9.00247329 L3,18.9975267 C3,19.544239 3.44475929,20 3.99339768,20 L20.0066023,20 C20.5550537,20 21,19.553384 21,19.0024554 L21,11.9975446 C21,11.4463114 20.5538732,11 20.0035479,11 L14.7113703,11 L12.0491388,8 L4.00299111,8 C3.4487482,8 3,8.44882258 3,9.00247329 Z M20.0035479,9 C21.6589442,9 23,10.3422431 23,11.9975446 L23,19.0024554 C23,20.6560858 21.6614987,22 20.0066023,22 L3.99339768,22 C2.3362989,22 1,20.6450458 1,18.9975267 L1,9.00247329 C1,7.34401056 2.34442121,6 4.00299111,6 L12.9482643,6 L15.6104958,9 L20.0035479,9 Z M6.63636364,5.43950955 C6.63636364,5.43950955 6.63636364,5.55478769 6.63636364,6.11242676 C6.63636364,6.49377086 7.73663079,7.12386047 9,7 C10.1656025,6.88572456 12.6799892,6.88765325 13.1950467,7.57861449 C15,10 21.3636364,10.7362926 21.3636364,10 L21.3636364,7.87300503 C21.3636364,7.42512801 20.9986235,7.0625 20.5483574,7.0625 L16.2183939,7.0625 L14.0402045,4.625 L7.45699273,4.625 C7.00352126,4.625 6.63636364,4.98966835 6.63636364,5.43950955 Z M20.5483574,5.4375 C21.9027725,5.4375 23,6.52807252 23,7.87300503 L23,12 C23,12.456905 22,10 15,10 C12.9803957,9.24228213 14.1024897,8.45333243 12,7.87300503 C9.74158767,7.24963999 7.05667685,7.94762196 5.79382732,7.92514887 C4.97971519,7.9106613 5,7.2850984 5,7 L5,5.43950955 C5,4.09200858 6.09998099,3 7.45699273,3 L14.7758526,3 L16.954042,5.4375 L20.5483574,5.4375 Z" id="Rectangle-73"></path>
        </g>
    </g>
</svg>