<?xml version="1.0" encoding="UTF-8"?>
<svg width="24px" height="24px" viewBox="0 0 24 24" version="1.1" xmlns="http://www.w3.org/2000/svg" xmlns:xlink="http://www.w3.org/1999/xlink">
    <!-- Generator: Sketch 43.1 (39012) - http://www.bohemiancoding.com/sketch -->
    <title>/svg/ic-glass</title>
    <desc>Created with Sketch.</desc>
    <defs></defs>
    <g id="Page-1" stroke="none" stroke-width="1" fill="none" fill-rule="evenodd">
        <g id="ic-glass" fill-rule="nonzero" fill="#4A4A4A">
            <path d="M7,3 L7,3 L7,9.99781374 C7,12.7710151 9.23857625,15 12,15 L12,15 C14.7558048,15 17,12.7604449 17,9.99781374 L17,3 L7,3 Z M7,1 L7,1 L17,1 L19,1 L19,3 L19,9.99781374 C19,13.8632262 15.8621633,17 12,17 C8.13081036,17 5,13.8723925 5,9.99781374 L5,3 L5,1 L7,1 Z M7,7 L7,5 L17,5 L17,7 L7,7 Z M11,16 L13,16 L13,23 L11,23 L11,16 Z M8,22 C8,21.4477153 8.45303631,21 8.99703014,21 L15.0029699,21 C15.5536144,21 16,21.4438648 16,22 L16,22 C16,22.5522847 15.5469637,23 15.0029699,23 L8.99703014,23 C8.4463856,23 8,22.5561352 8,22 L8,22 Z M12.75,14 C13.0435404,14 13.4313063,13.9353724 13.8354102,13.7333204 C14.5498442,13.3761034 15,12.7008697 15,11.75 C15,11.3357864 14.6642136,11 14.25,11 C13.8357864,11 13.5,11.3357864 13.5,11.75 C13.5,12.1116303 13.3876558,12.2801466 13.1645898,12.3916796 C13.0061937,12.4708776 12.8314596,12.5 12.75,12.5 C12.3357864,12.5 12,12.8357864 12,13.25 C12,13.6642136 12.3357864,14 12.75,14 L12.75,14 Z" id="Rectangle-169"></path>
        </g>
    </g>
</svg>