<?xml version="1.0" encoding="UTF-8"?>
<svg width="24px" height="24px" viewBox="0 0 24 24" version="1.1" xmlns="http://www.w3.org/2000/svg" xmlns:xlink="http://www.w3.org/1999/xlink">
    <!-- Generator: Sketch 43.1 (39012) - http://www.bohemiancoding.com/sketch -->
    <title>/svg/ic-gamepad</title>
    <desc>Created with Sketch.</desc>
    <defs></defs>
    <g id="Page-1" stroke="none" stroke-width="1" fill="none" fill-rule="evenodd">
        <g id="ic-gamepad" fill-rule="nonzero" fill="#4A4A4A">
            <path d="M3,15.0024554 C3,15.3492959 3.19275621,15.9633419 3.39124851,16.2486055 L4.33789413,17.6090791 C4.46543232,17.7923709 4.86359529,18 5.08979228,18 L6.58578644,18 L8.58578644,16 L15.4142136,16 L17.4142136,18 L19.0010434,18 C19.2205388,18 19.6014817,17.7950018 19.7250612,17.6096326 L20.6108382,16.2809671 C20.8117987,15.9795262 21,15.3584787 21,15.0024554 L21,8 L2.99180311,8 C3.00013207,7.99947845 3,15.0024554 3,15.0024554 Z M7.41421356,20 L5.08979228,20 C4.2095533,20 3.19796682,19.4724904 2.69621338,18.7513945 L1.74956776,17.3909209 C1.31788432,16.7705261 1,15.7578709 1,15.0024554 L1,7.99754465 C1,6.89775521 1.89958787,6 2.99180311,6 L21.0081969,6 C22.1095927,6 23,6.89537295 23,7.99754465 L23,15.0024554 C23,15.7534963 22.6948299,16.7605308 22.2749388,17.3903674 L21.3891618,18.7190329 C20.8956,19.4593756 19.8909715,20 19.0010434,20 L16.5857864,20 L14.5857864,18 L9.41421356,18 L7.41421356,20 Z M15,14 C15.5522847,14 16,13.5522847 16,13 C16,12.4477153 15.5522847,12 15,12 C14.4477153,12 14,12.4477153 14,13 C14,13.5522847 14.4477153,14 15,14 Z M8,11 L8,9.99077797 C8,9.45097518 7.55228475,9 7,9 C6.44386482,9 6,9.44358641 6,9.99077797 L6,11 L4.99077797,11 C4.45097518,11 4,11.4477153 4,12 C4,12.5561352 4.44358641,13 4.99077797,13 L6,13 L6,14.009222 C6,14.5490248 6.44771525,15 7,15 C7.55613518,15 8,14.5564136 8,14.009222 L8,13 L9.00922203,13 C9.54902482,13 10,12.5522847 10,12 C10,11.4438648 9.55641359,11 9.00922203,11 L8,11 Z M18,12 C17.4477153,12 17,11.5522847 17,11 C17,10.4477153 17.4477153,10 18,10 C18.5522847,10 19,10.4477153 19,11 C19,11.5522847 18.5522847,12 18,12 Z M11,2.99895656 C11,2.44724809 11.4438648,2 12,2 C12.5522847,2 13,2.44266033 13,2.99895656 L13,4.00104344 C13,4.55275191 12.5561352,5 12,5 C11.4477153,5 11,4.55733967 11,4.00104344 L11,2.99895656 Z" id="Rectangle-172"></path>
        </g>
    </g>
</svg>