<?xml version="1.0" encoding="UTF-8"?>
<svg width="24px" height="24px" viewBox="0 0 24 24" version="1.1" xmlns="http://www.w3.org/2000/svg" xmlns:xlink="http://www.w3.org/1999/xlink">
    <!-- Generator: Sketch 43.1 (39012) - http://www.bohemiancoding.com/sketch -->
    <title>/svg/ic-grid</title>
    <desc>Created with Sketch.</desc>
    <defs></defs>
    <g id="Page-1" stroke="none" stroke-width="1" fill="none" fill-rule="evenodd">
        <g id="ic-grid" fill-rule="nonzero" fill="#4A4A4A">
            <g id="Group" transform="translate(3.000000, 3.000000)">
                <path d="M2,2.99791312 L2,5.00208688 C2,5.55104571 2.44837074,6 2.99791312,6 L5.00208688,6 C5.55104571,6 6,5.55162926 6,5.00208688 L6,2.99791312 C6,2.44895429 5.55162926,2 5.00208688,2 L2.99791312,2 C2.44895429,2 2,2.44837074 2,2.99791312 Z M0,2.99791312 C0,1.3432185 1.34496669,0 2.99791312,0 L5.00208688,0 C6.6567815,0 8,1.34496669 8,2.99791312 L8,5.00208688 C8,6.6567815 6.65503331,8 5.00208688,8 L2.99791312,8 C1.3432185,8 0,6.65503331 0,5.00208688 L0,2.99791312 Z M10,2.99791312 C10,1.3432185 11.3449667,0 12.9979131,0 L15.0020869,0 C16.6567815,0 18,1.34496669 18,2.99791312 L18,5.00208688 C18,6.6567815 16.6550333,8 15.0020869,8 L12.9979131,8 C11.3432185,8 10,6.65503331 10,5.00208688 L10,2.99791312 Z M12,2.99791312 L12,5.00208688 C12,5.55104571 12.4483707,6 12.9979131,6 L15.0020869,6 C15.5510457,6 16,5.55162926 16,5.00208688 L16,2.99791312 C16,2.44895429 15.5516293,2 15.0020869,2 L12.9979131,2 C12.4489543,2 12,2.44837074 12,2.99791312 Z M0,12.9979131 C0,11.3432185 1.34496669,10 2.99791312,10 L5.00208688,10 C6.6567815,10 8,11.3449667 8,12.9979131 L8,15.0020869 C8,16.6567815 6.65503331,18 5.00208688,18 L2.99791312,18 C1.3432185,18 0,16.6550333 0,15.0020869 L0,12.9979131 Z M2,12.9979131 L2,15.0020869 C2,15.5510457 2.44837074,16 2.99791312,16 L5.00208688,16 C5.55104571,16 6,15.5516293 6,15.0020869 L6,12.9979131 C6,12.4489543 5.55162926,12 5.00208688,12 L2.99791312,12 C2.44895429,12 2,12.4483707 2,12.9979131 Z M10,12.9979131 C10,11.3432185 11.3449667,10 12.9979131,10 L15.0020869,10 C16.6567815,10 18,11.3449667 18,12.9979131 L18,15.0020869 C18,16.6567815 16.6550333,18 15.0020869,18 L12.9979131,18 C11.3432185,18 10,16.6550333 10,15.0020869 L10,12.9979131 Z M12,12.9979131 L12,15.0020869 C12,15.5510457 12.4483707,16 12.9979131,16 L15.0020869,16 C15.5510457,16 16,15.5516293 16,15.0020869 L16,12.9979131 C16,12.4489543 15.5516293,12 15.0020869,12 L12.9979131,12 C12.4489543,12 12,12.4483707 12,12.9979131 Z" id="Combined-Shape"></path>
            </g>
        </g>
    </g>
</svg>