<?xml version="1.0" encoding="UTF-8"?>
<svg width="24px" height="24px" viewBox="0 0 24 24" version="1.1" xmlns="http://www.w3.org/2000/svg" xmlns:xlink="http://www.w3.org/1999/xlink">
    <!-- Generator: Sketch 43.1 (39012) - http://www.bohemiancoding.com/sketch -->
    <title>/svg/ic-headphones</title>
    <desc>Created with Sketch.</desc>
    <defs></defs>
    <g id="Page-1" stroke="none" stroke-width="1" fill="none" fill-rule="evenodd">
        <g id="ic-headphones" fill-rule="nonzero" fill="#4A4A4A">
            <path d="M7,12.5004358 L7,19.4995642 C7,19.7692032 7.22385763,20 7.5,20 C7.76806641,20 8,19.7759472 8,19.4995642 L8,12.5004358 C8,12.2307968 7.77614237,12 7.5,12 C7.23193359,12 7,12.2240528 7,12.5004358 Z M5.02913019,12.1186373 C5.21417262,10.9176103 6.25784599,10 7.5,10 C8.88296989,10 10,11.128411 10,12.5004358 L10,19.4995642 C10,20.882359 8.87087382,22 7.5,22 C6.24776518,22 5.21356697,21.0748474 5.02922745,19.8813869 C3.28918969,19.4475921 2,17.8743492 2,16 C2,14.1256857 3.28914166,12.5524665 5.02913019,12.1186373 Z M5,17.7324356 L5,14.2675644 C4.40219863,14.6133738 4,15.2597176 4,16 C4,16.7402824 4.40219863,17.3866262 5,17.7324356 Z" id="Rectangle-112"></path>
            <path d="M19,12.5004358 L19,19.4995642 C19,19.7692032 19.2238576,20 19.5,20 C19.7680664,20 20,19.7759472 20,19.4995642 L20,12.5004358 C20,12.2307968 19.7761424,12 19.5,12 C19.2319336,12 19,12.2240528 19,12.5004358 Z M17.0291302,12.1186373 C17.2141726,10.9176103 18.257846,10 19.5,10 C20.8829699,10 22,11.128411 22,12.5004358 L22,19.4995642 C22,20.882359 20.8708738,22 19.5,22 C18.2477652,22 17.213567,21.0748474 17.0292274,19.8813869 C15.2891897,19.4475921 14,17.8743492 14,16 C14,14.1256857 15.2891417,12.5524665 17.0291302,12.1186373 Z M17,17.7324356 L17,14.2675644 C16.4021986,14.6133738 16,15.2597176 16,16 C16,16.7402824 16.4021986,17.3866262 17,17.7324356 Z" id="Rectangle-112-Copy" transform="translate(18.000000, 16.000000) scale(-1, 1) translate(-18.000000, -16.000000) "></path>
            <path d="M20.783972,13.1428571 L18.8044853,12.8571429 C19.7493334,6.31104305 17.4677667,4 12,4 C6.53223327,4 4.25066656,6.31104305 5.19551468,12.8571429 L3.21602805,13.1428571 C2.11953057,5.54609981 5.05473594,2 12,2 C18.9452641,2 21.8804694,5.54609981 20.783972,13.1428571 Z" id="Oval-46"></path>
        </g>
    </g>
</svg>