<?xml version="1.0" encoding="UTF-8"?>
<svg width="24px" height="24px" viewBox="0 0 24 24" version="1.1" xmlns="http://www.w3.org/2000/svg" xmlns:xlink="http://www.w3.org/1999/xlink">
    <!-- Generator: Sketch 43.1 (39012) - http://www.bohemiancoding.com/sketch -->
    <title>/svg/ic-hourglass</title>
    <desc>Created with Sketch.</desc>
    <defs></defs>
    <g id="Page-1" stroke="none" stroke-width="1" fill="none" fill-rule="evenodd">
        <g id="ic-hourglass" fill-rule="nonzero" fill="#4A4A4A">
            <path d="M19,18.9695154 C19,15.1035221 15.8659932,11.9695154 12,11.9695154 C8.21609607,11.9695154 5.13342312,14.9718421 5.00421609,18.7242605 C5.00141303,18.8056668 5,18.8874261 5,18.9695154 C5,19.2876816 5.02122686,19.60089 5.06234167,19.9078017 L7.04463358,19.6422479 C7.0149916,19.420978 7,19.1964688 7,18.9695154 C7,18.9105385 7.00101241,18.8517243 7.00303151,18.7930857 C7.09549973,16.1076324 9.30404349,13.9695154 12,13.9695154 C14.7614237,13.9695154 17,16.2080916 17,18.9695154 C17,19.2190196 16.9818812,19.465565 16.9461004,19.7080848 L18.9246821,20 C18.9742994,19.663697 19,19.3196075 19,18.9695154 Z M19,18.9695154 C19,15.1035221 15.8659932,11.9695154 12,11.9695154 C8.21609607,11.9695154 5.13342312,14.9718421 5.00421609,18.7242605 C5.00141303,18.8056668 5,18.8874261 5,18.9695154 C5,19.2876816 5.02122686,19.60089 5.06234167,19.9078017 L7.04463358,19.6422479 C7.0149916,19.420978 7,19.1964688 7,18.9695154 C7,18.9105385 7.00101241,18.8517243 7.00303151,18.7930857 C7.09549973,16.1076324 9.30404349,13.9695154 12,13.9695154 C14.7614237,13.9695154 17,16.2080916 17,18.9695154 C17,19.2190196 16.9818812,19.465565 16.9461004,19.7080848 L18.9246821,20 C18.9742994,19.663697 19,19.3196075 19,18.9695154 Z M19,6.03048462 C19,9.89647787 15.8659932,13.0304846 12,13.0304846 C8.21609607,13.0304846 5.13342312,10.0281579 5.00421609,6.27573949 C5.00141303,6.19433323 5,6.11257394 5,6.03048462 C5,5.71231841 5.02122686,5.39911001 5.06234167,5.09219832 L7.04463358,5.35775207 C7.0149916,5.579022 7,5.8035312 7,6.03048462 C7,6.08946146 7.00101241,6.14827567 7.00303151,6.20691428 C7.09549973,8.89236761 9.30404349,11.0304846 12,11.0304846 C14.7614237,11.0304846 17,8.79190837 17,6.03048462 C17,5.78098037 16.9818812,5.53443496 16.9461004,5.29191516 L18.9246821,5 C18.9742994,5.336303 19,5.68039247 19,6.03048462 Z M3,20 C3,19.4477153 3.44494629,19 3.99339768,19 L20.0066023,19 C20.5552407,19 21,19.4438648 21,20 L21,20 C21,20.5522847 20.5550537,21 20.0066023,21 L3.99339768,21 C3.44475929,21 3,20.5561352 3,20 L3,20 Z M3,5 C3,4.44771525 3.44494629,4 3.99339768,4 L20.0066023,4 C20.5552407,4 21,4.44386482 21,5 L21,5 C21,5.55228475 20.5550537,6 20.0066023,6 L3.99339768,6 C3.44475929,6 3,5.55613518 3,5 L3,5 Z" id="Oval-48-Copy"></path>
        </g>
    </g>
</svg>