<?xml version="1.0" encoding="UTF-8"?>
<svg width="24px" height="24px" viewBox="0 0 24 24" version="1.1" xmlns="http://www.w3.org/2000/svg" xmlns:xlink="http://www.w3.org/1999/xlink">
    <!-- Generator: Sketch 43.1 (39012) - http://www.bohemiancoding.com/sketch -->
    <title>/svg/ic-heart</title>
    <desc>Created with Sketch.</desc>
    <defs></defs>
    <g id="Page-1" stroke="none" stroke-width="1" fill="none" fill-rule="evenodd">
        <g id="ic-heart" fill-rule="nonzero" fill="#4A4A4A">
            <path d="M12.0163999,18.9998816 C12.0163999,18.9998816 18.3262022,15.4639573 19.6749773,11.5031358 C20.6322999,8.69185605 19.6744504,5 15.845689,5 C12.0169277,5 13.0169277,8.99988161 12.0163999,8.99988161 C11.0158721,8.99988161 12.0163999,5 8.20361966,5 C4.39083945,5 3.40050027,8.69185605 4.35782245,11.5031358 C5.70402938,15.4564174 12.0163999,18.9998816 12.0163999,18.9998816 Z M15.845689,3 C20.8718991,3 23.0811481,7.70495664 21.5682173,12.1478391 C20.8976278,14.1170966 19.3752993,15.9639105 17.2622045,17.7489413 C16.3296533,18.5367113 15.3388547,19.2609876 14.3484446,19.9098776 C13.7510258,20.3012902 13.2794591,20.584706 12.9941191,20.7446065 L12.0155569,21.292979 L11.0373982,20.7438872 C10.7522525,20.58382 10.280909,20.3001401 9.6837364,19.9084809 C8.69369804,19.2591584 7.70326722,18.534699 6.77106888,17.7471191 C4.65689902,15.960935 3.1344034,14.1148404 2.46458239,12.1478388 C0.954883122,7.7144443 3.19124545,3 8.20361966,3 C9.89353815,3 11.1519564,3.561033 12.0193555,4.53373587 C12.8897205,3.56077771 14.1517962,3 15.845689,3 Z M8.25,7 C7.95645956,7 7.56869374,7.06462764 7.1645898,7.26667961 C6.4501558,7.62389661 6,8.29913031 6,9.25 C6,9.66421356 6.33578644,10 6.75,10 C7.16421356,10 7.5,9.66421356 7.5,9.25 C7.5,8.88836969 7.6123442,8.71985339 7.8354102,8.60832039 C7.99380626,8.52912236 8.16854044,8.5 8.25,8.5 C8.66421356,8.5 9,8.16421356 9,7.75 C9,7.33578644 8.66421356,7 8.25,7 L8.25,7 Z" id="Oval-10"></path>
        </g>
    </g>
</svg>