<?xml version="1.0" encoding="UTF-8"?>
<svg width="24px" height="24px" viewBox="0 0 24 24" version="1.1" xmlns="http://www.w3.org/2000/svg" xmlns:xlink="http://www.w3.org/1999/xlink">
    <!-- Generator: Sketch 43.1 (39012) - http://www.bohemiancoding.com/sketch -->
    <title>/svg/ic-horizontal-menu</title>
    <desc>Created with Sketch.</desc>
    <defs></defs>
    <g id="Page-1" stroke="none" stroke-width="1" fill="none" fill-rule="evenodd">
        <g id="ic-horizontal-menu" fill-rule="nonzero" fill="#4A4A4A">
            <path d="M5,5.5 C5,5.76806641 5.22308192,6 5.49826741,6 L18.5017326,6 C18.7800934,6 19,5.77614237 19,5.5 C19,5.23193359 18.7769181,5 18.5017326,5 L5.49826741,5 C5.21990657,5 5,5.22385763 5,5.5 Z M3,5.5 C3,4.12169659 4.11288916,3 5.49826741,3 L18.5017326,3 C19.8853123,3 21,4.1310434 21,5.5 C21,6.87830341 19.8871108,8 18.5017326,8 L5.49826741,8 C4.11468773,8 3,6.8689566 3,5.5 Z" id="Rectangle-117"></path>
            <path d="M5,11.5 C5,11.7680664 5.22308192,12 5.49826741,12 L18.5017326,12 C18.7800934,12 19,11.7761424 19,11.5 C19,11.2319336 18.7769181,11 18.5017326,11 L5.49826741,11 C5.21990657,11 5,11.2238576 5,11.5 Z M3,11.5 C3,10.1216966 4.11288916,9 5.49826741,9 L18.5017326,9 C19.8853123,9 21,10.1310434 21,11.5 C21,12.8783034 19.8871108,14 18.5017326,14 L5.49826741,14 C4.11468773,14 3,12.8689566 3,11.5 Z" id="Rectangle-117-Copy"></path>
            <path d="M5,17.5 C5,17.7680664 5.22308192,18 5.49826741,18 L18.5017326,18 C18.7800934,18 19,17.7761424 19,17.5 C19,17.2319336 18.7769181,17 18.5017326,17 L5.49826741,17 C5.21990657,17 5,17.2238576 5,17.5 Z M3,17.5 C3,16.1216966 4.11288916,15 5.49826741,15 L18.5017326,15 C19.8853123,15 21,16.1310434 21,17.5 C21,18.8783034 19.8871108,20 18.5017326,20 L5.49826741,20 C4.11468773,20 3,18.8689566 3,17.5 Z" id="Rectangle-117-Copy-2"></path>
        </g>
    </g>
</svg>