<?xml version="1.0" encoding="UTF-8"?>
<svg width="24px" height="24px" viewBox="0 0 24 24" version="1.1" xmlns="http://www.w3.org/2000/svg" xmlns:xlink="http://www.w3.org/1999/xlink">
    <!-- Generator: Sketch 43.1 (39012) - http://www.bohemiancoding.com/sketch -->
    <title>/svg/ic-iphone</title>
    <desc>Created with Sketch.</desc>
    <defs></defs>
    <g id="Page-1" stroke="none" stroke-width="1" fill="none" fill-rule="evenodd">
        <g id="ic-iphone" fill-rule="nonzero" fill="#4A4A4A">
            <path d="M8,5.00087166 L8,18.9991283 C8,19.5553691 8.4463856,20 8.99703014,20 L15.0029699,20 C15.5469637,20 16,19.5518945 16,18.9991283 L16,5.00087166 C16,4.44463086 15.5536144,4 15.0029699,4 L8.99703014,4 C8.45303631,4 8,4.4481055 8,5.00087166 Z M6,5.00087166 C6,3.34549466 7.34650615,2 8.99703014,2 L15.0029699,2 C16.6600295,2 18,3.34190769 18,5.00087166 L18,18.9991283 C18,20.6545053 16.6534939,22 15.0029699,22 L8.99703014,22 C7.33997047,22 6,20.6580923 6,18.9991283 L6,5.00087166 Z M12,18 C12.5522847,18 13,17.5522847 13,17 C13,16.4477153 12.5522847,16 12,16 C11.4477153,16 11,16.4477153 11,17 C11,17.5522847 11.4477153,18 12,18 Z M10,5.5 C10,5.22385763 10.2150574,5 10.4904785,5 L13.5095215,5 C13.7804053,5 14,5.23193359 14,5.5 L14,5.5 C14,5.77614237 13.7849426,6 13.5095215,6 L10.4904785,6 C10.2195947,6 10,5.76806641 10,5.5 L10,5.5 Z" id="Combined-Shape"></path>
        </g>
    </g>
</svg>