<?xml version="1.0" encoding="UTF-8"?>
<svg width="24px" height="24px" viewBox="0 0 24 24" version="1.1" xmlns="http://www.w3.org/2000/svg" xmlns:xlink="http://www.w3.org/1999/xlink">
    <!-- Generator: Sketch 43.1 (39012) - http://www.bohemiancoding.com/sketch -->
    <title>/svg/ic-list</title>
    <desc>Created with Sketch.</desc>
    <defs></defs>
    <g id="Page-1" stroke="none" stroke-width="1" fill="none" fill-rule="evenodd">
        <g id="ic-list">
            <g transform="translate(3.000000, 4.000000)">
                <circle id="Oval-50" stroke="#4A4A4A" stroke-width="2" cx="2.5" cy="2.5" r="1.5"></circle>
                <circle id="Oval-50-Copy" stroke="#4A4A4A" stroke-width="2" cx="2.5" cy="8.5" r="1.5"></circle>
                <circle id="Oval-50-Copy-2" stroke="#4A4A4A" stroke-width="2" cx="2.5" cy="14.5" r="1.5"></circle>
                <path d="M9,2.5 L9,2.5 L9,2.5 C9,2.76806641 9.22539004,3 9.50342274,3 L15.4965773,3 C15.7670975,3 16,2.77614237 16,2.5 L16,2.5 C16,2.23193359 15.77461,2 15.4965773,2 L9.50342274,2 C9.23290253,2 9,2.22385763 9,2.5 L9,2.5 Z M7,2.5 L7,2.5 C7,1.11412167 8.13331117,0 9.50342274,0 L15.4965773,0 C16.8783197,0 18,1.1264834 18,2.5 C18,3.88587833 16.8666888,5 15.4965773,5 L9.50342274,5 C8.1216803,5 7,3.8735166 7,2.5 L7,2.5 Z" id="Rectangle-117" fill="#4A4A4A" fill-rule="nonzero"></path>
                <path d="M9,8.5 L9,8.5 L9,8.5 C9,8.76806641 9.22539004,9 9.50342274,9 L15.4965773,9 C15.7670975,9 16,8.77614237 16,8.5 L16,8.5 C16,8.23193359 15.77461,8 15.4965773,8 L9.50342274,8 C9.23290253,8 9,8.22385763 9,8.5 L9,8.5 Z M7,8.5 L7,8.5 C7,7.11412167 8.13331117,6 9.50342274,6 L15.4965773,6 C16.8783197,6 18,7.1264834 18,8.5 C18,9.88587833 16.8666888,11 15.4965773,11 L9.50342274,11 C8.1216803,11 7,9.8735166 7,8.5 L7,8.5 Z" id="Rectangle-117-Copy" fill="#4A4A4A" fill-rule="nonzero"></path>
                <path d="M9,14.5 L9,14.5 L9,14.5 C9,14.7680664 9.22539004,15 9.50342274,15 L15.4965773,15 C15.7670975,15 16,14.7761424 16,14.5 L16,14.5 C16,14.2319336 15.77461,14 15.4965773,14 L9.50342274,14 C9.23290253,14 9,14.2238576 9,14.5 L9,14.5 Z M7,14.5 L7,14.5 C7,13.1141217 8.13331117,12 9.50342274,12 L15.4965773,12 C16.8783197,12 18,13.1264834 18,14.5 C18,15.8858783 16.8666888,17 15.4965773,17 L9.50342274,17 C8.1216803,17 7,15.8735166 7,14.5 L7,14.5 Z" id="Rectangle-117-Copy-2" fill="#4A4A4A" fill-rule="nonzero"></path>
            </g>
        </g>
    </g>
</svg>