<?xml version="1.0" encoding="UTF-8"?>
<svg width="24px" height="24px" viewBox="0 0 24 24" version="1.1" xmlns="http://www.w3.org/2000/svg" xmlns:xlink="http://www.w3.org/1999/xlink">
    <!-- Generator: Sketch 43.1 (39012) - http://www.bohemiancoding.com/sketch -->
    <title>/svg/ic-locker-closed</title>
    <desc>Created with Sketch.</desc>
    <defs></defs>
    <g id="Page-1" stroke="none" stroke-width="1" fill="none" fill-rule="evenodd">
        <g id="ic-locker-closed" fill-rule="nonzero" fill="#4A4A4A">
            <path d="M4.8,10.9953976 L4.8,10.9953976 L4.8,19.0046024 C4.8,19.5443356 5.20329495,20 5.70078449,20 L18.2992155,20 C18.7998322,20 19.2,19.5543453 19.2,19.0046024 L19.2,10.9953976 C19.2,10.4556644 18.796705,10 18.2992155,10 L5.70078449,10 C5.20016778,10 4.8,10.4456547 4.8,10.9953976 L4.8,10.9953976 Z M3,10.9953976 C3,9.33850596 4.2083756,8 5.70078449,8 L18.2992155,8 C19.7882905,8 21,9.34828102 21,10.9953976 L21,19.0046024 C21,20.661494 19.7916244,22 18.2992155,22 L5.70078449,22 C4.2117095,22 3,20.651719 3,19.0046024 L3,10.9953976 Z M18,8 L16,8 C16,5.790861 14.209139,4 12,4 C9.790861,4 8,5.790861 8,8 L6,8 C6,4.6862915 8.6862915,2 12,2 C15.3137085,2 18,4.6862915 18,8 Z M12,16 C12.5522847,16 13,15.5522847 13,15 C13,14.4477153 12.5522847,14 12,14 C11.4477153,14 11,14.4477153 11,15 C11,15.5522847 11.4477153,16 12,16 Z" id="Rectangle-86"></path>
        </g>
    </g>
</svg>