<?xml version="1.0" encoding="UTF-8"?>
<svg width="24px" height="24px" viewBox="0 0 24 24" version="1.1" xmlns="http://www.w3.org/2000/svg" xmlns:xlink="http://www.w3.org/1999/xlink">
    <!-- Generator: Sketch 43.1 (39012) - http://www.bohemiancoding.com/sketch -->
    <title>/svg/ic-leave</title>
    <desc>Created with Sketch.</desc>
    <defs></defs>
    <g id="Page-1" stroke="none" stroke-width="1" fill="none" fill-rule="evenodd">
        <g id="ic-leave" fill-rule="nonzero" fill="#4A4A4A">
            <path d="M12.5260077,13.6408061 L13.8189009,12.3479129 C14.2094252,11.9573886 14.8425902,11.9573886 15.2331145,12.3479129 C15.6236388,12.7384372 15.6236388,13.3716022 15.2331145,13.7621265 L12.5260077,16.4692333 L12.5260077,18.7000011 C14.9846195,18.2451412 16.8432958,16.1444471 16.8432958,13.6216947 C16.8432958,10.7666114 11.5260077,4.43460257 11.5260077,4.43460257 C11.5260077,4.43460257 6.20871966,10.7666114 6.20871966,13.6216947 C6.20871966,16.1444471 8.06739598,18.2451412 10.5260077,18.7000011 L10.5260077,11.053522 C10.5260077,10.5020644 10.9698725,10.0550197 11.5260077,10.0550197 C12.0782925,10.0550197 12.5260077,10.5025091 12.5260077,11.053522 L12.5260077,13.6408061 Z M12.5260077,20.9353298 L12.5260077,22.0565174 C12.5260077,22.607975 12.0821429,23.0550197 11.5260077,23.0550197 C10.973723,23.0550197 10.5260077,22.6075303 10.5260077,22.0565174 L10.5260077,20.9353298 C6.852338,20.456505 4,17.3762618 4,13.6216947 C4,12.1807022 4.66724137,10.5545272 5.84150189,8.58204893 C6.20133043,7.9776226 6.60514012,7.35141081 7.04538055,6.7089653 C7.6552388,5.81899548 8.30494601,4.94064504 8.95448915,4.10901882 C9.18189237,3.81786883 9.39349296,3.55277787 9.58418937,3.31837625 C9.70068596,3.17518011 9.78585715,3.07223094 9.83456994,3.01422207 L11.5260077,1 L13.2174455,3.01422207 C13.2661583,3.07223094 13.3513295,3.17518011 13.4678261,3.31837625 C13.6585225,3.55277787 13.8701231,3.81786883 14.0975263,4.10901882 C14.7470694,4.94064504 15.3967766,5.81899548 16.0066349,6.7089653 C16.4468753,7.35141081 16.850685,7.9776226 17.2105135,8.58204893 C18.3847741,10.5545272 19.0520154,12.1807022 19.0520154,13.6216947 C19.0520154,17.3762618 16.1996774,20.456505 12.5260077,20.9353298 Z" id="leave"></path>
        </g>
    </g>
</svg>