<?xml version="1.0" encoding="UTF-8"?>
<svg width="24px" height="24px" viewBox="0 0 24 24" version="1.1" xmlns="http://www.w3.org/2000/svg" xmlns:xlink="http://www.w3.org/1999/xlink">
    <!-- Generator: Sketch 43.1 (39012) - http://www.bohemiancoding.com/sketch -->
    <title>/svg/ic-love</title>
    <desc>Created with Sketch.</desc>
    <defs></defs>
    <g id="Page-1" stroke="none" stroke-width="1" fill="none" fill-rule="evenodd">
        <g id="ic-love" fill-rule="nonzero" fill="#4A4A4A">
            <path d="M12,21 C16.9705627,21 21,16.9705627 21,12 C21,7.02943725 16.9705627,3 12,3 C7.02943725,3 3,7.02943725 3,12 C3,16.9705627 7.02943725,21 12,21 Z M12,23 C5.92486775,23 1,18.0751322 1,12 C1,5.92486775 5.92486775,1 12,1 C18.0751322,1 23,5.92486775 23,12 C23,18.0751322 18.0751322,23 12,23 Z M14.2928932,15.2928932 C14.6834175,14.9023689 15.3165825,14.9023689 15.7071068,15.2928932 C16.0976311,15.6834175 16.0976311,16.3165825 15.7071068,16.7071068 C15.5100371,16.9041765 15.1746812,17.1556934 14.6972136,17.3944272 C13.9371488,17.7744596 13.0349871,18 12,18 C10.9650129,18 10.0628512,17.7744596 9.3027864,17.3944272 C8.82531879,17.1556934 8.48996291,16.9041765 8.29289322,16.7071068 C7.90236893,16.3165825 7.90236893,15.6834175 8.29289322,15.2928932 C8.68341751,14.9023689 9.31658249,14.9023689 9.70710678,15.2928932 C9.70586437,15.2916508 9.73284413,15.3152581 9.7875,15.35625 C9.89702274,15.4383921 10.0337053,15.5238187 10.1972136,15.6055728 C10.6871488,15.8505404 11.2849871,16 12,16 C12.7150129,16 13.3128512,15.8505404 13.8027864,15.6055728 C13.9662947,15.5238187 14.1029773,15.4383921 14.2125,15.35625 C14.2671559,15.3152581 14.2941356,15.2916508 14.2928932,15.2928932 Z M8.27716352,12.7720851 C8.27716352,12.7720851 6.03002527,12.3656662 5.19571215,11.303424 C4.60241075,10.5480365 4.48326375,9.31582089 5.6029017,8.90830601 C6.72253965,8.50079112 6.94017581,9.09874117 6.94017581,9.09874117 C6.94017581,9.09874117 6.73295954,8.50538836 7.84702551,8.09151174 C8.96109147,7.67763511 9.66259668,8.70627941 9.69365508,9.6663067 C9.73741338,11.0188924 8.27716352,12.7720851 8.27716352,12.7720851 Z M15.7225265,12.7719723 C15.7225265,12.7719723 14.2623598,11.0162047 14.3060349,9.66619387 C14.3370935,8.70616664 15.0378745,7.68564852 16.1575124,8.09316341 C17.2771504,8.5006783 17.0595145,9.09862844 17.0595145,9.09862844 C17.0595145,9.09862844 17.2821774,8.51089777 18.4016362,8.90995768 C19.521095,9.30901759 19.3972794,10.5479237 18.8039779,11.3033112 C17.9680733,12.3675793 15.7225265,12.7719723 15.7225265,12.7719723 Z" id="Oval-32"></path>
        </g>
    </g>
</svg>