<?xml version="1.0" encoding="UTF-8"?>
<svg width="24px" height="24px" viewBox="0 0 24 24" version="1.1" xmlns="http://www.w3.org/2000/svg" xmlns:xlink="http://www.w3.org/1999/xlink">
    <!-- Generator: Sketch 43.1 (39012) - http://www.bohemiancoding.com/sketch -->
    <title>/svg/ic-marker</title>
    <desc>Created with Sketch.</desc>
    <defs></defs>
    <g id="Page-1" stroke="none" stroke-width="1" fill="none" fill-rule="evenodd">
        <g id="ic-marker" fill-rule="nonzero" fill="#4A4A4A">
            <path d="M12,6.17520814 C12,6.17520814 7,12.2541451 7,14.995119 C7,17.736093 9.23857625,19.9580914 12,19.9580914 C14.7614237,19.9580914 17,17.736093 17,14.995119 C17,12.2541451 12,6.17520814 12,6.17520814 Z M10.4683998,4.86210025 L12,3 L13.5316002,4.86210025 C13.5771565,4.91748701 13.6569919,5.01600867 13.7662775,5.15315604 C13.9452831,5.37779801 14.1439408,5.63188928 14.3574503,5.91097897 C14.9673143,6.70816461 15.5773268,7.55013189 16.1498093,8.40306481 C16.5629039,9.01852817 16.9417444,9.61832921 17.2792085,10.1970667 C18.3766677,12.0791657 19,13.6301602 19,14.995119 C19,18.8768817 15.8535808,22 12,22 C8.14641923,22 5,18.8768817 5,14.995119 C5,13.6301602 5.62333227,12.0791657 6.7207915,10.1970667 C7.05825558,9.61832921 7.43709608,9.01852817 7.85019068,8.40306481 C8.42267315,7.55013189 9.03268571,6.70816461 9.64254968,5.91097897 C9.85605923,5.63188928 10.0547169,5.37779801 10.2337225,5.15315604 C10.3430081,5.01600867 10.4228435,4.91748701 10.4683998,4.86210025 Z M12,18 C10.3431458,18 9,16.6568542 9,15 C9,13.3431458 10.3431458,12 12,12 C13.6568542,12 15,13.3431458 15,15 C15,16.6568542 13.6568542,18 12,18 Z M12,16 C12.5522847,16 13,15.5522847 13,15 C13,14.4477153 12.5522847,14 12,14 C11.4477153,14 11,14.4477153 11,15 C11,15.5522847 11.4477153,16 12,16 Z" id="Combined-Shape" transform="translate(12.000000, 12.500000) scale(-1, -1) translate(-12.000000, -12.500000) "></path>
        </g>
    </g>
</svg>