<?xml version="1.0" encoding="UTF-8"?>
<svg width="24px" height="24px" viewBox="0 0 24 24" version="1.1" xmlns="http://www.w3.org/2000/svg" xmlns:xlink="http://www.w3.org/1999/xlink">
    <!-- Generator: Sketch 43.1 (39012) - http://www.bohemiancoding.com/sketch -->
    <title>/svg/ic-mic</title>
    <desc>Created with Sketch.</desc>
    <defs></defs>
    <g id="Page-1" stroke="none" stroke-width="1" fill="none" fill-rule="evenodd">
        <g id="ic-mic" fill-rule="nonzero" fill="#4A4A4A">
            <path d="M10,6.99791312 L10,6.99791312 L10,9.00208688 C10,10.1017394 10.8954305,11 12,11 L12,11 C13.1122704,11 14,10.1055038 14,9.00208688 L14,6.99791312 C14,5.89826062 13.1045695,5 12,5 L12,5 C10.8877296,5 10,5.89449617 10,6.99791312 L10,6.99791312 Z M8,6.99791312 C8,4.787987 9.78509421,3 12,3 C14.2079541,3 16,4.79250588 16,6.99791312 L16,9.00208688 C16,11.212013 14.2149058,13 12,13 C9.79204587,13 8,11.2074941 8,9.00208688 L8,6.99791312 Z M17,9.99397801 C17,9.44169326 17.4477153,8.99397801 18,8.99397801 C18.5522847,8.99397801 19,9.44169326 19,9.99397801 L19,11.0057911 C19,13.7618028 16.7579823,16 14.0041738,16 L9.99582624,16 C7.23534949,16 5,13.7587218 5,10.9920432 L5,9.9952755 C5,9.44299075 5.44771525,8.9952755 6,8.9952755 C6.55228475,8.9952755 7,9.44299075 7,9.9952755 L7,10.9920432 C7,12.6553365 8.3411066,14 9.99582624,14 L14.0041738,14 C15.6541757,14 17,12.656469 17,11.0057911 L17,9.99397801 Z M11,16 L13,16 L13,19 L11,19 L11,16 Z M7,20 C7,19.4477153 7.4556644,19 7.99539757,19 L16.0046024,19 C16.5543453,19 17,19.4438648 17,20 C17,20.5522847 16.5443356,21 16.0046024,21 L7.99539757,21 C7.44565467,21 7,20.5561352 7,20 Z" id="Combined-Shape"></path>
        </g>
    </g>
</svg>