<?xml version="1.0" encoding="UTF-8"?>
<svg width="24px" height="24px" viewBox="0 0 24 24" version="1.1" xmlns="http://www.w3.org/2000/svg" xmlns:xlink="http://www.w3.org/1999/xlink">
    <!-- Generator: Sketch 43.1 (39012) - http://www.bohemiancoding.com/sketch -->
    <title>/svg/ic-message-type</title>
    <desc>Created with Sketch.</desc>
    <defs></defs>
    <g id="Page-1" stroke="none" stroke-width="1" fill="none" fill-rule="evenodd">
        <g id="ic-message-type" fill-rule="nonzero" fill="#4A4A4A">
            <path d="M7.34969209,20.162577 L4,21 L4,18.1947432 C2.14834206,16.5995462 1,14.4357201 1,12 C1,6.9052034 6.02423829,3 12,3 C17.9757617,3 23,6.9052034 23,12 C23,17.0947966 17.9757617,21 12,21 C10.3485759,21 8.76982106,20.7017542 7.34969209,20.162577 Z M12,19 C16.9705627,19 21,15.8659932 21,12 C21,8.13400675 16.9705627,5 12,5 C7.02943725,5 3,8.13400675 3,12 C3,15.8659932 7.02943725,19 12,19 Z M12,13 C11.4477153,13 11,12.5522847 11,12 C11,11.4477153 11.4477153,11 12,11 C12.5522847,11 13,11.4477153 13,12 C13,12.5522847 12.5522847,13 12,13 Z M8,13 C7.44771525,13 7,12.5522847 7,12 C7,11.4477153 7.44771525,11 8,11 C8.55228475,11 9,11.4477153 9,12 C9,12.5522847 8.55228475,13 8,13 Z M16,13 C15.4477153,13 15,12.5522847 15,12 C15,11.4477153 15.4477153,11 16,11 C16.5522847,11 17,11.4477153 17,12 C17,12.5522847 16.5522847,13 16,13 Z" id="Oval-1"></path>
        </g>
    </g>
</svg>