<?xml version="1.0" encoding="UTF-8"?>
<svg width="24px" height="24px" viewBox="0 0 24 24" version="1.1" xmlns="http://www.w3.org/2000/svg" xmlns:xlink="http://www.w3.org/1999/xlink">
    <!-- Generator: Sketch 43.1 (39012) - http://www.bohemiancoding.com/sketch -->
    <title>/svg/ic-map</title>
    <desc>Created with Sketch.</desc>
    <defs></defs>
    <g id="Page-1" stroke="none" stroke-width="1" fill="none" fill-rule="evenodd">
        <g id="ic-map" fill-rule="nonzero" fill="#4A4A4A">
            <path d="M3,7.68058907 L3,7.68058907 L3,19.6668979 C3,20.2237946 3.37351732,20.4247318 3.83427429,20.1175605 L8.16572571,17.2299262 C8.62467313,16.9239613 9.37351732,16.9227549 9.83427429,17.2299262 L14.1657257,20.1175605 C14.6246731,20.4235255 15.3735173,20.4247318 15.8342743,20.1175605 L20.1657257,17.2299262 C20.6246731,16.9239613 21,16.2229633 21,15.6668979 L21,3.6805891 C21,3.12369239 20.6264827,2.92275518 20.1657257,3.22992649 L15.8342743,6.11756067 C15.3753269,6.42352561 14.6264827,6.42473197 14.1657257,6.11756067 L9.83427429,3.22992649 C9.37532687,2.92396155 8.62648268,2.92275519 8.16572571,3.2299265 L3.83427429,6.11756075 C3.37532687,6.4235257 3,7.12452367 3,7.68058907 L3,7.68058907 Z M1,7.68058907 L1,7.68058907 C1,6.45710303 1.70845981,5.13106955 2.72487391,4.45346016 L7.05632532,1.56582591 C8.18858489,0.810986201 9.81263077,0.811796645 10.9436747,1.56582588 L15.2751261,4.45346006 C15.0631324,4.31213094 14.936773,4.312194 14.7248739,4.45346006 L19.0563253,1.56582588 C20.8496269,0.370291514 23,1.53041109 23,3.6805891 L23,15.6668979 C23,16.8903839 22.2915402,18.2164174 21.2751261,18.8940268 L16.9436747,21.7816611 C15.8114151,22.5365008 14.1873692,22.5356904 13.0563253,21.7816611 L8.7248739,18.8940268 C8.93686761,19.035356 9.06322698,19.0352929 9.2751261,18.8940268 L4.94367468,21.7816611 C3.15037308,22.9771955 1,21.8170759 1,19.6668979 L1,7.68058907 Z M8,2.67374364 L10,2.67374364 L10,17.6737436 L8,17.6737436 L8,2.67374364 Z M14,5.67374364 L16,5.67374364 L16,20.6737436 L14,20.6737436 L14,5.67374364 Z" id="Rectangle-165"></path>
        </g>
    </g>
</svg>