<?xml version="1.0" encoding="UTF-8"?>
<svg width="24px" height="24px" viewBox="0 0 24 24" version="1.1" xmlns="http://www.w3.org/2000/svg" xmlns:xlink="http://www.w3.org/1999/xlink">
    <!-- Generator: Sketch 43.1 (39012) - http://www.bohemiancoding.com/sketch -->
    <title>/svg/ic-message</title>
    <desc>Created with Sketch.</desc>
    <defs></defs>
    <g id="Page-1" stroke="none" stroke-width="1" fill="none" fill-rule="evenodd">
        <g id="ic-message" fill-rule="nonzero" fill="#4A4A4A">
            <path d="M12,19 C16.9705627,19 21,15.8659932 21,12 C21,8.13400675 16.9705627,5 12,5 C7.02943725,5 3,8.13400675 3,12 C3,15.8659932 7.02943725,19 12,19 L12,19 Z M12,21 L12,21 C6.02423829,21 1,17.0947966 1,12 C1,6.9052034 6.02423829,3 12,3 C17.9757617,3 23,6.9052034 23,12 C23,17.0947966 17.9757617,21 12,21 L12,21 Z M6,9 C6,8.44771525 6.45576096,8 7.00247329,8 L16.9975267,8 C17.5511774,8 18,8.44386482 18,9 L18,9 C18,9.55228475 17.544239,10 16.9975267,10 L7.00247329,10 C6.44882258,10 6,9.55613518 6,9 L6,9 Z M6,12 C6,11.4477153 6.45303631,11 6.99703014,11 L13.0029699,11 C13.5536144,11 14,11.4438648 14,12 L14,12 C14,12.5522847 13.5469637,13 13.0029699,13 L6.99703014,13 C6.4463856,13 6,12.5561352 6,12 L6,12 Z M6,15 C6,14.4477153 6.44371665,14 6.99980749,14 L10.0001925,14 C10.5523709,14 11,14.4438648 11,15 C11,15.5522847 10.5562834,16 10.0001925,16 L6.99980749,16 C6.44762906,16 6,15.5561352 6,15 Z M4,17 L8,20 L4,21 L4,17 Z" id="Oval-1"></path>
        </g>
    </g>
</svg>