<?xml version="1.0" encoding="UTF-8"?>
<svg width="24px" height="24px" viewBox="0 0 24 24" version="1.1" xmlns="http://www.w3.org/2000/svg" xmlns:xlink="http://www.w3.org/1999/xlink">
    <!-- Generator: Sketch 43.1 (39012) - http://www.bohemiancoding.com/sketch -->
    <title>/svg/ic-magnifying-glass</title>
    <desc>Created with Sketch.</desc>
    <defs></defs>
    <g id="Page-1" stroke="none" stroke-width="1" fill="none" fill-rule="evenodd">
        <g id="ic-magnifying-glass" fill-rule="nonzero" fill="#4A4A4A">
            <path d="M14.8077886,16.2116625 L18.3188572,19.7227139 C18.7088354,20.1126902 19.3312517,20.1115463 19.7214187,19.7213812 C20.1123626,19.3304392 20.1118293,18.7079023 19.7227515,18.3188264 L16.2116829,14.807775 L14.8077886,16.2116625 Z M13.1460205,17.3576774 C12.1803723,17.7711099 11.1169162,18 10,18 C5.581722,18 2,14.418278 2,10 C2,5.581722 5.581722,2 10,2 C14.418278,2 18,5.581722 18,10 C18,11.1169077 17.7711134,12.1803561 17.3576869,13.1459984 L21.1266458,16.9149389 C22.290535,18.0788225 22.2921453,19.9584421 21.1253131,21.1252687 C19.9609493,22.2896267 18.0814479,22.2930808 16.9149629,21.1266014 L13.1460205,17.3576774 Z M10,16 C13.3137085,16 16,13.3137085 16,10 C16,6.6862915 13.3137085,4 10,4 C6.6862915,4 4,6.6862915 4,10 C4,13.3137085 6.6862915,16 10,16 Z" id="Combined-Shape"></path>
        </g>
    </g>
</svg>