<?xml version="1.0" encoding="UTF-8"?>
<svg width="24px" height="24px" viewBox="0 0 24 24" version="1.1" xmlns="http://www.w3.org/2000/svg" xmlns:xlink="http://www.w3.org/1999/xlink">
    <!-- Generator: Sketch 43.1 (39012) - http://www.bohemiancoding.com/sketch -->
    <title>/svg/ic-next</title>
    <desc>Created with Sketch.</desc>
    <defs></defs>
    <g id="Page-1" stroke="none" stroke-width="1" fill="none" fill-rule="evenodd">
        <g id="ic-next" fill-rule="nonzero" fill="#4A4A4A">
            <path d="M8,6.54377563 L8,18.4615692 C8,19.0152826 8.26117429,19.0992431 8.58334909,18.6509463 L12.4166509,13.3170195 C12.7382181,12.8695681 12.7388257,12.1416148 12.4166509,11.6929786 L8.58334909,6.35501315 C8.26178189,5.90722304 8,5.99088878 8,6.54377563 Z M6,6.54377563 C6,4.04876556 8.75233145,3.1615507 10.2078644,5.18841557 L14.0411662,10.526381 C14.8639686,11.6721532 14.8635379,13.3393113 14.0407478,14.4841996 L10.2074459,19.8181264 C8.75018864,21.8458571 6,20.9557341 6,18.4615692 L6,6.54377563 Z M16,4.9999602 C16,4.44769743 16.4438648,4 17,4 C17.5522847,4 18,4.45470893 18,4.9999602 L18,20.0000398 C18,20.5523026 17.5561352,21 17,21 C16.4477153,21 16,20.5452911 16,20.0000398 L16,4.9999602 Z" id="Combined-Shape"></path>
        </g>
    </g>
</svg>