<?xml version="1.0" encoding="UTF-8"?>
<svg width="24px" height="24px" viewBox="0 0 24 24" version="1.1" xmlns="http://www.w3.org/2000/svg" xmlns:xlink="http://www.w3.org/1999/xlink">
    <!-- Generator: Sketch 43.1 (39012) - http://www.bohemiancoding.com/sketch -->
    <title>/svg/ic-notifications</title>
    <desc>Created with Sketch.</desc>
    <defs></defs>
    <g id="Page-1" stroke="none" stroke-width="1" fill="none" fill-rule="evenodd">
        <g id="ic-notifications" fill="#4A4A4A">
            <path d="M17.9559465,17 L16.8572173,9.21455489 C16.5341878,6.92561193 14.3163933,5 12,5 C9.68662535,5 7.4656614,6.92648519 7.14273575,9.21456958 L6.04394973,17 L17.9559465,17 Z M5.16236174,8.93507221 C5.62497658,5.65722234 8.69303423,3 12,3 C15.3137085,3 18.3754003,5.66003534 18.8375934,8.93507221 L19.978875,17.0220385 C20.1330409,18.1144365 19.3700367,19 18.2657828,19 L5.73409618,19 C4.63381562,19 3.86648583,18.1169798 4.02101887,17.0220385 L5.16236174,8.93507221 Z M15,20 C15,21.6568542 13.6568542,23 12,23 C10.3431458,23 9,21.6568542 9,20 L10.5,20 C10.5,20.8284271 11.1715729,21.5 12,21.5 C12.8284271,21.5 13.5,20.8284271 13.5,20 L15,20 Z" id="Rectangle-3" fill-rule="nonzero"></path>
            <circle id="Oval-2" cx="12" cy="3" r="2"></circle>
        </g>
    </g>
</svg>