<?xml version="1.0" encoding="UTF-8"?>
<svg width="24px" height="24px" viewBox="0 0 24 24" version="1.1" xmlns="http://www.w3.org/2000/svg" xmlns:xlink="http://www.w3.org/1999/xlink">
    <!-- Generator: Sketch 43.1 (39012) - http://www.bohemiancoding.com/sketch -->
    <title>/svg/ic-poo</title>
    <desc>Created with Sketch.</desc>
    <defs></defs>
    <g id="Page-1" stroke="none" stroke-width="1" fill="none" fill-rule="evenodd">
        <g id="ic-poo" fill-rule="nonzero" fill="#4A4A4A">
            <path d="M17.3529412,19 C18.8148714,19 20,17.7874379 20,16.2916667 C20,14.7958955 18,13 14.8333333,14.9375 C14.7907939,14.7379194 18.6666667,13.3125 17,10.875 C15.3333333,8.43750003 13,11.75 14,9 C15.6666667,5.75 11.6666667,11.6875 9.16666667,6 C7.65346567,7.6249999 11.1402647,9.25000004 7.65346567,10.875 C4.16666667,12.5 6,14 8.33333333,14.9375 C5.67986766,14.9375 5,16.1972636 5,17.1944444 C5,18.1916252 5.88235294,19 7.65346562,19 L17.3529412,19 Z M16.9914803,8.27595399 C17.6406622,8.5859637 18.1971038,9.08237253 18.6509606,9.74613807 C19.3100138,10.7100034 19.5390404,11.6399858 19.4354023,12.5059577 C20.9640035,13.1303173 22,14.4939829 22,16.2916667 C22,18.8818933 19.9298142,21 17.3529412,21 L7.65346562,21 C4.99167684,21 3,19.5276098 3,17.1944444 C3,16.061654 3.41344705,15.0805045 4.17566967,14.3465693 C4.1066312,14.2307606 4.0441071,14.111178 3.98824442,13.9875365 C3.06250808,11.9385923 4.32579118,10.2193085 6.80862251,9.06220107 C6.97094519,8.98655164 7.09534116,8.92020588 7.18639644,8.86660019 C7.17040082,8.8198334 7.15149997,8.76558187 7.12922602,8.70260377 C6.87915984,7.9955582 6.78302741,7.64390487 6.7648133,7.08274638 C6.73568049,6.18519384 7.04709891,5.34139332 7.70300003,4.63703265 L9.77444788,2.41254129 L10.9975933,5.19519709 C11.3346076,5.96190471 11.6556257,6.37056654 11.916622,6.53130018 C12.0804084,6.63216749 12.2894411,6.61838988 12.7437041,6.42969714 C12.8415745,6.38904354 13.2033262,6.22546144 13.2700582,6.19711299 C13.4329664,6.1279079 13.572559,6.07651718 13.737472,6.03407449 C14.1800949,5.92015924 14.6118454,5.90214085 15.14043,6.12871951 C15.9749629,6.48644336 16.38122,7.24770461 16.3940697,8.01331691 C16.5898246,8.10246796 16.7879738,8.17877169 16.9914803,8.27595399 Z M14,4 C13.4477153,4 13,3.55228475 13,3 C13,2.44771525 13.4477153,2 14,2 C14.5522847,2 15,2.44771525 15,3 C15,3.55228475 14.5522847,4 14,4 Z M4,7 C3.44771525,7 3,6.55228475 3,6 C3,5.44771525 3.44771525,5 4,5 C4.55228475,5 5,5.44771525 5,6 C5,6.55228475 4.55228475,7 4,7 Z M20,8 C19.4477153,8 19,7.55228475 19,7 C19,6.44771525 19.4477153,6 20,6 C20.5522847,6 21,6.44771525 21,7 C21,7.55228475 20.5522847,8 20,8 Z" id="Combined-Shape"></path>
        </g>
    </g>
</svg>