<?xml version="1.0" encoding="UTF-8"?>
<svg width="24px" height="24px" viewBox="0 0 24 24" version="1.1" xmlns="http://www.w3.org/2000/svg" xmlns:xlink="http://www.w3.org/1999/xlink">
    <!-- Generator: Sketch 43.1 (39012) - http://www.bohemiancoding.com/sketch -->
    <title>/svg/ic-photo</title>
    <desc>Created with Sketch.</desc>
    <defs></defs>
    <g id="Page-1" stroke="none" stroke-width="1" fill="none" fill-rule="evenodd">
        <g id="ic-photo" fill-rule="nonzero" fill="#4A4A4A">
            <path d="M3,3 L3,21 L21,21 L21,3 L3,3 Z M1,1 L23,1 L23,23 L1,23 L1,1 Z M10,13.5620499 L14.2317787,18.6401844 C14.5853428,19.0644613 15.2159075,19.1217854 15.6401844,18.7682213 C16.0644613,18.4146572 16.1217854,17.7840925 15.7682213,17.3598156 L10,10.4379501 L4.23177872,17.3598156 C3.87821464,17.7840925 3.9355387,18.4146572 4.3598156,18.7682213 C4.7840925,19.1217854 5.4146572,19.0644613 5.76822128,18.6401844 L10,13.5620499 Z M14.6649337,14.1599704 C15.0003087,14.5624203 15.3774289,15.0149646 16.7113106,16.6156227 L18.4159888,18.6612365 C18.7695529,19.0855134 19.4001176,19.1428375 19.8243945,18.7892734 C20.2486714,18.4357093 20.3059955,17.8051446 19.9524314,17.3808677 L15.0671984,11.5185881 L12.2928932,14.2928932 C11.9023689,14.6834175 11.9023689,15.3165825 12.2928932,15.7071068 C12.6834175,16.0976311 13.3165825,16.0976311 13.7071068,15.7071068 L14.9328016,14.4814119 L14.6649337,14.1599704 Z M16,8 C16.5522847,8 17,7.55228475 17,7 C17,6.44771525 16.5522847,6 16,6 C15.4477153,6 15,6.44771525 15,7 C15,7.55228475 15.4477153,8 16,8 Z M16,10 C14.3431458,10 13,8.65685425 13,7 C13,5.34314575 14.3431458,4 16,4 C17.6568542,4 19,5.34314575 19,7 C19,8.65685425 17.6568542,10 16,10 Z" id="Combined-Shape"></path>
        </g>
    </g>
</svg>