<?xml version="1.0" encoding="UTF-8"?>
<svg width="24px" height="24px" viewBox="0 0 24 24" version="1.1" xmlns="http://www.w3.org/2000/svg" xmlns:xlink="http://www.w3.org/1999/xlink">
    <!-- Generator: Sketch 43.1 (39012) - http://www.bohemiancoding.com/sketch -->
    <title>/svg/ic-pause</title>
    <desc>Created with Sketch.</desc>
    <defs></defs>
    <g id="Page-1" stroke="none" stroke-width="1" fill="none" fill-rule="evenodd">
        <g id="ic-pause" fill="#4A4A4A">
            <path d="M8,6.00684547 C8,5.45078007 8.44386482,5 9,5 C9.55228475,5 10,5.44994876 10,6.00684547 L10,17.9931545 C10,18.5492199 9.55613518,19 9,19 C8.44771525,19 8,18.5500512 8,17.9931545 L8,6.00684547 Z M14,6.00684547 C14,5.45078007 14.4438648,5 15,5 C15.5522847,5 16,5.44994876 16,6.00684547 L16,17.9931545 C16,18.5492199 15.5561352,19 15,19 C14.4477153,19 14,18.5500512 14,17.9931545 L14,6.00684547 Z" id="Combined-Shape"></path>
        </g>
    </g>
</svg>