<?xml version="1.0" encoding="UTF-8"?>
<svg width="24px" height="24px" viewBox="0 0 24 24" version="1.1" xmlns="http://www.w3.org/2000/svg" xmlns:xlink="http://www.w3.org/1999/xlink">
    <!-- Generator: Sketch 43.1 (39012) - http://www.bohemiancoding.com/sketch -->
    <title>/svg/ic-phone</title>
    <desc>Created with Sketch.</desc>
    <defs></defs>
    <g id="Page-1" stroke="none" stroke-width="1" fill="none" fill-rule="evenodd">
        <g id="ic-phone" stroke="#4A4A4A" stroke-width="2">
            <path d="M12.131728,15.6331816 L12.131728,8.62927263 C12.131728,8.63313206 12.133149,8.63172798 12.1410969,8.63172798 L14.1223591,8.63172798 C15.2390233,8.63172798 16.131728,7.73376514 16.131728,6.62235909 L16.131728,4.64109688 C16.131728,3.52857832 15.2462109,2.63172798 14.14095,2.63172798 L11.1296411,2.63172798 C9.47644929,2.63172798 8.13172798,3.97617557 8.13172798,5.63183416 L8.13172798,18.6316218 C8.13172798,20.2922564 9.47223989,21.631728 11.1296411,21.631728 L14.14095,21.631728 C15.238623,21.631728 16.131728,20.7265277 16.131728,19.6223591 L16.131728,17.6410969 C16.131728,16.5244327 15.2337651,15.631728 14.1223591,15.631728 L12.1410969,15.631728 C12.1346388,15.631728 12.1324063,15.6325005 12.131728,15.6331819 L12.131728,15.6331816 Z" id="Combined-Shape" transform="translate(12.131728, 12.131728) rotate(-45.000000) translate(-12.131728, -12.131728) "></path>
        </g>
    </g>
</svg>