<?xml version="1.0" encoding="UTF-8"?>
<svg width="24px" height="24px" viewBox="0 0 24 24" version="1.1" xmlns="http://www.w3.org/2000/svg" xmlns:xlink="http://www.w3.org/1999/xlink">
    <!-- Generator: Sketch 43.1 (39012) - http://www.bohemiancoding.com/sketch -->
    <title>/svg/ic-repeat</title>
    <desc>Created with Sketch.</desc>
    <defs></defs>
    <g id="Page-1" stroke="none" stroke-width="1" fill="none" fill-rule="evenodd">
        <g id="ic-repeat" fill-rule="nonzero" fill="#4A4A4A">
            <path d="M17,4 C18.0222122,4 18,4.99734964 18,4.99734964 L18,9 L17,9 C16.4438648,9 16.2685774,9.35810325 16.5998845,9.79984599 L18.4001155,12.200154 C18.73377,12.6450267 19.2685774,12.6418968 19.5998845,12.200154 L21.4001155,9.79984599 C21.73377,9.35497332 21.552069,9 20.9995181,9 L20.022213,9 L20.0222122,7.93736372 L20.0222122,7.03609055 C20.0222122,7.03609055 20.022213,4.70381945 20.022213,3.80254628 C20.022213,2.90127311 19.0222122,2 18,2 L6.04442442,2 C5.02221221,2 4,2.90127317 4,3.80254633 L4,6 C4,6.50926258 4.43544779,7.03609037 5,7.03609037 C5.55607217,7.03609037 6.02519652,6.48413109 6.04442453,6 C6.04480326,5.99046438 6.04451372,5.14276288 6.04444021,4.94306816 L6.04442442,4.90127322 C6.04442442,4.90127322 5.97778779,4 7,4 L17,4 Z M8.04284899,6.0793705 C7.98123054,7.63082636 6.6418922,9.03609037 5,9.03609037 C3.31530158,9.03609037 2,7.60398761 2,6 L2,3.80254633 C2,1.73672753 3.9697736,0 6.04442442,0 L18,0 C20.0765267,0 22.022213,1.74070556 22.022213,3.80254628 L22.0222127,5.24450961 L22.0222126,5.75729641 L22.0222122,7.03609055 L22.0222122,7.18095869 C23.5101458,7.74723282 24.0987746,9.53496714 23.0001155,10.999846 L21.1998845,13.400154 C20.0688454,14.9082062 17.9340437,14.9120583 16.8001155,13.400154 L14.9998845,10.999846 C13.8991516,9.53220209 14.4920788,7.72904809 16,7.17203116 L16,6.79989598 L16.0002147,6 L8.04387645,6 C8.04361161,6.04148729 8.04327381,6.06867437 8.04284899,6.0793705 Z M10.8491298,17.9834665 L14.8586321,17.9834665 L16.0000442,17.9834665 C16.0091168,16.3830678 17.3340619,14.9999998 19,14.9999998 C20.6678431,14.9999998 22,16.3834678 22,17.9999998 L22,19.9834665 C22,22.1015401 20.1076446,23.9834665 18,23.9834665 L5.99999973,23.9834665 C3.89767041,23.9834665 1.97778675,22.0149773 1.97778675,19.9834665 L1.97778675,16.8190408 C0.489853868,16.2527663 -0.0987743987,14.4650324 0.999884474,13.0001539 L2.8001153,10.5998462 C3.93115438,9.09179413 6.06595588,9.08794202 7.19988416,10.5998461 L9.00011535,13.0001538 C10.1008486,14.4677978 9.50792106,16.2709519 7.99999973,16.8279687 L7.99999973,16.9999998 L7.9997196,17.9834665 C8.55519232,17.9834665 9.14082238,17.9834665 10.8491298,17.9834665 Z M6.99999973,19.9834665 C5.97778752,19.9834665 5.99999973,19.0821932 5.99999973,19.0821932 L5.99999973,14.9999998 L6.99999988,14.9999998 C7.55613514,14.9999998 7.73142256,14.6418966 7.40011547,14.200154 L5.59988428,11.7998462 C5.26622974,11.3549736 4.73142232,11.3581035 4.40011529,11.7998462 L2.59988446,14.200154 C2.26622999,14.6450266 2.44793095,14.9999998 3.00048174,14.9999998 L3.97778675,14.9999998 L3.97778675,19.9834665 C3.97778675,20.8847396 4.97778752,21.9834665 5.99999973,21.9834665 L18,21.9834665 C19,21.9834665 20,21 20,19.9834665 L20,17.9999998 C20,17.4907373 19.5645522,16.9999998 19,16.9999998 C18.4315118,16.9999998 18,17.5007823 18,17.9999998 L18,19.0821932 C18,19.0821932 18.0222122,19.9834665 17,19.9834665 L6.99999973,19.9834665 Z" id="Combined-Shape"></path>
        </g>
    </g>
</svg>