<?xml version="1.0" encoding="UTF-8"?>
<svg width="24px" height="24px" viewBox="0 0 24 24" version="1.1" xmlns="http://www.w3.org/2000/svg" xmlns:xlink="http://www.w3.org/1999/xlink">
    <!-- Generator: Sketch 43.1 (39012) - http://www.bohemiancoding.com/sketch -->
    <title>/svg/ic-rain</title>
    <desc>Created with Sketch.</desc>
    <defs></defs>
    <g id="Page-1" stroke="none" stroke-width="1" fill="none" fill-rule="evenodd">
        <g id="ic-rain" fill="#4A4A4A">
            <path d="M7.99478315,8.00071272 C7.99439817,8.55266988 7.54683056,9 6.9947834,9 C5.34021017,9 4,10.3422966 4,12 C4,13.6543769 5.34282584,15 6.9947834,15 L17.0052166,15 C17.0590011,15 17.1117939,15.0042461 17.1632781,15.0124214 C17.2721172,15.0042721 17.3844566,15 17.5,15 C18.8807119,15 20,13.8807119 20,12.5 C20,11.1192881 18.8807119,10 17.5,10 C16.1192881,10 15,11.1192881 15,12.5 C15,13.0522847 14.5522847,13.5 14,13.5 C13.4477153,13.5 13,13.0522847 13,12.5 C13,10.5406835 14.2521964,8.87383321 15.9999685,8.2560697 C15.9912915,5.89247472 14.1915862,4 12,4 C9.80310996,4 8,5.6284075 8,8 L7.99478319,8.00071272 Z M6.10884541,7.07834747 C6.6415726,4.19259507 9.06736468,2 12,2 C15.2465307,2 17.8719112,4.68708456 17.9954525,8.02696403 C20.2476168,8.27361687 22,10.1821629 22,12.5 C22,14.9852814 19.9852814,17 17.5,17 C17.3711982,17 17.2484906,16.9972914 17.1317277,16.9920737 C17.0902938,16.9973045 17.04807,17 17.0052166,17 L6.9947834,17 C4.2373236,17 2,14.7580158 2,12 C2,9.54097584 3.7720576,7.49675372 6.10884541,7.07834747 Z" id="Combined-Shape" fill-rule="nonzero"></path>
            <path d="M11.1094259,18.3248393 C11.5412932,17.892909 12.2388402,17.8902602 12.6741728,18.3256562 C13.1064912,18.7580376 13.1104481,19.455109 12.6749895,19.890631 L11.8905741,20.6751607 C11.4587068,21.107091 10.7611598,21.1097398 10.3258272,20.6743438 C9.89350878,20.2419624 9.88955188,19.544891 10.3250105,19.109369 L11.1094259,18.3248393 Z" id="Rectangle"></path>
            <path d="M6.10942587,18.3248393 C6.54129324,17.892909 7.23884024,17.8902602 7.67417275,18.3256562 C8.10649122,18.7580376 8.11044812,19.455109 7.67498954,19.890631 L6.89057413,20.6751607 C6.45870676,21.107091 5.76115976,21.1097398 5.32582725,20.6743438 C4.89350878,20.2419624 4.88955188,19.544891 5.32501046,19.109369 L6.10942587,18.3248393 Z" id="Rectangle-Copy"></path>
            <path d="M16.1094259,18.3248393 C16.5412932,17.892909 17.2388402,17.8902602 17.6741728,18.3256562 C18.1064912,18.7580376 18.1104481,19.455109 17.6749895,19.890631 L16.8905741,20.6751607 C16.4587068,21.107091 15.7611598,21.1097398 15.3258272,20.6743438 C14.8935088,20.2419624 14.8895519,19.544891 15.3250105,19.109369 L16.1094259,18.3248393 Z" id="Rectangle-Copy-2"></path>
        </g>
    </g>
</svg>