<?xml version="1.0" encoding="UTF-8"?>
<svg width="24px" height="24px" viewBox="0 0 24 24" version="1.1" xmlns="http://www.w3.org/2000/svg" xmlns:xlink="http://www.w3.org/1999/xlink">
    <!-- Generator: Sketch 43.1 (39012) - http://www.bohemiancoding.com/sketch -->
    <title>/svg/ic-shuffle</title>
    <desc>Created with Sketch.</desc>
    <defs></defs>
    <g id="Page-1" stroke="none" stroke-width="1" fill="none" fill-rule="evenodd">
        <g id="ic-shuffle" stroke="#4A4A4A" stroke-width="2">
            <path d="M2,17.9999998 C2,19.1082887 2.89479504,19.9999998 4.0093689,19.9999998 L5.9906311,19.9999998 C6.8646376,19.9999998 7.8774291,19.4961382 8.39914483,18.7962726 L10.5549209,15.9043651 L11.0034256,15.3027099 L10.5510882,14.7039309 L9.28791415,13.0318115 L8.48166843,11.9645484 L7.68611114,13.0398025 L5.78620656,15.607663 C5.64814673,15.794261 5.23905036,15.9999998 5.00104344,15.9999998 L3.99895656,15.9999998 C2.8939935,15.9999998 2,16.8925469 2,17.9999998 Z M17,7.99999982 L17,9.00104326 C17,10.4426117 18.3902669,11.0239464 19.4130188,10.0011945 L22.0011947,7.41301865 C22.7819993,6.6322141 22.7833444,5.36913063 22.0011947,4.58698098 L19.4130188,1.99880509 C18.393426,0.979212222 17,1.5514083 17,2.99895638 L17,3.99999982 L15.9989566,3.99999982 C15.1354804,3.99999982 14.1173241,4.51067434 13.6048397,5.19673291 L11.4612982,8.06627426 L11.0137506,8.66540254 L11.4619396,9.26405117 L12.6968029,10.9134652 L13.4938682,11.97811 L14.2953367,10.916776 L16.1921918,8.40489069 C16.3390468,8.2104199 16.7595316,7.99999982 17,7.99999982 Z M17.0007853,20 C17.0004763,20.0002262 17,20.0014156 17,20.0066442 L17,21.4736462 C17,22.9303154 18.4207045,23.510591 19.4064778,22.4064533 L22.0854405,19.4058206 C22.8003941,18.6050206 22.7640332,17.3498197 22.0011947,16.5869812 L19.4130188,13.9988053 C18.3902669,12.9760534 17,13.5573881 17,14.9989566 L17,16 C16.760894,16 16.3418715,15.789162 16.1955096,15.5940128 L8.40449038,5.20598718 C7.88075638,4.50767518 6.86328205,4 5.9906311,4 L4.0093689,4 C2.89479504,4 2,4.89171112 2,6 C2,7.1074529 2.8939935,8 3.99895656,8 L5.00104344,8 C5.23990997,8 5.65788701,8.21051601 5.80449038,8.40598718 L13.5955096,18.7940128 C14.1186685,19.4915579 15.1311017,20 15.9989566,20 L17.0004762,20 L17.0007853,20 Z" id="Combined-Shape"></path>
        </g>
    </g>
</svg>