<?xml version="1.0" encoding="UTF-8"?>
<svg width="24px" height="24px" viewBox="0 0 24 24" version="1.1" xmlns="http://www.w3.org/2000/svg" xmlns:xlink="http://www.w3.org/1999/xlink">
    <!-- Generator: Sketch 43.1 (39012) - http://www.bohemiancoding.com/sketch -->
    <title>/svg/ic-station</title>
    <desc>Created with Sketch.</desc>
    <defs></defs>
    <g id="Page-1" stroke="none" stroke-width="1" fill="none" fill-rule="evenodd">
        <g id="ic-station" fill-rule="nonzero" fill="#4A4A4A">
            <path d="M12,13 C12.5522847,13 13,12.5522847 13,12 C13,11.4477153 12.5522847,11 12,11 C11.4477153,11 11,11.4477153 11,12 C11,12.5522847 11.4477153,13 12,13 L12,13 Z M12,15 C10.3431458,15 9,13.6568542 9,12 C9,10.3431458 10.3431458,9 12,9 C13.6568542,9 15,10.3431458 15,12 C15,13.6568542 13.6568542,15 12,15 Z M15,4 C14.4477153,4 14,3.55228475 14,3 C14,2.44771525 14.4477153,2 15,2 C19.3467323,2 23.0000294,6.38394475 23,12.0000052 C22.9999706,17.6160779 19.346712,22 15,22 C14.4477153,22 14,21.5522847 14,21 C14,20.4477153 14.4477153,20 15,20 C18.1532678,20 20.999976,16.5839409 21,11.9999948 C21.000024,7.41607409 18.1532879,4 15,4 Z M14,8 C13.4477153,8 13,7.55228475 13,7 C13,6.44771525 13.4477153,6 14,6 C16.7323,6 19.0000181,8.64566391 19,12.0000054 C18.9999819,15.3543503 16.7322883,18 14,18 C13.4477153,18 13,17.5522847 13,17 C13,16.4477153 13.4477153,16 14,16 C15.5534144,16 16.9999876,14.3123268 17,11.9999946 C17.0000125,9.68767989 15.5534258,8 14,8 Z M9,2 C9.55228475,2 10,2.44771525 10,3 C10,3.55228475 9.55228475,4 9,4 C5.84671208,4 2.999976,7.41607409 3,11.9999948 C3.000024,16.5839409 5.84673222,20 9,20 C9.55228475,20 10,20.4477153 10,21 C10,21.5522847 9.55228475,22 9,22 C4.65328797,22 1.0000294,17.6160779 1,12.0000052 C0.999970601,6.38394475 4.65326773,2 9,2 Z M10,6 C10.5522848,6 11,6.44771525 11,7 C11,7.55228475 10.5522848,8 10,8 C8.44657421,8 6.99998755,9.68767989 7,11.9999946 C7.00001245,14.3123268 8.44658559,16 10,16 C10.5522848,16 11,16.4477153 11,17 C11,17.5522847 10.5522848,18 10,18 C7.26771167,18 5.00001806,15.3543503 5,12.0000054 C4.99998194,8.64566391 7.26769997,6 10,6 Z" id="Oval-53"></path>
        </g>
    </g>
</svg>