<?xml version="1.0" encoding="UTF-8"?>
<svg width="24px" height="24px" viewBox="0 0 24 24" version="1.1" xmlns="http://www.w3.org/2000/svg" xmlns:xlink="http://www.w3.org/1999/xlink">
    <!-- Generator: Sketch 43.1 (39012) - http://www.bohemiancoding.com/sketch -->
    <title>/svg/ic-sad</title>
    <desc>Created with Sketch.</desc>
    <defs></defs>
    <g id="Page-1" stroke="none" stroke-width="1" fill="none" fill-rule="evenodd">
        <g id="ic-sad" fill-rule="nonzero" fill="#4A4A4A">
            <path d="M12,21 C16.9705627,21 21,16.9705627 21,12 C21,7.02943725 16.9705627,3 12,3 C7.02943725,3 3,7.02943725 3,12 C3,16.9705627 7.02943725,21 12,21 Z M12,23 C5.92486775,23 1,18.0751322 1,12 C1,5.92486775 5.92486775,1 12,1 C18.0751322,1 23,5.92486775 23,12 C23,18.0751322 18.0751322,23 12,23 Z M8,12 C9.1045695,12 10,11.1045695 10,10 C10,8.8954305 9.1045695,8 8,8 C6.8954305,8 6,8.8954305 6,10 C6,11.1045695 6.8954305,12 8,12 Z M16,12 C14.8954305,12 14,11.1045695 14,10 C14,8.8954305 14.8954305,8 16,8 C17.1045695,8 18,8.8954305 18,10 C18,11.1045695 17.1045695,12 16,12 Z M8.29289322,16.2928932 C8.48996291,16.0958235 8.82531879,15.8443066 9.3027864,15.6055728 C10.0628512,15.2255404 10.9650129,15 12,15 C13.0349871,15 13.9371488,15.2255404 14.6972136,15.6055728 C15.1746812,15.8443066 15.5100371,16.0958235 15.7071068,16.2928932 C16.0976311,16.6834175 16.0976311,17.3165825 15.7071068,17.7071068 C15.3165825,18.0976311 14.6834175,18.0976311 14.2928932,17.7071068 C14.2941356,17.7083492 14.2671559,17.6847419 14.2125,17.64375 C14.1029773,17.5616079 13.9662947,17.4761813 13.8027864,17.3944272 C13.3128512,17.1494596 12.7150129,17 12,17 C11.2849871,17 10.6871488,17.1494596 10.1972136,17.3944272 C10.0337053,17.4761813 9.89702274,17.5616079 9.7875,17.64375 C9.73284413,17.6847419 9.70586437,17.7083492 9.70710678,17.7071068 C9.31658249,18.0976311 8.68341751,18.0976311 8.29289322,17.7071068 C7.90236893,17.3165825 7.90236893,16.6834175 8.29289322,16.2928932 Z" id="Combined-Shape"></path>
        </g>
    </g>
</svg>