<?xml version="1.0" encoding="UTF-8"?>
<svg width="24px" height="24px" viewBox="0 0 24 24" version="1.1" xmlns="http://www.w3.org/2000/svg" xmlns:xlink="http://www.w3.org/1999/xlink">
    <!-- Generator: Sketch 43.1 (39012) - http://www.bohemiancoding.com/sketch -->
    <title>/svg/ic-switch-off</title>
    <desc>Created with Sketch.</desc>
    <defs></defs>
    <g id="Page-1" stroke="none" stroke-width="1" fill="none" fill-rule="evenodd">
        <g id="ic-switch-off" fill-rule="nonzero" fill="#4A4A4A">
            <path d="M3,12 C3,14.2046438 4.78852545,16 6.9947834,16 L17.0052166,16 C19.2082844,16 21,14.209139 21,12 C21,9.79535615 19.2114745,8 17.0052166,8 L6.9947834,8 C4.79171562,8 3,9.790861 3,12 Z M1,12 C1,8.68773136 3.68570682,6 6.9947834,6 L17.0052166,6 C20.3154275,6 23,8.69016475 23,12 C23,15.3122686 20.3142932,18 17.0052166,18 L6.9947834,18 C3.68457248,18 1,15.3098352 1,12 Z M7,13 C7.55228475,13 8,12.5522847 8,12 C8,11.4477153 7.55228475,11 7,11 C6.44771525,11 6,11.4477153 6,12 C6,12.5522847 6.44771525,13 7,13 Z M7,15 C5.34314575,15 4,13.6568542 4,12 C4,10.3431458 5.34314575,9 7,9 C8.65685425,9 10,10.3431458 10,12 C10,13.6568542 8.65685425,15 7,15 Z" id="Rectangle-75"></path>
        </g>
    </g>
</svg>