<?xml version="1.0" encoding="UTF-8"?>
<svg width="24px" height="24px" viewBox="0 0 24 24" version="1.1" xmlns="http://www.w3.org/2000/svg" xmlns:xlink="http://www.w3.org/1999/xlink">
    <!-- Generator: Sketch 43.1 (39012) - http://www.bohemiancoding.com/sketch -->
    <title>/svg/ic-sound-mute</title>
    <desc>Created with Sketch.</desc>
    <defs></defs>
    <g id="Page-1" stroke="none" stroke-width="1" fill="none" fill-rule="evenodd">
        <g id="ic-sound-mute" fill-rule="nonzero" fill="#4A4A4A">
            <path d="M12.2021247,9.4960174 L9.00193278,9.4960174 C9.00145274,9.4960174 9,14.5073064 9,14.5073064 C9,14.5088872 12.2018504,14.5095817 12.2018504,14.5095817 L14,17.2166259 L14,6.78688383 L12.2021247,9.4960174 Z M9.00193278,16.5168632 C7.89612633,16.5168632 7,15.617482 7,14.5073064 L7,9.49829269 C7,8.38871646 7.89705005,7.48873594 9.00193278,7.48873594 L11.1312086,7.48873594 L13.617281,3.74259045 C14.4762709,2.44821901 16,2.94384823 16,4.47313444 L16,19.5278253 C16,21.06959 14.4692888,21.5418001 13.6175175,20.2594915 L11.1314829,16.5168632 L9.00193278,16.5168632 Z" id="Rectangle-87-Copy"></path>
        </g>
    </g>
</svg>