<?xml version="1.0" encoding="UTF-8"?>
<svg width="24px" height="24px" viewBox="0 0 24 24" version="1.1" xmlns="http://www.w3.org/2000/svg" xmlns:xlink="http://www.w3.org/1999/xlink">
    <!-- Generator: Sketch 43.1 (39012) - http://www.bohemiancoding.com/sketch -->
    <title>/svg/ic-sound</title>
    <desc>Created with Sketch.</desc>
    <defs></defs>
    <g id="Page-1" stroke="none" stroke-width="1" fill="none" fill-rule="evenodd">
        <g id="ic-sound" fill-rule="nonzero" fill="#4A4A4A">
            <path d="M9.20212474,9.4960174 L6.00193278,9.4960174 C6.00145274,9.4960174 6,14.5073064 6,14.5073064 C6,14.5088872 9.20185043,14.5095817 9.20185043,14.5095817 L11,17.2166259 L11,6.78688383 L9.20212474,9.4960174 Z M6.00193278,16.5168632 C4.89612633,16.5168632 4,15.617482 4,14.5073064 L4,9.49829269 C4,8.38871646 4.89705005,7.48873594 6.00193278,7.48873594 L8.1312086,7.48873594 L10.617281,3.74259045 C11.4762709,2.44821901 13,2.94384823 13,4.47313444 L13,19.5278253 C13,21.06959 11.4692888,21.5418001 10.6175175,20.2594915 L8.13148291,16.5168632 L6.00193278,16.5168632 Z M14,8 L14,6 C14.7663873,6 15.8459083,6.17992018 16.9472136,6.73057281 C18.8372923,7.67561214 20,9.41967375 20,12 C20,14.5803263 18.8372923,16.3243879 16.9472136,17.2694272 C15.8459083,17.8200798 14.7663873,18 14,18 L14,16 C14.1043439,16 14.3237827,15.9843258 14.616851,15.9354811 C15.1107153,15.8531704 15.6029053,15.7055134 16.0527864,15.4805728 C17.2877077,14.8631121 18,13.7946737 18,12 C18,10.2053263 17.2877077,9.13688786 16.0527864,8.51942719 C15.6029053,8.29448665 15.1107153,8.14682963 14.616851,8.06451892 C14.3237827,8.0156742 14.1043439,8 14,8 Z M14,11 L14,9 C14.3913873,9 14.9084083,9.08617018 15.4472136,9.35557281 C16.3997923,9.83186214 17,10.7321737 17,12 C17,13.2678263 16.3997923,14.1681379 15.4472136,14.6444272 C14.9084083,14.9138298 14.3913873,15 14,15 L14,13 C14.1086127,13 14.3415917,12.9611702 14.5527864,12.8555728 C14.8502077,12.7068621 15,12.4821737 15,12 C15,11.5178263 14.8502077,11.2931379 14.5527864,11.1444272 C14.3415917,11.0388298 14.1086127,11 14,11 Z" id="Combined-Shape"></path>
        </g>
    </g>
</svg>