<?xml version="1.0" encoding="UTF-8"?>
<svg width="24px" height="24px" viewBox="0 0 24 24" version="1.1" xmlns="http://www.w3.org/2000/svg" xmlns:xlink="http://www.w3.org/1999/xlink">
    <!-- Generator: Sketch 43.1 (39012) - http://www.bohemiancoding.com/sketch -->
    <title>/svg/ic-tag</title>
    <desc>Created with Sketch.</desc>
    <defs></defs>
    <g id="Page-1" stroke="none" stroke-width="1" fill="none" fill-rule="evenodd">
        <g id="ic-tag" fill-rule="nonzero" fill="#4A4A4A">
            <path d="M7.3137085,5.20099624 L7.3137085,15.5163044 C7.3137085,16.032879 7.67877142,16.7011775 8.12909936,17.0080598 L11.3137085,20.3137085 L14.5299783,17.0215516 C14.9563014,16.7119523 15.3137085,16.0332959 15.3137085,15.5163044 L15.3137085,5.20099624 C15.3137085,4.68442164 14.8673229,4.26490031 14.3166784,4.26490031 L8.31073864,4.26490031 C7.76674481,4.26490031 7.3137085,4.68400473 7.3137085,5.20099624 Z M5.3137085,5.23903509 C5.3137085,3.62428994 6.66127349,2.3137085 8.31073864,2.3137085 L14.3166784,2.3137085 C15.9725382,2.3137085 17.3137085,3.6244839 17.3137085,5.23903509 L17.3137085,15.9735123 C17.3137085,17.1119426 16.6725422,18.3888662 15.7547484,19.0824598 L11.3137085,22.3137085 L6.95315577,19.1041689 C5.98663424,18.4187547 5.3137085,17.1373643 5.3137085,15.9735123 L5.3137085,5.23903509 Z M11.3137085,17.3137085 C11.8659932,17.3137085 12.3137085,16.8659932 12.3137085,16.3137085 C12.3137085,15.7614237 11.8659932,15.3137085 11.3137085,15.3137085 C10.7614237,15.3137085 10.3137085,15.7614237 10.3137085,16.3137085 C10.3137085,16.8659932 10.7614237,17.3137085 11.3137085,17.3137085 Z" id="Combined-Shape" transform="translate(11.313708, 12.313708) rotate(45.000000) translate(-11.313708, -12.313708) "></path>
        </g>
    </g>
</svg>