<?xml version="1.0" encoding="UTF-8"?>
<svg width="24px" height="24px" viewBox="0 0 24 24" version="1.1" xmlns="http://www.w3.org/2000/svg" xmlns:xlink="http://www.w3.org/1999/xlink">
    <!-- Generator: Sketch 43.1 (39012) - http://www.bohemiancoding.com/sketch -->
    <title>/svg/ic-users</title>
    <desc>Created with Sketch.</desc>
    <defs></defs>
    <g id="Page-1" stroke="none" stroke-width="1" fill="none" fill-rule="evenodd">
        <g id="ic-users">
            <g id="Group" transform="translate(3.000000, 4.000000)">
                <g id="Group-7">
                    <path d="M9.64285714,9.32467532 L3.38898577,9.32467532 L2.56683239,9.32467532 C1.15241548,9.32467532 0,10.4685339 0,11.8814907 L0,13.9961184 C0,15.1031181 0.891085687,16 1.9955775,16 L11.0044225,16 C12.1091464,16 13,15.1011556 13,13.9961184 L13,11.8814907 C13,10.4693947 11.8454354,9.32467532 10.4277516,9.32467532 L9.64285714,9.32467532 Z" id="Rectangle-20" stroke="#4A4A4A" stroke-width="2"></path>
                    <path d="M6.5,9.73376623 C8.51419563,9.73376623 10.1470238,8.1144325 10.1470238,6.11688312 C10.1470238,4.11933373 8.51419563,2.5 6.5,2.5 C4.48580437,2.5 2.85297619,4.11933373 2.85297619,6.11688312 C2.85297619,8.1144325 4.48580437,9.73376623 6.5,9.73376623 Z M6.5,11.7337662 C3.38493323,11.7337662 0.85297619,9.22273446 0.85297619,6.11688312 C0.85297619,3.01103177 3.38493323,0.5 6.5,0.5 C9.61506677,0.5 12.1470238,3.01103177 12.1470238,6.11688312 C12.1470238,9.22273446 9.61506677,11.7337662 6.5,11.7337662 Z" id="Oval-1" fill="#4A4A4A" fill-rule="nonzero"></path>
                </g>
                <g id="Group-7-Copy" transform="translate(10.000000, 3.000000)">
                    <path d="M1,10.9999999 L1,11.9999999 L1.99999998,11.9999999 L7.00922202,12 C8.11002485,12 9,11.1027432 9,10.0021355 L9,9.95733337 C9,8.85104321 8.04827102,8 6.92801244,8 L2,8 L1,8 L1,9 L1,10.9999999 Z" id="Rectangle-20" stroke="#4A4A4A" stroke-width="2"></path>
                    <path d="M4.42857143,6.35714286 C5.49369202,6.35714286 6.35714286,5.49369202 6.35714286,4.42857143 C6.35714286,3.36345084 5.49369202,2.5 4.42857143,2.5 C3.36345084,2.5 2.5,3.36345084 2.5,4.42857143 C2.5,5.49369202 3.36345084,6.35714286 4.42857143,6.35714286 Z M4.42857143,8.35714286 C2.25888134,8.35714286 0.5,6.59826152 0.5,4.42857143 C0.5,2.25888134 2.25888134,0.5 4.42857143,0.5 C6.59826152,0.5 8.35714286,2.25888134 8.35714286,4.42857143 C8.35714286,6.59826152 6.59826152,8.35714286 4.42857143,8.35714286 Z" id="Oval-1" fill="#4A4A4A" fill-rule="nonzero"></path>
                </g>
            </g>
        </g>
    </g>
</svg>