<?xml version="1.0" encoding="UTF-8"?>
<svg width="24px" height="24px" viewBox="0 0 24 24" version="1.1" xmlns="http://www.w3.org/2000/svg" xmlns:xlink="http://www.w3.org/1999/xlink">
    <!-- Generator: Sketch 43.1 (39012) - http://www.bohemiancoding.com/sketch -->
    <title>/svg/ic-usb</title>
    <desc>Created with Sketch.</desc>
    <defs></defs>
    <g id="Page-1" stroke="none" stroke-width="1" fill="none" fill-rule="evenodd">
        <g id="ic-usb" fill-rule="nonzero" fill="#4A4A4A">
            <path d="M19,11.9955775 C19,11.99816 19.0008178,11.9994619 19,11.9998622 L19,11.9955775 Z M5,16.9989013 C5,19.2087169 6.78965188,21 8.99668583,21 L15.0033142,21 C17.2076272,21 19,19.2071561 19,16.9989013 L19,11.9998622 C18.999809,11.9999557 5.00087166,12 5.00087166,12 C5.00052131,12 5,16.9989013 5,16.9989013 Z M3,11.9955775 C3,10.8916031 3.8941949,10 5.00087166,10 L18.9991283,10 C20.1031689,10 21,10.8915313 21,11.9955775 L21,16.9989013 C21,20.311608 18.3123144,23 15.0033142,23 L8.99668583,23 C5.68467429,23 3,20.3128788 3,16.9989013 L3,11.9955775 Z M8,4.00292933 L8,10 L16,10 L16,4.00292933 C16,3.43788135 15.5536144,3 15.0029699,3 L8.99703014,3 C8.45303631,3 8,3.44902676 8,4.00292933 Z M6,4.00292933 C6,2.34733985 7.34558637,1 8.99703014,1 L15.0029699,1 C16.6612322,1 18,2.33635159 18,4.00292933 L18,12 L6,12 L6,4.00292933 Z M9,4.99980749 C9,4.44762906 9.44386482,4 10,4 L10,4 C10.5522847,4 11,4.44371665 11,4.99980749 L11,8.00019251 C11,8.55237094 10.5561352,9 10,9 L10,9 C9.44771525,9 9,8.55628335 9,8.00019251 L9,4.99980749 Z M13,4.99980749 C13,4.44762906 13.4438648,4 14,4 L14,4 C14.5522847,4 15,4.44371665 15,4.99980749 L15,8.00019251 C15,8.55237094 14.5561352,9 14,9 L14,9 C13.4477153,9 13,8.55628335 13,8.00019251 L13,4.99980749 Z" id="Rectangle-182"></path>
        </g>
    </g>
</svg>