<?xml version="1.0" encoding="UTF-8"?>
<svg width="24px" height="24px" viewBox="0 0 24 24" version="1.1" xmlns="http://www.w3.org/2000/svg" xmlns:xlink="http://www.w3.org/1999/xlink">
    <!-- Generator: Sketch 43.1 (39012) - http://www.bohemiancoding.com/sketch -->
    <title>/svg/ic-write</title>
    <desc>Created with Sketch.</desc>
    <defs></defs>
    <g id="Page-1" stroke="none" stroke-width="1" fill="none" fill-rule="evenodd">
        <g id="ic-write" fill="#4A4A4A">
            <path d="M2,21 C2,20.4477153 2.45303631,20 2.99703014,20 L9.00296986,20 C9.5536144,20 10,20.4438648 10,21 C10,21.5522847 9.54696369,22 9.00296986,22 L2.99703014,22 C2.4463856,22 2,21.5561352 2,21 Z M11,21 C11,20.4477153 11.4378814,20 12.0029293,20 L16.9970707,20 C17.5509732,20 18,20.4438648 18,21 C18,21.5522847 17.5621186,22 16.9970707,22 L12.0029293,22 C11.4490268,22 11,21.5561352 11,21 Z M19,21 C19,20.4477153 19.4426603,20 19.9989566,20 L21.0010434,20 C21.5527519,20 22,20.4438648 22,21 C22,21.5522847 21.5573397,22 21.0010434,22 L19.9989566,22 C19.4472481,22 19,21.5561352 19,21 Z" id="Combined-Shape"></path>
            <path d="M5.31040616,11.1135896 L8.22224284,13.1135896 L18.8965767,13.1135896 C19.4272224,13.1135896 19.8695896,12.6616798 19.8695896,12.1042207 L19.8695896,10.1229585 C19.8695896,9.55694282 19.4339569,9.11358964 18.8965767,9.11358964 L8.22224284,9.11358964 L5.31040616,11.1135896 Z M1.81081401,11.1135896 L7.63448736,7.11358964 L18.8965767,7.11358964 C20.5093582,7.11358964 21.810814,8.45576807 21.810814,10.1229585 L21.810814,12.1042207 C21.810814,13.7629153 20.5025643,15.1135896 18.8965767,15.1135896 L7.63448736,15.1135896 L1.81081401,11.1135896 Z" id="Rectangle-85" fill-rule="nonzero" transform="translate(11.810814, 11.113590) rotate(-45.000000) translate(-11.810814, -11.113590) "></path>
        </g>
    </g>
</svg>