<?xml version="1.0" encoding="UTF-8"?>
<svg width="24px" height="24px" viewBox="0 0 24 24" version="1.1" xmlns="http://www.w3.org/2000/svg" xmlns:xlink="http://www.w3.org/1999/xlink">
    <!-- Generator: Sketch 43.1 (39012) - http://www.bohemiancoding.com/sketch -->
    <title>/svg/ic-wireless</title>
    <desc>Created with Sketch.</desc>
    <defs></defs>
    <g id="Page-1" stroke="none" stroke-width="1" fill="none" fill-rule="evenodd">
        <g id="ic-wireless" fill-rule="nonzero" fill="#4A4A4A">
            <path d="M12,17 C12.5522847,17 13,16.5522847 13,16 C13,15.4477153 12.5522847,15 12,15 C11.4477153,15 11,15.4477153 11,16 C11,16.5522847 11.4477153,17 12,17 L12,17 Z M12,19 C10.3431458,19 9,17.6568542 9,16 C9,14.3431458 10.3431458,13 12,13 C13.6568542,13 15,14.3431458 15,16 C15,17.6568542 13.6568542,19 12,19 Z M22,13 C22,13.5522847 21.5522847,14 21,14 C20.4477153,14 20,13.5522847 20,13 C20,9.84671208 16.5839259,6.999976 12.0000052,7 C7.41605906,7.000024 4,9.84673222 4,13 C4,13.5522847 3.55228475,14 3,14 C2.44771525,14 2,13.5522847 2,13 C2,8.65328797 6.38392208,5.0000294 11.9999948,5 C17.6160552,4.9999706 22,8.65326773 22,13 Z M18,14 C18,14.5522847 17.5522847,15 17,15 C16.4477153,15 16,14.5522847 16,14 C16,12.4465742 14.3123201,10.9999875 12.0000054,11 C9.6876732,11.0000125 8,12.4465856 8,14 C8,14.5522847 7.55228475,15 7,15 C6.44771525,15 6,14.5522847 6,14 C6,11.2677117 8.64564966,9.00001806 11.9999946,9 C15.3543361,8.99998194 18,11.2677 18,14 Z" id="Oval-53"></path>
        </g>
    </g>
</svg>