<?xml version="1.0" encoding="iso-8859-1"?>
<!-- Generator: Adobe Illustrator 21.0.0, SVG Export Plug-In . SVG Version: 6.00 Build 0)  -->
<svg version="1.1" id="Capa_1" xmlns="http://www.w3.org/2000/svg" xmlns:xlink="http://www.w3.org/1999/xlink" x="0px" y="0px"
	 viewBox="0 0 512 512" style="enable-background:new 0 0 512 512;" xml:space="preserve">
<g>
	<g>
		<polygon points="445.423,193.154 271.881,193.154 315.464,276.683 421.952,276.683 460.761,276.683 495.793,276.683 		"/>
	</g>
</g>
<g>
	<g>
		<polygon points="297.278,306.683 271,256.319 271,512 451.952,512 451.952,306.683 		"/>
	</g>
</g>
<g>
	<g>
		<polygon points="214.722,306.683 60.048,306.683 60.048,512 241,512 241,256.319 		"/>
	</g>
</g>
<g>
	<g>
		<polygon points="66.577,193.154 16.207,276.683 51.239,276.683 90.048,276.683 196.536,276.683 240.119,193.154 		"/>
	</g>
</g>
<g>
	<g>
		<rect x="241" width="30" height="90.06"/>
	</g>
</g>
<g>
	<g>
		<rect x="164.733" y="15.17" transform="matrix(0.9239 -0.3827 0.3827 0.9239 -9.3564 73.3651)" width="30.001" height="90.062"/>
	</g>
</g>
<g>
	<g>
		<rect x="100.065" y="58.378" transform="matrix(0.7071 -0.7071 0.7071 0.7071 -39.4183 111.6501)" width="30" height="90.059"/>
	</g>
</g>
<g>
	<g>
		<rect x="351.9" y="88.398" transform="matrix(0.7071 -0.7071 0.7071 0.7071 43.1447 310.9563)" width="90.059" height="30"/>
	</g>
</g>
<g>
	<g>
		
			<rect x="287.244" y="45.209" transform="matrix(0.3827 -0.9239 0.9239 0.3827 149.4907 344.1493)" width="90.062" height="30.001"/>
	</g>
</g>
<g>
</g>
<g>
</g>
<g>
</g>
<g>
</g>
<g>
</g>
<g>
</g>
<g>
</g>
<g>
</g>
<g>
</g>
<g>
</g>
<g>
</g>
<g>
</g>
<g>
</g>
<g>
</g>
<g>
</g>
</svg>
