<svg id="Capa_1" enable-background="new 0 0 512 512" height="512" viewBox="0 0 512 512" width="512" xmlns="http://www.w3.org/2000/svg"><g><path d="m497 440h-482c-8.284 0-15-6.716-15-15v-20c0-8.284 6.716-15 15-15h482c8.284 0 15 6.716 15 15v20c0 8.284-6.716 15-15 15z"/><path d="m98.5 512h-45c-8.284 0-15-6.716-15-15v-27h75v27c0 8.284-6.716 15-15 15z"/><path d="m458.5 512h-45c-8.284 0-15-6.716-15-15v-27h75v27c0 8.284-6.716 15-15 15z"/><path d="m278.5 512h-45c-8.284 0-15-6.716-15-15v-27h75v27c0 8.284-6.716 15-15 15z"/><g><path d="m256 30c2.9 0 5.801.84 8.32 2.519l6.68 4.453v-36.972h-30v36.972l6.68-4.453c2.519-1.679 5.42-2.519 8.32-2.519z"/><path d="m331 0h-30v65c0 5.532-3.045 10.615-7.922 13.225-2.218 1.187-4.65 1.775-7.077 1.775-2.91 0-5.812-.846-8.321-2.519l-21.68-14.453-21.68 14.453c-4.603 3.068-10.521 3.354-15.398.744s-7.922-7.693-7.922-13.225v-65h-30c-8.284 0-15 6.716-15 15v150h180v-150c0-8.284-6.716-15-15-15z"/></g><g><path d="m361 225c2.9 0 5.801.84 8.32 2.519l6.68 4.453v-36.972h-30v36.972l6.68-4.453c2.519-1.679 5.42-2.519 8.32-2.519z"/><path d="m436 195h-30v64.533c0 5.277-2.536 10.346-7.002 13.157-2.455 1.546-5.23 2.31-7.997 2.31-2.91 0-5.812-.846-8.321-2.519l-21.68-14.453-21.68 14.453c-5.33 3.552-12.423 3.376-17.623-.71-3.702-2.909-5.697-7.488-5.697-12.196v-64.575h-45v165h180v-150c0-8.284-6.716-15-15-15z"/></g><g><path d="m151 225c-2.9 0-5.801.84-8.32 2.519l-6.68 4.453v-36.972h30v36.972l-6.68-4.453c-2.519-1.679-5.42-2.519-8.32-2.519z"/><path d="m76 195h30v64.533c0 5.277 2.536 10.346 7.002 13.157 2.455 1.546 5.23 2.31 7.997 2.31 2.91 0 5.812-.846 8.321-2.519l21.68-14.453 21.68 14.453c5.33 3.552 12.423 3.376 17.623-.71 3.702-2.909 5.697-7.488 5.697-12.196v-64.575h45v165h-180v-150c0-8.284 6.716-15 15-15z"/></g></g></svg>