<?xml version="1.0" encoding="UTF-8" standalone="no"?>
<svg
   width="256"
   height="256"
   version="1.1"
   id="svg8"
   xmlns="http://www.w3.org/2000/svg"
   xmlns:svg="http://www.w3.org/2000/svg">
  <!-- Generator: Sketch 40 (33762) - http://www.bohemiancoding.com/sketch -->
  <desc
     id="desc2">Created with Sketch.</desc>
  <defs
     id="defs4" />
  <path
     d="m 204.1846,122.8848 h -74.20018 v 48.95433 h 60.44442 C 171.49445,198.20434 135.74295,211.62295 98.81819,196.43767 82.288765,189.60373 69.108886,176.54495 62.122671,160.07931 39.547041,105.81147 78.710501,53.795813 129.98442,53.795813 c 2.34657,0 4.69314,0.107889 7.05319,0.350637 0.47202,0 0.94403,0.107889 1.40256,0.107889 0.47201,0 0.82264,0.134859 1.29465,0.134859 0.47201,0.107889 0.94404,0.107889 1.41604,0.229264 0.47201,0.107888 0.82265,0.107888 1.29465,0.229262 0.47202,0.121375 0.94403,0.121375 1.41605,0.242749 0.45852,0.107889 0.80916,0.107889 1.17327,0.229263 0.47201,0.121375 0.94404,0.229263 1.40256,0.229263 0.38165,0.138097 0.78151,0.219876 1.18676,0.242748 0.45853,0.121375 0.94404,0.229264 1.29467,0.350638 0.35064,0.121374 0.80917,0.242749 1.17328,0.350637 0.47202,0.121374 0.80916,0.242748 1.29467,0.350637 0.35063,0.13486 0.80916,0.242748 1.17328,0.364123 0.44894,0.104652 0.88361,0.26318 1.29465,0.472012 l 1.1733,0.350635 c 0.47201,0.107889 0.82264,0.350638 1.29465,0.472012 0.35064,0.107888 0.80916,0.350637 1.17329,0.472011 0.47201,0.107889 0.82265,0.350638 1.29465,0.458526 0.35065,0.13486 0.82266,0.364123 1.17329,0.472012 0.35063,0.242748 0.82265,0.364122 1.17329,0.593386 0.36412,0.121374 0.71476,0.350636 1.18677,0.472011 0.35063,0.229263 0.80916,0.350637 1.17329,0.593386 0.35064,0.229262 0.70127,0.350637 1.05191,0.579899 0.37019,0.245055 0.7687,0.44431 1.18677,0.593386 0.35063,0.229262 0.70128,0.350636 1.05191,0.5799 0.35064,0.242748 0.82264,0.472011 1.17329,0.714759 0.35063,0.229264 0.71476,0.472012 1.0654,0.5799 3.87049,2.360057 7.41731,5.070752 10.8158,8.132083 l 37.76091,-37.787883 c -4.72481,-4.433558 -9.7588,-8.525645 -15.06391,-12.245325 -0.22927,-0.229263 -0.59338,-0.350637 -0.94403,-0.5799 -0.81819,-0.616137 -1.684,-1.166299 -2.58931,-1.645296 -0.47201,-0.364123 -0.94402,-0.593386 -1.52392,-0.944023 -0.82266,-0.593386 -1.75319,-1.065398 -2.58932,-1.645298 -0.47202,-0.242748 -0.94403,-0.593385 -1.52392,-0.822647 -0.94403,-0.472011 -1.76667,-1.065397 -2.69722,-1.537409 l -1.41602,-0.701274 c -0.94404,-0.472011 -1.88805,-1.065398 -2.83207,-1.53741 -0.47202,-0.229262 -0.80916,-0.472011 -1.29467,-0.5799 -1.0519,-0.47201 -2.11731,-0.944022 -3.04785,-1.416033 -2.6972,-1.173286 -5.17864,-2.2386833 -7.64657,-3.1827062 -0.35065,-0.1213742 -0.82265,-0.3506369 -1.17329,-0.4720113 -0.82265,-0.350637 -1.76667,-0.5798998 -2.69721,-0.9440229 l -2.13079,-0.701274 -2.46794,-0.701274 -2.33309,-0.7147602 c -0.82265,-0.2292625 -1.65878,-0.4720113 -2.48144,-0.5798996 -0.80916,-0.2427487 -1.6453,-0.4720114 -2.46794,-0.5933858 -0.80916,-0.2292626 -1.64529,-0.3506371 -2.34657,-0.4720113 -0.82265,-0.2292627 -1.75319,-0.3506371 -2.58931,-0.4720114 -0.79258,-0.1008082 -1.57673,-0.2585544 -2.34658,-0.4720115 -0.94403,-0.1078882 -1.76667,-0.350637 -2.69721,-0.4720113 -0.83614,-0.1078883 -1.53741,-0.2292627 -2.36006,-0.3506371 -0.94401,-0.1078883 -1.88804,-0.22926263 -2.6972,-0.35063699 -0.83613,-0.12137435 -1.53742,-0.12137435 -2.36006,-0.22926267 -0.94402,-0.1348604 -1.88805,-0.1348604 -2.83207,-0.2427487 -0.45853,0 -0.94402,-0.12137436 -1.40255,-0.12137436 C 134.3539,0.12137436 132.11521,0 129.87654,0 44.024405,0 -22.19205,84.746274 10.511597,175.37247 c 12.339726,34.37592 39.986107,61.09177 74.442939,72.97297 73.620284,25.19192 142.884584,-14.69979 165.230954,-76.97831 4.70663,-13.0545 3.76261,-18.70514 3.99187,-33.31053 v -15.1718 h -49.97927 z"
     fill="#000"
     fill-rule="evenodd"
     id="path6"
     style="fill:#52709c;fill-opacity:1;stroke-width:13.486" />
</svg>
