<?xml version="1.0" encoding="iso-8859-1"?>
<!-- Generator: Adobe Illustrator 16.0.0, SVG Export Plug-In . SVG Version: 6.00 Build 0)  -->
<!DOCTYPE svg PUBLIC "-//W3C//DTD SVG 1.1//EN" "http://www.w3.org/Graphics/SVG/1.1/DTD/svg11.dtd">
<svg version="1.1" id="Capa_1" xmlns="http://www.w3.org/2000/svg" xmlns:xlink="http://www.w3.org/1999/xlink" x="0px" y="0px"
	 width="510px" height="510px" viewBox="0 0 510 510" style="enable-background:new 0 0 510 510;" xml:space="preserve">
<g>
	<g id="help">
		<path d="M255,0C114.75,0,0,114.75,0,255s114.75,255,255,255s255-114.75,255-255S395.25,0,255,0z M280.5,433.5h-51v-51h51V433.5z
			 M334.05,237.15L311.1,260.1c-20.399,17.851-30.6,33.15-30.6,71.4h-51v-12.75c0-28.05,10.2-53.55,30.6-71.4L290.7,214.2
			c10.2-7.65,15.3-20.4,15.3-35.7c0-28.05-22.95-51-51-51s-51,22.95-51,51h-51c0-56.1,45.9-102,102-102c56.1,0,102,45.9,102,102
			C357,201.45,346.8,221.85,334.05,237.15z"/>
	</g>
</g>
<g>
</g>
<g>
</g>
<g>
</g>
<g>
</g>
<g>
</g>
<g>
</g>
<g>
</g>
<g>
</g>
<g>
</g>
<g>
</g>
<g>
</g>
<g>
</g>
<g>
</g>
<g>
</g>
<g>
</g>
</svg>
