<?xml version="1.0" encoding="iso-8859-1"?>
<!-- Generator: Adobe Illustrator 19.0.0, SVG Export Plug-In . SVG Version: 6.00 Build 0)  -->
<svg version="1.1" id="Layer_1" xmlns="http://www.w3.org/2000/svg" xmlns:xlink="http://www.w3.org/1999/xlink" x="0px" y="0px"
	 viewBox="0 0 301.416 301.416" style="enable-background:new 0 0 301.416 301.416;" xml:space="preserve">
<g>
	<g>
		<path d="M272.013,239.992C344.29,141.941,275.356,1.036,151.905,0.059c-0.005,0-0.009-0.001-0.014-0.001
			c-0.013,0-0.027,0-0.039-0.001c-0.019,0-0.039-0.001-0.057-0.001c-0.014,0-0.029,0-0.043,0c-0.756-0.019-1.522-0.019-2.196,0
			c-0.007,0-0.013,0-0.02,0c-0.009,0-0.018,0.001-0.026,0.001c-0.007,0-0.015,0-0.022,0c-0.003,0-0.005,0-0.008,0
			C65.826,0.691,0,68.785,0,150.71c0,83.201,67.451,150.664,150.664,150.664c26.765,0,53.515-7.072,77.353-21.367l19.125,19.126
			c2.981,2.978,7.826,2.993,10.819-0.001l31.181-31.192c2.988-2.989,2.987-7.832,0-10.818L272.013,239.992z M104.596,23.536
			C92.138,37.607,81.843,57.499,74.897,81.86H34.13C50.241,54.704,75.415,34.187,104.596,23.536z M26.319,97.16h44.787
			c-3.109,14.681-4.897,30.054-5.331,45.9H15.51C16.385,127.124,20.014,111.736,26.319,97.16z M15.51,158.36h50.266
			c0.433,15.847,2.222,31.22,5.331,45.9H26.319C20.014,189.686,16.385,174.298,15.51,158.36z M34.13,219.56h40.766
			c6.946,24.359,17.239,44.25,29.69,58.32C75.411,267.229,50.242,246.713,34.13,219.56z M143.014,285.21
			c-21.34-4.782-40.88-29.327-52.151-65.65h52.151V285.21z M143.014,204.26H86.782c-3.32-14.596-5.241-29.977-5.703-45.9h61.935
			C143.014,181.499,143.014,193.693,143.014,204.26z M143.014,143.06H81.079c0.461-15.923,2.382-31.303,5.702-45.9h56.234V143.06z
			 M143.014,81.859H90.864c11.264-36.302,30.791-60.842,52.151-65.644V81.859z M275.008,204.26h-7.578l6.595-6.595
			c4.162-4.164,2.247-11.279-3.43-12.799l-36.048-9.66c0.505-5.544,0.847-11.17,1.004-16.845h50.267
			C284.943,174.295,281.315,189.682,275.008,204.26z M285.818,143.06h-50.265c-0.433-15.847-2.223-31.22-5.331-45.9h44.786
			C281.314,111.734,284.943,127.123,285.818,143.06z M267.198,81.86h-40.766c-6.946-24.359-17.239-44.25-29.69-58.32
			C225.919,34.19,251.089,54.707,267.198,81.86z M158.314,16.209c21.34,4.782,40.88,29.327,52.151,65.65h-52.151V16.209z
			 M158.314,97.16h56.233c3.32,14.595,5.242,29.976,5.703,45.9h-61.935V97.16z M220.235,158.36
			c-0.126,4.311-0.348,8.596-0.686,12.826l-47.859-12.826H220.235z M158.314,285.204V219.56h0.217l15.616,58.28
			C169.022,281.506,163.702,283.986,158.314,285.204z M196.436,278.124c3.309-3.699,6.472-7.813,9.465-12.325l3.955-3.955
			l6.979,6.979C210.286,272.501,203.462,275.602,196.436,278.124z M252.551,282.904l-37.286-37.287
			c-2.986-2.986-7.83-2.989-10.819-0.001c-10.898,10.898-8.04,8.04-18.211,18.212l-24.751-92.363
			c38.489,10.316,81.823,21.928,92.354,24.75l-18.211,18.209c-2.988,2.989-2.988,7.832,0,10.819l37.289,37.289L252.551,282.904z
			 M267.228,219.56c-1.92,3.245-3.972,6.412-6.159,9.488l-9.213-9.213l0.274-0.275H267.228z"/>
	</g>
</g>
<g>
</g>
<g>
</g>
<g>
</g>
<g>
</g>
<g>
</g>
<g>
</g>
<g>
</g>
<g>
</g>
<g>
</g>
<g>
</g>
<g>
</g>
<g>
</g>
<g>
</g>
<g>
</g>
<g>
</g>
</svg>
