<svg id="Capa_1" enable-background="new 0 0 512 512" height="512" viewBox="0 0 512 512" width="512" xmlns="http://www.w3.org/2000/svg"><g><path d="m286 227v-122h14.998c5.537 0 10.62-3.047 13.228-7.925s2.329-10.796-.747-15.396l-44.999-75.417c-5.566-8.35-19.395-8.35-24.961 0l-44.998 75.418c-3.076 4.6-3.354 10.518-.747 15.396s7.69 7.925 13.228 7.925h14.998v122c0 8.284 6.716 15 15 15h30c8.284-.001 15-6.717 15-15.001z"/><path d="m91 242h30c8.284 0 15-6.716 15-15v-62h14.998c5.537 0 10.62-3.047 13.228-7.925s2.329-10.796-.747-15.396l-44.999-75.417c-5.566-8.35-19.395-8.35-24.961 0l-44.998 75.418c-3.076 4.6-3.354 10.518-.747 15.396s7.691 7.924 13.228 7.924h14.998v62c0 8.284 6.716 15 15 15z"/><path d="m391 242h30c8.284 0 15-6.716 15-15v-62h14.998c5.537 0 10.62-3.047 13.228-7.925s2.329-10.796-.747-15.396l-44.999-75.417c-5.566-8.35-19.395-8.35-24.961 0l-44.998 75.417c-3.076 4.6-3.354 10.518-.747 15.396s7.69 7.925 13.228 7.925h14.998v62c0 8.284 6.716 15 15 15z"/><path d="m15.026 362h157.947c5.015 0 9.699-2.507 12.48-6.68l55.547-83.32h-172.973c-5.015 0-9.699 2.507-12.48 6.68l-53.002 60c-6.647 9.968.5 23.32 12.481 23.32z"/><path d="m456.453 278.68c-2.781-4.173-7.465-6.68-12.48-6.68h-172.973l55.547 83.32c2.781 4.173 7.465 6.68 12.48 6.68h157.947c11.981 0 19.127-13.352 12.48-23.32z"/><path d="m451 497c0-11.785 0-59.634 0-105h-111.973c-15.073 0-29.077-7.485-37.441-20.039l-30.586-45.877v185.916h165c8.291 0 15-6.709 15-15z"/><path d="m76 512h165v-185.916l-30.586 45.877c-8.364 12.554-22.368 20.039-37.441 20.039h-111.973c0 52.76 0 107.552 0 105 0 8.291 6.709 15 15 15z"/></g></svg>