<?xml version="1.0" encoding="UTF-8" standalone="no"?>
<svg
   xmlns:dc="http://purl.org/dc/elements/1.1/"
   xmlns:cc="http://creativecommons.org/ns#"
   xmlns:rdf="http://www.w3.org/1999/02/22-rdf-syntax-ns#"
   xmlns:svg="http://www.w3.org/2000/svg"
   xmlns="http://www.w3.org/2000/svg"
   xml:space="preserve"
   style="enable-background:new 0 0 303.477 303.477;"
   viewBox="0 0 303.477 303.477"
   y="0px"
   x="0px"
   id="Capa_1"
   version="1.1"><metadata
   id="metadata39"><rdf:RDF><cc:Work
       rdf:about=""><dc:format>image/svg+xml</dc:format><dc:type
         rdf:resource="http://purl.org/dc/dcmitype/StillImage" /><dc:title></dc:title></cc:Work></rdf:RDF></metadata><defs
   id="defs37" />
<path
   style="fill:#5f84f1;fill-opacity:1"
   id="path2"
   d="M298.604,64.209l-49.978,49.979L204.907,98.57L189.29,54.852l49.979-49.979c-32.791-10.97-70.418-3.42-96.529,22.692  c-25.629,25.629-33.373,62.349-23.281,94.704c-1.359,1.07-2.676,2.222-3.93,3.476L12.884,228.389  c-17.178,17.177-17.178,45.027,0,62.205c17.178,17.178,45.029,17.178,62.207,0l102.645-102.645c1.254-1.254,2.404-2.57,3.475-3.929  c32.355,10.092,69.074,2.347,94.703-23.282C302.024,134.626,309.575,97.001,298.604,64.209z" />
<g
   id="g4">
</g>
<g
   id="g6">
</g>
<g
   id="g8">
</g>
<g
   id="g10">
</g>
<g
   id="g12">
</g>
<g
   id="g14">
</g>
<g
   id="g16">
</g>
<g
   id="g18">
</g>
<g
   id="g20">
</g>
<g
   id="g22">
</g>
<g
   id="g24">
</g>
<g
   id="g26">
</g>
<g
   id="g28">
</g>
<g
   id="g30">
</g>
<g
   id="g32">
</g>
</svg>