<?xml version="1.0" encoding="iso-8859-1"?>
<!-- Generator: Adobe Illustrator 19.0.0, SVG Export Plug-In . SVG Version: 6.00 Build 0)  -->
<svg version="1.1" id="Layer_1" xmlns="http://www.w3.org/2000/svg" xmlns:xlink="http://www.w3.org/1999/xlink" x="0px" y="0px"
	 viewBox="0 0 512 512" style="enable-background:new 0 0 512 512;" xml:space="preserve">
<circle style="fill:#A258CB;" cx="256" cy="256" r="256"/>
<path style="fill:#933EC6;" d="M256,0c-11.317,0-22.461,0.744-33.391,2.167C348.216,18.53,445.217,125.933,445.217,256
	s-97.002,237.47-222.609,253.833C233.539,511.256,244.683,512,256,512c141.385,0,256-114.616,256-256S397.385,0,256,0z"/>
<path style="fill:#6E2C92;" d="M169.472,409.345l-23.026-37.754c-1.282-2.101-3.565-3.384-6.027-3.384H95.546
	c-3.899,0-7.06-3.161-7.06-7.06V157.973c0-1.28,0.347-2.536,1.006-3.632l30.572-50.951c1.276-2.126,3.574-3.427,6.054-3.427h279.206
	c3.899,0,7.06,3.161,7.06,7.06v168.89c0,1.872-0.743,3.667-2.068,4.992l-85.235,85.235c-1.323,1.323-3.12,2.068-4.992,2.068h-82.111
	c-2.442,0-4.712,1.262-5.999,3.338l-23.48,37.846c-1.288,2.076-3.556,3.338-5.999,3.338h-27
	C173.038,412.729,170.754,411.447,169.472,409.345z"/>
<path style="fill:#FFFFFF;" d="M167.87,323.685h-19.702c-2.226,0-4.03-1.804-4.03-4.03v-160.01c0-2.226,1.804-4.029,4.03-4.029
	h226.793c2.226,0,4.03,1.804,4.03,4.03v95.262c0,1.069-0.424,2.094-1.18,2.849l-64.748,64.748c-0.756,0.756-1.781,1.18-2.849,1.18
	h-99.65c-1.446,0-2.781,0.775-3.498,2.03l-14.349,25.11c-1.547,2.707-5.451,2.707-6.998,0l-14.349-25.11
	C170.652,324.46,169.316,323.685,167.87,323.685z"/>
<g>
	<path style="fill:#6E2C92;" d="M199.791,264.494v-60.817c0-1.954,1.585-3.539,3.539-3.539h27.425c1.954,0,3.539,1.585,3.539,3.539
		v60.817c0,1.954-1.585,3.539-3.539,3.539h-27.425C201.376,268.033,199.791,266.448,199.791,264.494z"/>
	<path style="fill:#6E2C92;" d="M277.704,264.494v-60.817c0-1.954,1.585-3.539,3.539-3.539h27.425c1.954,0,3.539,1.585,3.539,3.539
		v60.817c0,1.954-1.585,3.539-3.539,3.539h-27.425C279.289,268.033,277.704,266.448,277.704,264.494z"/>
</g>
<g>
</g>
<g>
</g>
<g>
</g>
<g>
</g>
<g>
</g>
<g>
</g>
<g>
</g>
<g>
</g>
<g>
</g>
<g>
</g>
<g>
</g>
<g>
</g>
<g>
</g>
<g>
</g>
<g>
</g>
</svg>
