<?xml version="1.0" encoding="UTF-8" standalone="no"?>
<svg
   xmlns:dc="http://purl.org/dc/elements/1.1/"
   xmlns:cc="http://creativecommons.org/ns#"
   xmlns:rdf="http://www.w3.org/1999/02/22-rdf-syntax-ns#"
   xmlns:svg="http://www.w3.org/2000/svg"
   xmlns="http://www.w3.org/2000/svg"
   version="1.1"
   id="Layer_1"
   x="0px"
   y="0px"
   viewBox="0 0 71.412065 71.412064"
   xml:space="preserve"
   width="71.412064"
   height="71.412064"><metadata
     id="metadata33"><rdf:RDF><cc:Work
         rdf:about=""><dc:format>image/svg+xml</dc:format><dc:type
           rdf:resource="http://purl.org/dc/dcmitype/StillImage" /><dc:title></dc:title></cc:Work></rdf:RDF></metadata><defs
     id="defs31" /><style
     type="text/css"
     id="style3">
	.st0{fill:#FF0000;}
	.st1{fill:#FFFFFF;}
	.st2{fill:#282828;}
</style><g
     class="style-scope tp-yt-iron-icon"
     id="g9"
     transform="matrix(3.2210733,0,0,3.2210733,-3.1998466,-3.2458925)"><path
       d="m 16.94,6.91 -1.41,1.45 c 0.9,0.94 1.46,2.22 1.46,3.64 0,1.42 -0.56,2.71 -1.46,3.64 l 1.41,1.45 c 1.27,-1.31 2.05,-3.11 2.05,-5.09 0,-1.98 -0.78,-3.79 -2.05,-5.09 z M 19.77,4 18.36,5.45 c 1.62,1.68 2.64,3.99 2.64,6.56 0,2.57 -1.01,4.88 -2.64,6.54 L 19.76,20 C 21.77,17.96 23,15.13 23,12.01 23,8.88 21.77,6.05 19.77,4 Z M 7.06,6.91 c -1.27,1.3 -2.05,3.1 -2.05,5.09 0,1.99 0.78,3.79 2.05,5.09 L 8.47,15.64 C 7.57,14.7 7.01,13.42 7.01,12 7.01,10.58 7.57,9.29 8.47,8.36 Z M 5.64,5.45 4.24,4 C 2.23,6.04 1,8.87 1,11.99 1,15.12 2.23,17.95 4.23,20 L 5.64,18.55 C 4.02,16.87 3,14.56 3,11.99 3,9.42 4.01,7.11 5.64,5.45 Z"
       class="style-scope tp-yt-iron-icon"
       id="path5" /><circle
       cx="12"
       cy="12"
       r="3"
       class="style-scope tp-yt-iron-icon"
       id="circle7" /></g></svg>
