<?xml version="1.0" encoding="UTF-8" standalone="no"?>
<svg
   id="Colors_-Typography_-Card_Avatar-Visual-Feedback-and-Logo"
   width="128"
   height="128"
   data-name="Colors,-Typography,-Card/Avatar-Visual-Feedback-and-Logo"
   viewBox="0 0 24 24"
   version="1.1"
   sodipodi:docname="svgexport-5.svg"
   inkscape:version="1.2.2 (732a01da63, 2022-12-09)"
   xmlns:inkscape="http://www.inkscape.org/namespaces/inkscape"
   xmlns:sodipodi="http://sodipodi.sourceforge.net/DTD/sodipodi-0.dtd"
   xmlns="http://www.w3.org/2000/svg"
   xmlns:svg="http://www.w3.org/2000/svg">
  <sodipodi:namedview
     id="namedview11"
     pagecolor="#ffffff"
     bordercolor="#000000"
     borderopacity="0.25"
     inkscape:showpageshadow="2"
     inkscape:pageopacity="0.0"
     inkscape:pagecheckerboard="0"
     inkscape:deskcolor="#d1d1d1"
     showgrid="false"
     inkscape:zoom="3.2382813"
     inkscape:cx="69.172497"
     inkscape:cy="47.556092"
     inkscape:window-width="1920"
     inkscape:window-height="1009"
     inkscape:window-x="-8"
     inkscape:window-y="-8"
     inkscape:window-maximized="1"
     inkscape:current-layer="Colors_-Typography_-Card_Avatar-Visual-Feedback-and-Logo" />
  <defs
     id="defs4">
    <style
       id="style2">
            .cls-1{fill:#ffd300;fill-rule:evenodd}
        </style>
  </defs>
  <circle
     style="fill:#202225;stroke-width:0.1875;fill-opacity:1"
     id="path352"
     cx="11.996079"
     cy="12.037022"
     r="11.586657" />
  <g
     id="Group-2">
    <g
       id="Group-5">
      <path
         id="Fill-3"
         d="M19.177 15.528a3.337 3.337 0 0 1-1.04 2.389 3.377 3.377 0 0 1-2.39.936c-2.129 0-4.257.007-6.385 0a3.378 3.378 0 0 1-2.911-1.855A3.3 3.3 0 0 1 6.1 15.52v-4.6a7.739 7.739 0 0 1-1.87 1.461 9.35 9.35 0 0 0-.783-1.822 13.288 13.288 0 0 0 2.445-.583 9.814 9.814 0 0 0-2.446-.633 9.376 9.376 0 0 0 .791-1.823 7.841 7.841 0 0 1 1.855 1.474 3.441 3.441 0 0 1 .985-2.223 3.328 3.328 0 0 1 2.371-.989h6.465a3.36 3.36 0 0 1 3.265 3.353v6.392m3.612-8.5a12 12 0 1 0 .916 7.911 12 12 0 0 0-.916-7.911"
         class="cls-1"
         transform="translate(0 -.288)" />
    </g>
    <path
       id="Fill-6"
       d="M30.729 27.088c-.683.074-1.367.152-2.053.206a.305.305 0 0 1-.111-.58c.5-.084 1.006-.1 1.508-.168a2.94 2.94 0 0 1 .7-.034.309.309 0 0 1-.046.576m-1.124 2.25a.9.9 0 1 1 .963-.985.912.912 0 0 1-.963.985m-3.04-2.045c-.688-.046-1.376-.131-2.063-.2a.307.307 0 0 1-.094-.563 1.119 1.119 0 0 1 .472-.009c.575.07 1.155.106 1.729.186a.3.3 0 0 1-.044.59m-1.181 2.033a.9.9 0 1 1 1.058-.891.914.914 0 0 1-1.058.891m7.053-3.5a2.315 2.315 0 0 0-1.569-.569q-3.292.005-6.583 0a2.853 2.853 0 0 0-.635.093 2.164 2.164 0 0 0-1.476 1.383 5.775 5.775 0 0 0-.118 1.7 5.5 5.5 0 0 0 .136 1.766 2.125 2.125 0 0 0 1.92 1.4 3.256 3.256 0 0 0 2.383-.934 1.537 1.537 0 0 1 1.344-.525 2.177 2.177 0 0 1 1.133.708 3.052 3.052 0 0 0 2.874.591 2.179 2.179 0 0 0 1.309-1.888c.013-.684 0-1.366.006-2.05a2.2 2.2 0 0 0-.724-1.674"
       class="cls-1"
       transform="translate(-14.978 -17.372)" />
  </g>
</svg>
