<?xml version="1.0" encoding="UTF-8" standalone="no"?>
<svg
   width="64"
   height="64"
   fill="none"
   version="1.1"
   id="svg10"
   sodipodi:docname="donatepay-icon.svg"
   inkscape:version="1.2.2 (732a01da63, 2022-12-09)"
   xmlns:inkscape="http://www.inkscape.org/namespaces/inkscape"
   xmlns:sodipodi="http://sodipodi.sourceforge.net/DTD/sodipodi-0.dtd"
   xmlns="http://www.w3.org/2000/svg"
   xmlns:svg="http://www.w3.org/2000/svg">
  <defs
     id="defs14" />
  <sodipodi:namedview
     id="namedview12"
     pagecolor="#ffffff"
     bordercolor="#000000"
     borderopacity="0.25"
     inkscape:showpageshadow="2"
     inkscape:pageopacity="0.0"
     inkscape:pagecheckerboard="0"
     inkscape:deskcolor="#d1d1d1"
     showgrid="false"
     inkscape:zoom="5.3492064"
     inkscape:cx="-1.3086053"
     inkscape:cy="24.863501"
     inkscape:window-width="1920"
     inkscape:window-height="1009"
     inkscape:window-x="-8"
     inkscape:window-y="-8"
     inkscape:window-maximized="1"
     inkscape:current-layer="svg10" />
  <path
     d="m 45.649358,28.936823 a 1.8858146,1.8858146 0 0 1 1.898247,-1.871311 1.8858146,1.8858146 0 0 1 1.89825,1.871311 1.8858146,1.8858146 0 0 1 -1.89825,1.871308 1.8858146,1.8858146 0 0 1 -1.898247,-1.871308 z m -4.111491,4.055537 a 1.8858146,1.8858146 0 0 1 1.898249,-1.87338 1.8858146,1.8858146 0 0 1 1.896177,1.87338 1.8858146,1.8858146 0 0 1 -1.896177,1.871309 1.8858146,1.8858146 0 0 1 -1.898249,-1.871309 z m 10.12123,-1.87338 a 1.8858146,1.8858146 0 0 0 -1.89825,1.87338 c 0,1.034089 0.849653,1.871309 1.89825,1.871309 a 1.8858146,1.8858146 0 0 0 1.898247,-1.871309 1.8858146,1.8858146 0 0 0 -1.898247,-1.87338 z m -6.009739,5.928918 a 1.8858146,1.8858146 0 0 1 1.898247,-1.873383 1.8858146,1.8858146 0 0 1 1.89825,1.873383 1.8858146,1.8858146 0 0 1 -1.89825,1.871306 1.8858146,1.8858146 0 0 1 -1.898247,-1.871306 z"
     fill="#44ab4f"
     id="path4"
     style="stroke-width:2.07233" />
  <path
     fill-rule="evenodd"
     clip-rule="evenodd"
     d="m 34.543774,40.139805 0.0063,0.0063 0.0042,0.0083 c 2.955135,4.206817 6.708113,7.499739 12.835973,7.499739 8.109006,0 14.707282,-6.507095 14.707282,-14.506266 -6e-6,-7.988818 -6.610719,-14.506277 -14.707289,-14.506277 -4.507304,0 -7.997097,1.902393 -10.568852,4.536317 -2.517872,2.575898 -4.285563,5.777639 -6.028387,8.937933 l -0.174077,0.317066 c -1.782198,3.226608 -3.583047,6.376542 -5.715468,8.575278 -1.065175,1.09833 -2.190447,1.99979 -3.522952,2.619414 -1.336649,0.62377 -2.849445,0.953271 -4.673089,0.953271 -6.424204,0 -11.5884354,-5.095846 -11.5884354,-11.433011 0,-6.306083 5.1953154,-11.43094 11.5884354,-11.43094 5.189098,0 8.272717,2.897109 10.85276,6.768211 0.545021,-0.944982 1.12527,-1.906538 1.740752,-2.880531 C 26.378817,21.665036 22.640346,18.643588 16.707282,18.643588 8.598279,18.641516 2,25.148613 2,33.147784 c 0,7.986735 6.6107129,14.506265 14.707282,14.506265 4.465859,0 7.953579,-1.902392 10.500466,-4.536316 1.720028,-1.775982 3.083617,-3.858668 4.337372,-6.026316 l 0.580251,-1.005079 0.532588,1.029946 c 0.404103,0.781267 1.189514,2.088903 1.885815,3.025593 z m 1.340792,-3.502228 0.0063,0.0083 c 2.714742,4.424413 5.893687,7.932856 11.499322,7.932856 6.39312,0 11.590509,-5.124857 11.590509,-11.43094 0,-6.339238 -5.164232,-11.430937 -11.590509,-11.430937 -3.744688,0 -6.1548,1.338721 -8.330739,3.568541 -1.775983,1.815355 -3.419337,4.677236 -4.869962,7.246917 l -0.111905,0.198945 0.04144,0.223808 c 0.09739,0.48907 0.428973,1.199876 0.75847,1.842298 0.344007,0.669361 0.733603,1.357372 1.003005,1.82986 z"
     fill="#44ab4f"
     id="path6"
     style="stroke-width:2.07233" />
  <path
     d="m 15.283596,28.000131 h 2.532379 v 3.74469 H 21.6104 v 2.493005 h -3.794425 v 3.742617 h -2.532379 v -3.740544 h -3.794425 v -2.495078 h 3.794425 z"
     fill="#44ab4f"
     id="path8"
     style="stroke-width:2.07233" />
</svg>
