<?xml version="1.0" encoding="utf-8"?>
<!-- Generator: Adobe Illustrator 26.0.2, SVG Export Plug-In . SVG Version: 6.00 Build 0)  -->
<svg version="1.1" id="Слой_2_00000182509644924874614760000000818274322039906728_"
	 xmlns="http://www.w3.org/2000/svg" xmlns:xlink="http://www.w3.org/1999/xlink" x="0px" y="0px" viewBox="0 0 1565.8 1566.1"
	 style="enable-background:new 0 0 1565.8 1566.1;" xml:space="preserve">
<style type="text/css">
	.st0{fill:url(#SVGID_1_);}
	.st1{fill:url(#SVGID_00000031186852730450674720000015634457351243346104_);}
	.st2{fill:url(#SVGID_00000119809173978812072550000016710538667267798925_);}
	.st3{fill:url(#SVGID_00000072991828544829929130000006188259063730541220_);}
	.st4{fill:#020203;}
	.st5{fill:url(#SVGID_00000115474040886702098070000008180399369739518353_);}
	.st6{fill:url(#SVGID_00000123418934068706203390000003145710160519209914_);}
	.st7{fill:url(#SVGID_00000004508249144256186090000010701475406602379439_);}
	.st8{display:none;}
	.st9{display:inline;}
</style>
<linearGradient id="SVGID_1_" gradientUnits="userSpaceOnUse" x1="701.8444" y1="154.1396" x2="1428.9155" y2="815.848" gradientTransform="matrix(1 0 0 -1 0 1573)">
	<stop  offset="0" style="stop-color:#5658D6"/>
	<stop  offset="0.5244" style="stop-color:#654FD4"/>
	<stop  offset="1" style="stop-color:#7F65E5"/>
</linearGradient>
<path class="st0" d="M802,1564.8V826.6l763.8,0.6c-4.3,69.2-16.8,125.6-16.8,125.6c-21.5,99-61.6,191.7-119,275.7
	s-129.3,154.9-213.7,210.9c-87.4,58-184.3,97.3-288.3,116.8C928.1,1556.2,829.6,1569.3,802,1564.8z"/>
<radialGradient id="SVGID_00000106142600923099885320000017849992791210650259_" cx="1320.2745" cy="1162.2516" r="647.9388" fx="1400.1599" fy="1144.8422" gradientTransform="matrix(0.9884 0.1522 0.223 -1.4488 -243.7776 1893.7288)" gradientUnits="userSpaceOnUse">
	<stop  offset="7.778874e-02" style="stop-color:#985AE6"/>
	<stop  offset="0.3142" style="stop-color:#8E5EE5"/>
	<stop  offset="0.7179" style="stop-color:#726AE3"/>
	<stop  offset="0.8998" style="stop-color:#6470E2"/>
</radialGradient>
<path style="fill:url(#SVGID_00000106142600923099885320000017849992791210650259_);" d="M1553.1,641.8
	c-18.4-104.1-62-203.9-120-291.2c-56-84.4-127-156.3-210.9-213.7s-176.7-97.4-275.7-119C891.7,6,836.4,0,780.8,0.1v827.1h784.9
	l-0.7-85.1C1565.1,742.2,1561.2,687.6,1553.1,641.8z"/>
<radialGradient id="SVGID_00000078035941631353700000000014587386092374429113_" cx="390.433" cy="1159.379" r="646.3354" fx="609.7401" fy="1037.5563" gradientTransform="matrix(-0.9976 -6.929979e-02 0.1461 -2.1032 610.5513 2879.0122)" gradientUnits="userSpaceOnUse">
	<stop  offset="0.2705" style="stop-color:#48B2F7"/>
	<stop  offset="0.3757" style="stop-color:#4CA8F4"/>
	<stop  offset="0.5552" style="stop-color:#588CEB"/>
	<stop  offset="0.7094" style="stop-color:#6470E2"/>
</radialGradient>
<path style="fill:url(#SVGID_00000078035941631353700000000014587386092374429113_);" d="M0,740.8v-10.5c2.1-30.5,6-61,11.8-91.5
	c19.5-103.9,58.8-200.9,116.8-288.3c56-84.4,127-156.3,210.9-213.7s176.7-97.4,275.7-119C670,5.9,725.3-0.1,780.9,0v827.1H0L0,740.8
	L0,740.8z"/>
<linearGradient id="SVGID_00000070101622977687372530000011222230735058737560_" gradientUnits="userSpaceOnUse" x1="150.4675" y1="859.3988" x2="857.0353" y2="152" gradientTransform="matrix(1 0 0 -1 0 1573)">
	<stop  offset="4.969956e-02" style="stop-color:#598BEB"/>
	<stop  offset="0.3263" style="stop-color:#5881E7"/>
	<stop  offset="0.7988" style="stop-color:#5765DC"/>
	<stop  offset="0.9975" style="stop-color:#5658D6"/>
</linearGradient>
<path style="fill:url(#SVGID_00000070101622977687372530000011222230735058737560_);" d="M808.9,827.2H0.2
	c2,33.4,6.1,66.8,12.3,100.1C32,1031.2,71.2,1128.2,129,1215.6c55.9,84.4,126.7,156.3,210.4,213.7s176.3,97.4,275,119
	c54.5,11.9,109.6,17.8,164.9,17.8c9.8,0,19.7-0.2,29.5-0.6L808.9,827.2L808.9,827.2z"/>
<circle class="st4" cx="783.4" cy="782.6" r="737.8"/>
<linearGradient id="SVGID_00000173843410973156959750000011053964269801387419_" gradientUnits="userSpaceOnUse" x1="108.8766" y1="791.3624" x2="1514.0122" y2="778.347" gradientTransform="matrix(1 0 0 -1 0 1573)">
	<stop  offset="0.2073" style="stop-color:#45B9FA"/>
	<stop  offset="0.2125" style="stop-color:#46B8FA"/>
	<stop  offset="0.4313" style="stop-color:#657BEB"/>
	<stop  offset="0.6393" style="stop-color:#6C6AE3"/>
	<stop  offset="0.6628" style="stop-color:#6B66E1"/>
	<stop  offset="0.7763" style="stop-color:#6857D8"/>
</linearGradient>
<path style="fill:url(#SVGID_00000173843410973156959750000011053964269801387419_);" d="M783.7,634.4L554,346.5
	c-7.6-9.5-19.1-15-31.3-15.1l-225-0.1l364.4,455.4l121.6,152l232.6,290.7c7.7,9.6,19.3,15.1,31.6,15l221.2-2L905.4,786.8
	L783.7,634.4z"/>
<linearGradient id="SVGID_00000031888273761362141480000008722474732661584783_" gradientUnits="userSpaceOnUse" x1="867.988" y1="912.5967" x2="1158.2397" y2="1211.1069" gradientTransform="matrix(1 0 0 -1 0 1573)">
	<stop  offset="0" style="stop-color:#8573EC"/>
	<stop  offset="6.628317e-02" style="stop-color:#8973ED"/>
	<stop  offset="1" style="stop-color:#C672F8"/>
</linearGradient>
<path style="fill:url(#SVGID_00000031888273761362141480000008722474732661584783_);" d="M908.8,746.6c4.1,4.8,18.3,3.5,22.3-1.3
	l344.2-414.9l-216.4,0.1c-11.7,0-22.8,5.5-30.1,15.1L811.5,613.4c-3.5,4.3-3.4,10.5,0.2,14.8L908.8,746.6z"/>
<linearGradient id="SVGID_00000043430617787710021720000013708753081893553316_" gradientUnits="userSpaceOnUse" x1="307.4692" y1="551.8823" x2="847.2184" y2="521.9832" gradientTransform="matrix(1 0 0 -1 0 1573)">
	<stop  offset="7.949257e-02" style="stop-color:#4E99EE"/>
	<stop  offset="0.3283" style="stop-color:#5095ED"/>
	<stop  offset="0.5944" style="stop-color:#5788EA"/>
	<stop  offset="0.7464" style="stop-color:#5C7DE7"/>
</linearGradient>
<path style="fill:url(#SVGID_00000043430617787710021720000013708753081893553316_);" d="M640.7,820c-6.3-7.6-18-7.7-24.4-0.1
	l-355.6,423.3l216.4-0.3c11.8,0.1,26.5-9.1,33.9-18.6l223.9-269.6c3.4-4.2,6.6-12.7,3.2-16.9L640.7,820z"/>
<g class="st8">
	<g class="st9">
		<g>
			<defs>
				<path id="SVGID_00000170970058737440387230000016465417340749747353_" d="M908.8,746.6c4.1,4.8,18.3,3.5,22.3-1.3l344.2-414.9
					l-216.4,0.1c-11.7,0-22.8,5.5-30.1,15.1L811.5,613.4c-3.5,4.3-3.4,10.5,0.2,14.8L908.8,746.6z"/>
			</defs>
			<clipPath id="SVGID_00000006693669665619052270000000493638342218472628_">
				<use xlink:href="#SVGID_00000170970058737440387230000016465417340749747353_"  style="overflow:visible;"/>
			</clipPath>
		</g>
	</g>
</g>
<g class="st8">
	<g class="st9">
		<g>
			<defs>
				<path id="SVGID_00000181077049005006267480000010347515367416978623_" d="M781.8,634.4L552.1,346.5c-7.6-9.5-19.1-15-31.3-15.1
					l-225-0.1l364.4,455.4l121.6,152l232.6,290.8c7.7,9.6,19.3,15.1,31.6,15l221.2-2L903.4,786.8L781.8,634.4z"/>
			</defs>
			<clipPath id="SVGID_00000122679843842931916050000008521541671372114326_">
				<use xlink:href="#SVGID_00000181077049005006267480000010347515367416978623_"  style="overflow:visible;"/>
			</clipPath>
		</g>
	</g>
</g>
<g class="st8">
	<g class="st9">
		<g>
			<defs>
				<path id="SVGID_00000047752376797764516420000000429535813851583901_" d="M640.7,820c-6.3-7.6-18-7.7-24.4-0.1l-355.6,423.3
					l216.4-0.3c11.8,0.1,26.5-9.1,33.9-18.6l223.9-269.6c3.4-4.2,6.6-12.7,3.2-16.9L640.7,820z"/>
			</defs>
			<clipPath id="SVGID_00000058565975811381545690000014349712560960434830_">
				<use xlink:href="#SVGID_00000047752376797764516420000000429535813851583901_"  style="overflow:visible;"/>
			</clipPath>
		</g>
	</g>
</g>
</svg>
