<?xml version="1.0" encoding="UTF-8" standalone="no"?>
<svg
   width="256"
   height="256"
   version="1.1"
   id="svg8"
   sodipodi:docname="goodgame-icon.svg"
   inkscape:version="1.1.2 (b8e25be833, 2022-02-05)"
   xmlns:inkscape="http://www.inkscape.org/namespaces/inkscape"
   xmlns:sodipodi="http://sodipodi.sourceforge.net/DTD/sodipodi-0.dtd"
   xmlns="http://www.w3.org/2000/svg"
   xmlns:svg="http://www.w3.org/2000/svg">
  <sodipodi:namedview
     id="namedview6"
     pagecolor="#ffffff"
     bordercolor="#111111"
     borderopacity="1"
     inkscape:pageshadow="0"
     inkscape:pageopacity="0"
     inkscape:pagecheckerboard="1"
     showgrid="false"
     inkscape:zoom="2.2041844"
     inkscape:cx="154.02522"
     inkscape:cy="110.01802"
     inkscape:window-width="1920"
     inkscape:window-height="991"
     inkscape:window-x="-9"
     inkscape:window-y="-9"
     inkscape:window-maximized="1"
     inkscape:current-layer="svg8" />
  <!-- Generator: Sketch 40 (33762) - http://www.bohemiancoding.com/sketch -->
  <desc
     id="desc2">Created with Sketch.</desc>
  <defs
     id="defs4" />
  <path
     d="m 201.18485,123.7123 h -71.91884 v 47.44918 h 58.58601 C 169.49978,196.71608 134.8475,209.72212 99.058021,195.00372 83.036801,188.37989 70.262148,175.72262 63.49073,159.76323 41.609207,107.1639 79.568553,56.747509 129.26601,56.747509 c 2.27443,0 4.54885,0.104572 6.83634,0.339856 0.45751,0 0.915,0.104573 1.35943,0.104573 0.45749,0 0.79734,0.130713 1.25484,0.130713 0.4575,0.104572 0.91502,0.104572 1.37252,0.222214 0.45749,0.104572 0.79735,0.104572 1.25483,0.222213 0.45751,0.117644 0.91501,0.117644 1.37252,0.235286 0.44442,0.104572 0.78428,0.104572 1.1372,0.222214 0.4575,0.117644 0.91502,0.222214 1.35943,0.222214 0.36992,0.133851 0.75749,0.213116 1.15028,0.235285 0.44442,0.117643 0.91501,0.222215 1.25486,0.339856 0.33986,0.117644 0.78429,0.235287 1.13721,0.339858 0.4575,0.117642 0.78428,0.235284 1.25486,0.339856 0.33986,0.130714 0.78428,0.235284 1.13721,0.352928 0.43514,0.101434 0.85644,0.255087 1.25484,0.457499 l 1.13724,0.339855 c 0.45748,0.104571 0.79734,0.339858 1.25483,0.457499 0.33986,0.104571 0.78429,0.339856 1.13722,0.457499 0.4575,0.104571 0.79735,0.339857 1.25484,0.444429 0.33986,0.130713 0.79736,0.352926 1.13721,0.457499 0.33986,0.235285 0.79736,0.352926 1.13722,0.575141 0.35294,0.117643 0.69279,0.339855 1.15029,0.457499 0.33985,0.222214 0.78428,0.339856 1.13722,0.575142 0.33986,0.222212 0.6797,0.339857 1.01955,0.56207 0.35882,0.237519 0.74508,0.430649 1.15029,0.575141 0.33985,0.222213 0.67972,0.339856 1.01958,0.562071 0.33985,0.235285 0.79735,0.457498 1.1372,0.692783 0.33985,0.222215 0.69279,0.457499 1.03265,0.562071 3.75149,2.287494 7.18926,4.914847 10.48326,7.882055 l 36.59991,-36.626062 c -4.57954,-4.297246 -9.45875,-8.263518 -14.60074,-11.868833 -0.22223,-0.222214 -0.57515,-0.339856 -0.91502,-0.56207 -0.79303,-0.597194 -1.63222,-1.130441 -2.5097,-1.59471 -0.45749,-0.352928 -0.91499,-0.575142 -1.47706,-0.914999 -0.79736,-0.575141 -1.69929,-1.032641 -2.50971,-1.594711 -0.45751,-0.235285 -0.91501,-0.575142 -1.47706,-0.797355 -0.915,-0.457498 -1.71235,-1.03264 -2.61429,-1.49014 l -1.37249,-0.679712 c -0.91501,-0.457499 -1.83,-1.032642 -2.745,-1.490141 -0.4575,-0.222213 -0.78428,-0.457499 -1.25486,-0.56207 -1.01955,-0.457498 -2.05221,-0.914997 -2.95414,-1.372497 -2.61428,-1.137212 -5.01941,-2.169852 -7.41146,-3.084851 -0.33987,-0.117643 -0.79736,-0.339857 -1.13722,-0.457499 -0.79736,-0.339856 -1.71236,-0.56207 -2.61429,-0.914998 l -2.06528,-0.679713 -2.39205,-0.6797123 -2.26137,-0.6927844 c -0.79735,-0.2222136 -1.60777,-0.4574988 -2.40514,-0.56207 -0.78429,-0.2352853 -1.59472,-0.4574991 -2.39206,-0.5751416 -0.78429,-0.2222138 -1.59471,-0.3398566 -2.27443,-0.457499 -0.79735,-0.2222138 -1.69929,-0.3398565 -2.5097,-0.4574991 -0.76821,-0.097708 -1.52824,-0.2506049 -2.27443,-0.457499 -0.915,-0.1045711 -1.71234,-0.3398564 -2.61428,-0.457499 -0.81043,-0.1045711 -1.49014,-0.2222138 -2.28749,-0.3398563 -0.91499,-0.1045712 -1.83,-0.2222138 -2.61428,-0.3398565 -0.81042,-0.1176426 -1.49015,-0.1176426 -2.2875,-0.2222138 -0.915,-0.130714 -1.82999,-0.130714 -2.74499,-0.2352851 -0.44444,0 -0.91499,-0.1176426 -1.35942,-0.1176426 -2.61428,-0.1045712 -4.78414,-0.2222138 -6.95398,-0.2222138 -83.21254,0 -147.393114,82.1406775 -115.694968,169.9804955 11.960331,33.31899 38.7567,59.21345 72.154127,70.72935 71.356771,24.41738 138.491471,-14.24783 160.150781,-74.61155 4.56193,-12.65312 3.64693,-18.13002 3.86914,-32.28636 V 123.7123 h -48.44261 z"
     fill="#52709c"
     fill-rule="evenodd"
     id="path6"
     style="fill:#52709c;fill-opacity:1;stroke-width:13.0714" />
</svg>
