<?xml version="1.0" encoding="UTF-8" standalone="no"?>
<!-- Created with Inkscape (http://www.inkscape.org/) -->

<svg
   width="264.58334mm"
   height="264.58334mm"
   viewBox="0 0 264.58334 264.58334"
   version="1.1"
   id="svg5"
   xmlns="http://www.w3.org/2000/svg"
   xmlns:svg="http://www.w3.org/2000/svg">
  <defs
     id="defs2" />
  <g
     id="layer1"
     transform="translate(-2.3146465,46.042583)">
    <rect
       style="fill:#53fc19;fill-opacity:1;fill-rule:evenodd;stroke-width:3.79715;stroke-linecap:round;stroke-linejoin:round"
       id="rect2735"
       width="264.58334"
       height="264.58334"
       x="2.3146465"
       y="-46.042583" />
    <path
       style="fill:#000000;stroke-width:0.264583"
       d="M 2.3146465,86.249087 V -46.042583 H 134.60632 266.89799 V 86.249087 218.54076 H 134.60632 2.3146465 Z M 113.43965,160.06784 v -21.16667 h 10.71562 10.71563 v 10.58334 10.58333 h 10.45104 10.45104 v 10.58333 10.58334 h 31.61771 31.61771 V 149.6168 117.99909 H 208.42507 197.84173 V 107.41575 96.832421 H 187.2584 176.67507 V 86.249087 75.665753 h 10.58333 10.58333 V 65.08242 54.499086 h 10.58334 10.58333 V 22.880303 -8.7384831 l -31.55156,0.067223 -31.55156,0.06722 -0.0692,10.5171878 -0.0692,10.5171873 h -10.448 -10.44801 v 10.583334 10.583333 h -10.7156 -10.71562 V 12.430335 -8.7363321 H 81.82194 50.204231 V 86.249087 181.23451 h 31.617709 31.61771 z"
       id="path836" />
  </g>
</svg>
