<svg xmlns:xlink="http://www.w3.org/1999/xlink" width="128" height="128" viewBox="0 0 24 24" fill="none" xmlns="http://www.w3.org/2000/svg"><rect width="24" height="24" rx="5" fill="#FF5A12"></rect><path d="M18.3613 11.3326C18.0855 10.9715 17.7303 8.78499 17.6425 8.22297C17.6328 8.16069 17.625 8.09877 17.6176 8.03649C17.5935 7.83037 17.443 7.09782 16.5088 6.74859C16.1095 6.59919 15.7925 6.11762 15.6754 5.91854C15.6509 5.87739 15.6754 5.82438 15.7228 5.81622C16.1492 5.74208 17.8423 5.36764 17.7203 4.12535C17.5983 2.87934 16.8917 2.92457 16.6641 3.07656C16.2226 3.37092 15.543 4.67068 15.1286 4.97208C15.0997 4.99321 15.0592 4.98802 15.0363 4.96022C14.8769 4.7667 14.1636 4.04304 12.4145 4.04304C10.6654 4.04304 9.97513 4.77819 9.83166 4.98394C9.81016 5.01471 9.76826 5.02287 9.73749 5.00174C9.30894 4.70887 8.60567 3.37055 8.16488 3.07656C7.93725 2.92494 7.23065 2.87934 7.10868 4.12535C6.98597 5.37617 8.70317 5.7469 9.11467 5.8177C9.15953 5.82549 9.18437 5.87368 9.16472 5.91483C9.07204 6.10724 8.81031 6.57621 8.41178 6.71078C7.51463 7.01403 7.35484 7.76994 7.32667 8.01425C7.31777 8.09136 7.30406 8.16773 7.28737 8.24336C7.15206 8.85765 6.64046 11.1372 6.46881 11.333C5.61133 12.3102 5 13.5199 5 15.2037C5 17.2112 5.74256 18.6162 6.95817 19.5397C8.31317 20.5688 10.2561 21 12.4145 21C16.5095 21 19.829 19.4485 19.829 15.2037C19.829 13.5199 19.2829 12.249 18.3609 11.3326H18.3613ZM13.1185 6.43014C14.0568 5.64013 15.02 6.07907 15.3985 6.42162C15.5497 6.55878 15.5616 6.79234 15.4244 6.9436C15.288 7.09411 15.0555 7.10634 14.9043 6.9714C14.8383 6.91394 14.2563 6.43867 13.5949 6.99587C13.5256 7.05444 13.441 7.08299 13.3569 7.08299C13.2516 7.08299 13.1471 7.03813 13.074 6.95138C12.9424 6.79531 12.9624 6.56212 13.1185 6.43051V6.43014ZM11.7557 6.95101C11.6827 7.03776 11.5781 7.08262 11.4729 7.08262C11.3887 7.08262 11.3042 7.05407 11.2348 6.9955C10.5505 6.41902 9.95251 6.94656 9.92767 6.96955C9.77642 7.10672 9.54249 7.09485 9.40569 6.9436C9.26853 6.79234 9.28039 6.55841 9.43165 6.42162C9.81016 6.07907 10.7733 5.64013 11.7116 6.43014C11.8677 6.56175 11.8877 6.79494 11.7561 6.95101H11.7557ZM9.57437 16.5943C9.27186 16.7689 8.81068 16.5365 8.5445 16.0753C8.27832 15.6141 8.30761 15.0984 8.61012 14.9238C8.91263 14.7492 9.37381 14.9817 9.63999 15.4428C9.90617 15.904 9.87689 16.4197 9.57437 16.5943ZM15.1897 15.4428C15.4559 14.9817 15.9171 14.7492 16.2196 14.9238C16.5221 15.0984 16.5514 15.6141 16.2852 16.0753C16.0191 16.5365 15.5579 16.7689 15.2554 16.5943C14.9528 16.4197 14.9236 15.904 15.1897 15.4428ZM14.7964 19.6068C14.0698 19.777 13.3687 19.8241 12.8152 19.8241C12.1554 19.8241 11.7053 19.757 11.6719 19.7518C11.4703 19.7206 11.3316 19.5319 11.3628 19.3303C11.3939 19.1286 11.5826 18.9899 11.7843 19.0211C11.8121 19.0251 13.1986 19.2261 14.647 18.8824C16.5232 18.4372 17.6276 17.3157 17.9298 15.5496C17.9642 15.3483 18.1552 15.213 18.3565 15.2475C18.5578 15.2819 18.6931 15.4729 18.6586 15.6742C18.3057 17.7376 16.9703 19.0974 14.7968 19.6064L14.7964 19.6068Z" fill="#FFFFFF"></path><path d="M19.0868 8.09131H5.74295C5.56982 8.09131 5.42969 8.23181 5.42969 8.40457V8.50281C5.42969 8.67335 5.56574 8.81163 5.73479 8.8157C5.73442 9.30135 5.73553 9.86448 5.73628 10.141C5.73702 10.375 5.76445 10.6056 5.86566 10.8187C6.01024 11.1242 6.25677 11.297 6.57671 11.3585C6.70795 11.3837 6.84326 11.3967 6.97635 11.3971C8.23793 11.4 9.61851 11.3982 10.8801 11.3993C11.0699 11.3993 11.2571 11.3811 11.4362 11.3159C11.8024 11.1832 12.0108 10.9096 12.0805 10.5247C12.1053 10.3883 12.1157 10.2474 12.1172 10.1084C12.1202 9.83779 12.1202 9.29394 12.1198 8.81608H12.7133C12.7129 9.29394 12.7133 9.83779 12.7159 10.1084C12.7174 10.2474 12.7278 10.3883 12.7526 10.5247C12.8223 10.9096 13.0307 11.1832 13.3969 11.3159C13.5764 11.3807 13.7632 11.3993 13.953 11.3993C15.2146 11.3985 16.5915 11.4 17.853 11.3971C17.9865 11.3971 18.1218 11.3837 18.2527 11.3585C18.5726 11.2966 18.8188 11.1238 18.9637 10.8187C19.0649 10.6056 19.0924 10.3753 19.0931 10.141C19.0939 9.86411 19.095 9.30135 19.0946 8.8157C19.264 8.81126 19.3997 8.67298 19.3997 8.50281V8.40457C19.3997 8.23144 19.2596 8.09131 19.0864 8.09131H19.0868Z" fill="black"></path></svg>