<?xml version="1.0" encoding="UTF-8" standalone="no"?>
<svg
   width="256"
   height="256"
   version="1.1"
   id="svg3"
   sodipodi:docname="niconicolive-icon.svg"
   inkscape:version="1.4 (86a8ad7, 2024-10-11)"
   xmlns:inkscape="http://www.inkscape.org/namespaces/inkscape"
   xmlns:sodipodi="http://sodipodi.sourceforge.net/DTD/sodipodi-0.dtd"
   xmlns="http://www.w3.org/2000/svg"
   xmlns:svg="http://www.w3.org/2000/svg">
  <defs
     id="defs3" />
  <sodipodi:namedview
     id="namedview3"
     pagecolor="#ffffff"
     bordercolor="#111111"
     borderopacity="1"
     inkscape:showpageshadow="0"
     inkscape:pageopacity="0"
     inkscape:pagecheckerboard="1"
     inkscape:deskcolor="#d1d1d1"
     inkscape:zoom="1"
     inkscape:cx="-51"
     inkscape:cy="192.5"
     inkscape:window-width="2560"
     inkscape:window-height="1351"
     inkscape:window-x="-9"
     inkscape:window-y="-9"
     inkscape:window-maximized="1"
     inkscape:current-layer="svg3"
     showgrid="true">
    <inkscape:grid
       id="grid1"
       units="px"
       originx="0"
       originy="0"
       spacingx="136"
       spacingy="1"
       empcolor="#0099e5"
       empopacity="0.30196078"
       color="#0099e5"
       opacity="0.14901961"
       empspacing="5"
       enabled="true"
       visible="true" />
  </sodipodi:namedview>
  <path
     d="m 0.15011846,123.02021 c 0,-57.970129 0,-86.880129 18.06863354,-104.951578 C 36.136327,0 65.197385,0 123.02021,0 h 10.23901 c 57.97012,0 86.88011,0 104.80145,18.068632 17.91757,17.917578 17.91757,46.978635 17.91757,104.801448 v 10.23902 c 0,57.97012 0,86.88012 -17.91757,104.80144 -17.91758,17.91759 -46.97863,17.91759 -104.80145,17.91759 h -10.23901 c -57.970129,0 -86.880129,0 -104.951578,-17.91759 C 0,219.99297 0,190.93192 0,133.1091 Z"
     fill="#ffffff"
     id="path1"
     style="fill:#ffffff;fill-opacity:1;stroke-width:0.938241" />
  <path
     d="m 73.920313,236.03935 c -5.265656,-1.86158 -8.722905,-6.80811 -8.722905,-12.3929 0,-5.37203 2.393481,-9.36116 7.180442,-11.91421 2.127537,-1.17014 2.180726,-1.17014 51.32686,-1.43607 33.50871,-0.21277 49.73121,-0.47871 50.79498,-0.85103 12.55245,-4.52102 21.80725,-19.41378 23.77521,-38.29568 1.17016,-11.22277 -0.74462,-21.91364 -5.63797,-31.91305 -4.73377,-9.52075 -11.11638,-15.53104 -18.66915,-17.49903 -2.7126,-0.69144 -9.52072,-0.79783 -50.15669,-0.79783 -32.285396,0 -47.65686,-0.15956 -48.986573,-0.58506 -2.872176,-0.851 -5.957106,-3.19131 -7.765514,-5.79755 -1.329709,-2.02115 -1.595653,-3.03172 -1.808407,-6.27624 -0.212752,-5.05289 0.797826,-7.76549 4.1487,-10.90361 4.255076,-3.989136 4.999713,-4.095516 28.881334,-4.095516 h 20.63712 v -7.871886 l -1.91479,-0.638261 c -3.08492,-1.06377 -9.52073,-5.691165 -12.71203,-9.201602 -3.29768,-3.616815 -6.70175,-9.999428 -7.97828,-14.999145 -0.47869,-1.755219 -0.85102,-5.47841 -0.85102,-8.244209 -0.10637,-16.43523 9.36119,-29.360022 25.37089,-34.678867 2.92538,-0.957394 4.89334,-1.170147 9.78668,-1.223334 10.47813,0 17.81813,3.08493 25.3709,10.637689 3.40405,3.457249 4.78694,5.318846 6.48897,8.88247 5.10611,10.478125 5.05292,21.91364 -0.10635,32.179013 -3.61683,7.074064 -8.7761,12.126966 -16.22249,15.796969 l -3.82956,1.914785 v 7.446378 h 14.04175 c 16.16929,0 20.37117,0.425508 27.6048,2.872183 6.96768,2.393483 12.87161,6.010293 18.66914,11.541873 10.69089,10.15899 17.499,23.03061 21.169,39.89135 1.01058,4.73377 1.17016,7.23363 1.17016,16.96711 0.0532,13.13755 -0.63827,18.13725 -3.93596,28.18988 -7.18044,22.07321 -21.43493,37.01916 -40.68915,42.76352 -3.67002,1.06377 -4.73377,1.11695 -53.98628,1.22332 -43.135837,0.0532 -50.58222,0 -52.443817,-0.69146 z M 136.84224,64.134307 c 4.09551,-2.127538 7.60596,-7.659136 7.60596,-12.073779 0,-4.414638 -3.45725,-9.893048 -7.65914,-12.126965 -3.03175,-1.595653 -8.77609,-1.595653 -11.80783,0 -4.20188,2.233917 -7.65913,7.712327 -7.65913,12.126965 0,4.095512 3.51042,9.946241 7.12724,11.807837 3.82959,2.021161 8.72291,2.127539 12.3929,0.265942 z"
     id="path1-0"
     style="stroke-width:0.531885" />
  <path
     d="m 113.06703,193.80774 c -0.58507,-0.58508 -1.06379,-1.4361 -1.06379,-1.8616 0,-0.79783 4.89335,-6.59536 11.38234,-13.40349 3.03174,-3.24449 3.93594,-3.88276 5.31885,-3.88276 0.90419,0 1.91477,0.21276 2.2339,0.42551 1.17015,0.74465 13.61625,14.78639 14.14814,15.90335 0.42551,0.90422 0.37231,1.48928 -0.31914,2.55305 l -0.85101,1.3297 h -14.89277 c -14.20133,0 -14.94595,-0.0532 -15.95652,-1.06376 z M 83.547423,172.85148 c -1.436087,-0.69144 -3.297683,-1.91478 -4.09551,-2.76578 -5.15928,-5.53161 -3.935947,-15.15872 2.446669,-19.09466 2.39348,-1.43608 3.08493,-1.59566 6.914498,-1.59566 3.82957,0 4.574209,0.15958 6.54218,1.48927 7.18045,4.89335 7.81871,14.57365 1.22333,20.15844 -3.776374,3.29767 -8.563337,3.93594 -13.031167,1.80839 z m 78.399787,-11.64825 c -4.36147,-2.3403 -7.23365,-7.65915 -6.70175,-12.33975 0.95738,-8.61651 9.94623,-13.77579 17.71175,-10.15898 9.57392,4.46783 9.57392,18.29684 -0.0532,22.71148 -3.13812,1.43607 -7.97828,1.32971 -10.95681,-0.21275 z"
     id="path2"
     style="stroke-width:0.531885" />
</svg>
