<?xml version="1.0" encoding="UTF-8" standalone="no"?>
<svg
   width="202.07161"
   height="201.88861"
   version="1.1"
   id="svg3"
   sodipodi:docname="niconico-icon.svg"
   inkscape:version="1.4 (86a8ad7, 2024-10-11)"
   xml:space="preserve"
   xmlns:inkscape="http://www.inkscape.org/namespaces/inkscape"
   xmlns:sodipodi="http://sodipodi.sourceforge.net/DTD/sodipodi-0.dtd"
   xmlns="http://www.w3.org/2000/svg"
   xmlns:svg="http://www.w3.org/2000/svg"><defs
     id="defs3"><inkscape:path-effect
       effect="fillet_chamfer"
       id="path-effect1"
       is_visible="true"
       lpeversion="1"
       nodesatellites_param="F,0,0,1,0,6.1032388,0,1 @ F,0,0,1,0,6.1032388,0,1 @ F,0,0,1,0,6.1032388,0,1 @ F,0,0,1,0,6.1032388,0,1"
       radius="72"
       unit="px"
       method="auto"
       mode="F"
       chamfer_steps="1"
       flexible="false"
       use_knot_distance="true"
       apply_no_radius="true"
       apply_with_radius="true"
       only_selected="false"
       hide_knots="false" /></defs><sodipodi:namedview
     id="namedview3"
     pagecolor="#ffffff"
     bordercolor="#111111"
     borderopacity="1"
     inkscape:showpageshadow="0"
     inkscape:pageopacity="0"
     inkscape:pagecheckerboard="1"
     inkscape:deskcolor="#d1d1d1"
     inkscape:zoom="2.7157694"
     inkscape:cx="103.46976"
     inkscape:cy="95.184812"
     inkscape:window-width="2560"
     inkscape:window-height="1351"
     inkscape:window-x="-9"
     inkscape:window-y="-9"
     inkscape:window-maximized="1"
     inkscape:current-layer="svg3"
     showgrid="true"><inkscape:grid
       id="grid1"
       units="px"
       originx="-35.798395"
       originy="-29.285167"
       spacingx="1"
       spacingy="1"
       empcolor="#0099e5"
       empopacity="0.30196078"
       color="#0099e5"
       opacity="0.14901961"
       empspacing="5"
       enabled="true"
       visible="true" /></sodipodi:namedview><g
     id="g1"
     transform="matrix(10.045957,0,0,10.045957,162.65058,-1.016856)"
     style="stroke:#ffffff;stroke-width:1.19451039;stroke-linecap:butt;stroke-dasharray:none;stroke-opacity:1;paint-order:markers stroke fill"><g
       id="tvchan_silhouette_svg__site-icon_sp"
       stroke="none"
       stroke-width="1"
       fill="none"
       fill-rule="evenodd"
       style="fill:#252525;fill-opacity:1;stroke:#ffffff;stroke-width:1.28982819;stroke-linecap:butt;stroke-dasharray:none;stroke-opacity:1;paint-order:markers stroke fill"
       transform="matrix(0.92610039,0,0,0.92610039,-16.320379,-0.03439372)"><path
         d="M 19.213,4.724 H 13.397 L 15.785,2.449 A 0.852,0.852 0 0 0 15.826,1.267 0.802,0.802 0 0 0 14.673,1.224 L 11,4.724 7.327,1.224 A 0.802,0.802 0 0 0 6.174,1.267 0.85,0.85 0 0 0 6.216,2.449 L 8.603,4.724 H 2.788 A 1.8,1.8 0 0 0 1,6.535 v 10.863 c 0,1 0.802,1.812 1.788,1.812 h 2.266 l 1.35,1.59 a 0.518,0.518 0 0 0 0.816,0 l 1.35,-1.59 h 4.86 l 1.35,1.59 a 0.518,0.518 0 0 0 0.816,0 l 1.35,-1.59 h 2.266 C 20.202,19.21 21,18.399 21,17.398 V 6.535 c 0,-1 -0.799,-1.81 -1.787,-1.81"
         id="tvchan_silhouette_svg__Fill-1"
         fill="#252525"
         style="fill:#252525;fill-opacity:1;stroke:#ffffff;stroke-width:1.28982819;stroke-linecap:butt;stroke-dasharray:none;stroke-opacity:1;paint-order:markers stroke fill" /></g></g></svg>
