<?xml version="1.0" encoding="UTF-8" standalone="no"?>
<svg
   width="272.828"
   height="272.668"
   version="1.1"
   id="svg3"
   sodipodi:docname="Logo_Odnoklassniki_full_2023.svg"
   inkscape:version="1.4 (86a8ad7, 2024-10-11)"
   xmlns:inkscape="http://www.inkscape.org/namespaces/inkscape"
   xmlns:sodipodi="http://sodipodi.sourceforge.net/DTD/sodipodi-0.dtd"
   xmlns="http://www.w3.org/2000/svg"
   xmlns:svg="http://www.w3.org/2000/svg">
  <defs
     id="defs3" />
  <sodipodi:namedview
     id="namedview3"
     pagecolor="#ffffff"
     bordercolor="#111111"
     borderopacity="1"
     inkscape:showpageshadow="0"
     inkscape:pageopacity="0"
     inkscape:pagecheckerboard="1"
     inkscape:deskcolor="#d1d1d1"
     inkscape:zoom="1.3578847"
     inkscape:cx="164.96246"
     inkscape:cy="93.896042"
     inkscape:window-width="2560"
     inkscape:window-height="1351"
     inkscape:window-x="-9"
     inkscape:window-y="-9"
     inkscape:window-maximized="1"
     inkscape:current-layer="svg3" />
  <path
     d="m 0.16,131.118 c 0,-61.786 0,-92.599 19.258,-111.86 C 38.515,0 69.489,0 131.118,0 h 10.913 c 61.786,0 92.599,0 111.7,19.258 19.097,19.097 19.097,50.071 19.097,111.7 v 10.913 c 0,61.786 0,92.599 -19.097,111.7 -19.097,19.097 -50.071,19.097 -111.7,19.097 h -10.913 c -61.786,0 -92.599,0 -111.86,-19.097 C 0,234.474 0,203.5 0,141.871 Z"
     fill="#ff7700"
     id="path1" />
  <path
     d="m 169.31,119.088 c -8.3451,8.3451 -19.9,13.481 -32.738,13.481 -12.838,0 -24.393,-5.1355 -32.738,-13.481 -8.3451,-8.3451 -13.481,-19.9 -13.481,-32.738 0,-12.838 5.1354,-24.393 13.481,-32.738 8.3451,-8.3451 19.9,-13.481 32.738,-13.481 12.838,0 24.393,5.1354 32.738,13.481 8.345,8.3456 13.481,19.9 13.481,32.738 0,12.838 -5.1354,24.393 -13.481,32.738 z M 136.572,65.487 c -5.7774,0 -11.073,2.4072 -14.764,6.0983 -3.8516,3.8516 -6.0984,8.987 -6.0984,14.764 0,5.777 2.4072,11.073 6.0984,14.764 3.8516,3.8516 8.987,6.0983 14.764,6.0983 5.777,0 11.073,-2.4072 14.764,-6.0983 3.8516,-3.8516 6.0984,-8.987 6.0984,-14.764 0,-5.777 -2.4072,-11.073 -6.0984,-14.764 -3.6911,-3.8516 -8.987,-6.0983 -14.764,-6.0983 z m 48.626,67.403 13.481,18.456 c 0.64194,0.9629 0.48145,2.2468 -0.32096,2.8887 -11.394,9.308 -24.714,15.567 -38.516,18.776 l 26.159,50.392 c 0.80241,1.4443 -0.32097,3.2096 -1.9258,3.2096 h -27.924 c -0.80242,0 -1.6048,-0.48144 -1.9258,-1.2839 l -17.653,-41.565 -17.653,41.565 c -0.32097,0.80242 -1.1234,1.2839 -1.9258,1.2839 h -28.084 c -1.6048,0 -2.7282,-1.7653 -1.9258,-3.2096 l 26.319,-50.392 c -13.802,-3.2097 -27.122,-9.4685 -38.516,-18.776 -0.80241,-0.64193 -0.9629,-1.9258 -0.32097,-2.8887 l 13.641,-18.456 c 0.80241,-0.9629 2.2468,-1.1234 3.2097,-0.32097 12.839,10.913 28.566,17.974 45.417,17.974 16.851,0 32.578,-7.0612 45.417,-17.974 0.80242,-0.96289 2.2468,-0.80241 3.0492,0.32097 z"
     fill="#ffffff"
     id="path2" />
</svg>
