<svg xmlns:xlink="http://www.w3.org/1999/xlink" width="64" height="64" viewBox="0 0 20 20" fill="none" xmlns="http://www.w3.org/2000/svg">
<g clip-path="url(#clip0_9599_244270)">
<path d="M13.1897 13.0931L4.02739 6.67773L2.01222 18.1058C1.90014 18.741 2.58123 19.2176 3.13967 18.8953L13.1894 13.0931H13.1897Z" fill="url(#paint0_linear_9599_244270)"/>
<path d="M3.52117 17.1504C3.99952 17.4855 4.65335 17.7559 5.08692 17.7712L6.44771 16.9855C6.10591 16.998 5.20595 16.6637 4.30405 16.0321C3.40214 15.4006 2.78001 14.6691 2.67517 14.3438L2.40234 15.8914C2.56504 16.2936 3.04283 16.8156 3.52117 17.1507V17.1504Z" fill="url(#paint1_linear_9599_244270)"/>
<path d="M6.50988 12.882C5.25227 12.0015 3.84977 10.6029 3.48629 9.74414L3.04688 12.236C3.44985 12.8926 4.34286 13.8601 5.33737 14.5565C6.33189 15.2529 7.54639 15.761 8.30117 15.9154L10.4924 14.6502C9.561 14.6024 7.76721 13.7628 6.5096 12.8823H6.50988V12.882Z" fill="url(#paint2_linear_9599_244270)"/>
<path d="M3.13991 18.8957L13.1896 13.0935L12.2196 12.4141L2.75195 18.9988C2.88044 19.0005 3.01337 18.9688 3.13991 18.8957Z" fill="url(#paint3_linear_9599_244270)"/>
<path d="M13.4062 12.8787C14.0895 11.9028 12.5725 9.66171 10.0179 7.87295C7.4633 6.0842 4.83847 5.42521 4.15518 6.40105C3.47189 7.37689 4.98888 9.61804 7.54348 11.4068C10.0981 13.1955 12.7229 13.8545 13.4062 12.8787Z" fill="url(#paint4_linear_9599_244270)"/>
<path d="M13.1128 12.4797C13.6883 11.6579 12.2562 9.66225 9.91428 8.02239C7.57231 6.38252 5.20726 5.71938 4.6318 6.54122C4.05635 7.36306 5.48838 9.35867 7.83035 10.9985C10.1723 12.6384 12.5374 13.3015 13.1128 12.4797Z" fill="url(#paint5_linear_9599_244270)"/>
<path d="M8.67541 1.00013C8.37477 1.00653 8.13921 1.25961 8.1534 1.55996C8.28216 4.26707 7.74096 7.1644 6.51367 9.95939C6.72921 10.1521 6.95892 10.3446 7.20116 10.5342C9.30504 6.26695 9.28836 2.46604 9.22133 1.5163C9.19909 1.20009 8.96798 0.994014 8.67541 1.00013Z" fill="url(#paint6_linear_9599_244270)"/>
<path d="M5.27013 3.53947C5.02067 3.63041 4.88968 3.90574 4.97951 4.15548C5.47092 5.52155 5.58411 7.09091 5.30934 8.69449C5.51598 8.95785 5.75849 9.22984 6.03242 9.50406C6.70072 7.01944 6.2983 4.95309 5.89393 3.83427C5.80215 3.58007 5.52404 3.44658 5.27013 3.53919V3.53947Z" fill="url(#paint7_linear_9599_244270)"/>
<path d="M11.102 6.44002C11.2333 6.15134 11.0945 5.81205 10.7983 5.69858C10.5172 5.59095 10.2015 5.72945 10.0914 6.00978C9.46537 7.60362 8.6252 9.22917 7.57812 10.8188C7.661 10.8795 7.74499 10.9398 7.83037 10.9996C7.96108 11.0911 8.09207 11.1795 8.22278 11.2649C9.38722 9.70501 10.3584 8.07502 11.1023 6.44002H11.102Z" fill="url(#paint8_linear_9599_244270)"/>
<path d="M16.0175 9.00622C16.0303 8.75314 15.8326 8.54567 15.5798 8.53066C13.8741 8.43026 10.9053 9.13499 8.74805 11.5921C8.97804 11.7286 9.20609 11.8549 9.42997 11.9703C11.1512 10.2296 13.4075 9.32994 15.5464 9.43562C15.7945 9.44786 16.0047 9.25457 16.0175 9.0065V9.00622Z" fill="url(#paint9_linear_9599_244270)"/>
<path d="M14.891 12.0271C14.972 11.7721 14.824 11.4987 14.5648 11.4319C13.0669 11.047 11.3763 11.331 9.89453 12.1965C10.2405 12.3555 10.5731 12.4862 10.886 12.5872C12.0379 12.1186 13.2507 12.031 14.3101 12.3341C14.5559 12.4045 14.8134 12.2707 14.891 12.0271Z" fill="url(#paint10_linear_9599_244270)"/>
<path d="M14.7257 5.28569L13.1914 5.41992L13.3256 6.95422L14.8599 6.81999L14.7257 5.28569Z" fill="url(#paint11_linear_9599_244270)"/>
<path d="M14.57 13.2576L14.4277 14.0645L15.2346 14.2067L15.3769 13.3999L14.57 13.2576Z" fill="url(#paint12_linear_9599_244270)"/>
<path d="M10.495 4.29069C10.6874 4.29069 10.8434 4.13467 10.8434 3.94222C10.8434 3.74977 10.6874 3.59375 10.495 3.59375C10.3025 3.59375 10.1465 3.74977 10.1465 3.94222C10.1465 4.13467 10.3025 4.29069 10.495 4.29069Z" fill="url(#paint13_linear_9599_244270)"/>
<path d="M2.75261 5.14779C3.0194 5.14779 3.23568 4.93151 3.23568 4.66471C3.23568 4.39792 3.0194 4.18164 2.75261 4.18164C2.48581 4.18164 2.26953 4.39792 2.26953 4.66471C2.26953 4.93151 2.48581 5.14779 2.75261 5.14779Z" fill="url(#paint14_linear_9599_244270)"/>
<path d="M5.74118 1.24202L5.30469 1.99805L6.06071 2.43454L6.4972 1.67851L5.74118 1.24202Z" fill="#32FFB4"/>
<path d="M12.7793 2.37163L12.5957 3.05664L13.2807 3.24019L13.4643 2.55518L12.7793 2.37163Z" fill="#32FFB4"/>
<path d="M16.6877 11.9866C16.9909 11.9866 17.2366 11.7409 17.2366 11.4377C17.2366 11.1345 16.9909 10.8887 16.6877 10.8887C16.3845 10.8887 16.1387 11.1345 16.1387 11.4377C16.1387 11.7409 16.3845 11.9866 16.6877 11.9866Z" fill="#32FFB4"/>
</g>
<defs>
<linearGradient id="paint0_linear_9599_244270" x1="8.0925" y1="16.7152" x2="1.40372" y2="3.87051" gradientUnits="userSpaceOnUse">
<stop stop-color="#00CF91"/>
<stop offset="1" stop-color="#32FFB4"/>
</linearGradient>
<linearGradient id="paint1_linear_9599_244270" x1="5.12169" y1="18.0554" x2="3.30397" y2="13.8387" gradientUnits="userSpaceOnUse">
<stop stop-color="#1E2C91"/>
<stop offset="1" stop-color="#5868E9"/>
</linearGradient>
<linearGradient id="paint2_linear_9599_244270" x1="8.18798" y1="16.7336" x2="6.37027" y2="12.5166" gradientUnits="userSpaceOnUse">
<stop stop-color="#1E2C91"/>
<stop offset="1" stop-color="#5868E9"/>
</linearGradient>
<linearGradient id="paint3_linear_9599_244270" x1="5.99108" y1="32.3511" x2="8.46291" y2="11.9936" gradientUnits="userSpaceOnUse">
<stop stop-color="#0B073F"/>
<stop offset="1" stop-color="#0B073F" stop-opacity="0"/>
</linearGradient>
<linearGradient id="paint4_linear_9599_244270" x1="10.9338" y1="19.9154" x2="8.53426" y2="8.46427" gradientUnits="userSpaceOnUse">
<stop stop-color="#00CF91"/>
<stop offset="1" stop-color="#32FFB4"/>
</linearGradient>
<linearGradient id="paint5_linear_9599_244270" x1="6.56034" y1="-7.7099" x2="9.37173" y2="13.2291" gradientUnits="userSpaceOnUse">
<stop stop-color="#0B073F"/>
<stop offset="1" stop-color="#0B073F" stop-opacity="0"/>
</linearGradient>
<linearGradient id="paint6_linear_9599_244270" x1="6.71667" y1="9.76761" x2="8.69906" y2="3.04928" gradientUnits="userSpaceOnUse">
<stop stop-color="#1E2C91" stop-opacity="0"/>
<stop offset="1" stop-color="#5868E9"/>
</linearGradient>
<linearGradient id="paint7_linear_9599_244270" x1="6.02186" y1="8.71785" x2="5.39166" y2="4.04869" gradientUnits="userSpaceOnUse">
<stop stop-color="#32FFB4" stop-opacity="0"/>
<stop offset="1" stop-color="#32FFB4"/>
</linearGradient>
<linearGradient id="paint8_linear_9599_244270" x1="8.50812" y1="10.2673" x2="10.7216" y2="6.002" gradientUnits="userSpaceOnUse">
<stop stop-color="#32FFB4" stop-opacity="0"/>
<stop offset="1" stop-color="#32FFB4"/>
</linearGradient>
<linearGradient id="paint9_linear_9599_244270" x1="9.59405" y1="10.9316" x2="14.9418" y2="9.25123" gradientUnits="userSpaceOnUse">
<stop stop-color="#32FFB4" stop-opacity="0"/>
<stop offset="1" stop-color="#32FFB4"/>
</linearGradient>
<linearGradient id="paint10_linear_9599_244270" x1="10.0425" y1="13.0199" x2="13.7747" y2="11.6386" gradientUnits="userSpaceOnUse">
<stop stop-color="#1E2C91" stop-opacity="0"/>
<stop offset="1" stop-color="#5868E9"/>
</linearGradient>
<linearGradient id="paint11_linear_9599_244270" x1="15.2476" y1="16.1037" x2="13.4717" y2="1.59119" gradientUnits="userSpaceOnUse">
<stop stop-color="#1E2C91"/>
<stop offset="1" stop-color="#5868E9"/>
</linearGradient>
<linearGradient id="paint12_linear_9599_244270" x1="15.1735" y1="15.9498" x2="13.3977" y2="1.43708" gradientUnits="userSpaceOnUse">
<stop stop-color="#1E2C91"/>
<stop offset="1" stop-color="#5868E9"/>
</linearGradient>
<linearGradient id="paint13_linear_9599_244270" x1="12.0547" y1="16.6882" x2="10.2787" y2="2.17531" gradientUnits="userSpaceOnUse">
<stop stop-color="#1E2C91"/>
<stop offset="1" stop-color="#5868E9"/>
</linearGradient>
<linearGradient id="paint14_linear_9599_244270" x1="4.36115" y1="17.8101" x2="2.58517" y2="3.29753" gradientUnits="userSpaceOnUse">
<stop stop-color="#1E2C91"/>
<stop offset="1" stop-color="#5868E9"/>
</linearGradient>
<clipPath id="clip0_9599_244270">
<rect width="15.2356" height="18" fill="white" transform="translate(2 1)"/>
</clipPath>
</defs>
</svg>
