<?xml version="1.0" encoding="UTF-8" standalone="no"?>
<!-- Created with Inkscape (http://www.inkscape.org/) -->

<svg
   width="35.32552mm"
   height="35.138248mm"
   viewBox="0 0 35.32552 35.138248"
   version="1.1"
   id="svg3240"
   xml:space="preserve"
   inkscape:version="1.2.2 (732a01da63, 2022-12-09)"
   sodipodi:docname="rutube-icon.svg"
   xmlns:inkscape="http://www.inkscape.org/namespaces/inkscape"
   xmlns:sodipodi="http://sodipodi.sourceforge.net/DTD/sodipodi-0.dtd"
   xmlns="http://www.w3.org/2000/svg"
   xmlns:svg="http://www.w3.org/2000/svg"><sodipodi:namedview
     id="namedview3242"
     pagecolor="#ffffff"
     bordercolor="#000000"
     borderopacity="0.25"
     inkscape:showpageshadow="2"
     inkscape:pageopacity="0.0"
     inkscape:pagecheckerboard="0"
     inkscape:deskcolor="#d1d1d1"
     inkscape:document-units="mm"
     showgrid="false"
     showguides="false"
     inkscape:zoom="2.8284271"
     inkscape:cx="-8.131728"
     inkscape:cy="48.790368"
     inkscape:window-width="1920"
     inkscape:window-height="1009"
     inkscape:window-x="-8"
     inkscape:window-y="-8"
     inkscape:window-maximized="1"
     inkscape:current-layer="layer1" /><defs
     id="defs3237"><clipPath
       id="clip0_519_2005"><rect
         width="132"
         height="132"
         rx="32"
         fill="white"
         id="rect6964" /></clipPath></defs><g
     inkscape:label="Слой 1"
     inkscape:groupmode="layer"
     id="layer1"
     transform="translate(-148.40657,-44.083286)"><path
       style="fill:#ed143b;fill-opacity:1;stroke:none;stroke-width:0.264583"
       d="m 166.19679,44.083864 c -3.40401,17.954757 1.52568,20.238563 17.47647,17.666154 -0.0203,-4.421422 0.45211,-9.369731 -1.26866,-13.47678 -1.57765,-3.099481 -5.15682,-4.066908 -8.43772,-4.121009 -2.57021,-0.121795 -5.20103,-0.0806 -7.77009,-0.06837 z"
       id="path3631-5"
       sodipodi:nodetypes="cccccc"
       inkscape:label="path3631-5" /><path
       style="fill:#100943;fill-opacity:1;stroke:none;stroke-width:0.264583"
       d="m 183.67358,61.744017 c -7.60502,0.08268 -14.74321,-5.454759 -16.78779,-12.739292 -0.44621,-1.532062 -0.67943,-3.322929 -0.67902,-4.918741 -4.32685,0.0091 -8.83291,-0.325663 -12.99854,1.281412 -3.10637,1.577897 -4.72611,5.155864 -4.73367,8.483777 -0.0177,3.158479 0.0319,6.154533 0.0365,9.456954 -0.16485,4.167317 -0.45104,8.818545 1.99377,12.447805 1.97943,2.887792 5.72217,3.581792 8.99639,3.450582 5.12246,-0.0343 10.24843,0.0807 15.36791,-0.0838 3.21801,-0.0914 6.2364,-1.723176 7.56311,-4.795352 1.71805,-3.970615 1.23633,-8.404179 1.24137,-12.583355 z"
       id="path3629-4"
       sodipodi:nodetypes="scccccccccss" /><path
       d="M 81.5361,62.9865 H 42.5386 V 47.5547 h 38.9975 c 2.2779,0 3.8618,0.3971 4.6567,1.0904 0.7949,0.6934 1.2873,1.9794 1.2873,3.858 v 5.541 c 0,1.9793 -0.4924,3.2653 -1.2873,3.9587 -0.7949,0.6933 -2.3788,0.9897 -4.6567,0.9897 z M 84.2115,33.0059 H 26 V 99 H 42.5386 V 77.5294 h 30.479 L 87.4801,99 H 106 L 90.0546,77.4287 c 5.8787,-0.8712 8.5184,-2.6727 10.6954,-5.6418 2.177,-2.969 3.269,-7.7159 3.269,-14.051 v -4.9483 c 0,-3.7573 -0.398,-6.7263 -1.092,-9.0019 -0.694,-2.2757 -1.88,-4.255 -3.565,-6.0329 -1.7796,-1.683 -3.7609,-2.8683 -6.1397,-3.6624 C 90.8435,33.3971 87.8716,33 84.2115,33 Z"
       fill="#ffffff"
       id="path6960"
       sodipodi:nodetypes="cccscsscccccccccccccssccccc"
       style="fill:#fffffc;fill-opacity:1"
       transform="matrix(0.26600068,0,0,0.26600068,148.5188,44.097041)" /></g></svg>
