<?xml version="1.0" encoding="UTF-8" standalone="no"?>
<svg
   width="94.787239"
   height="102.293"
   viewBox="0 0 94.787239 102.293"
   fill="none"
   version="1.1"
   id="svg38"
   sodipodi:docname="streamelements-icon.svg"
   inkscape:version="1.4 (86a8ad7, 2024-10-11)"
   xmlns:inkscape="http://www.inkscape.org/namespaces/inkscape"
   xmlns:sodipodi="http://sodipodi.sourceforge.net/DTD/sodipodi-0.dtd"
   xmlns="http://www.w3.org/2000/svg"
   xmlns:svg="http://www.w3.org/2000/svg">
  <sodipodi:namedview
     id="namedview38"
     pagecolor="#ffffff"
     bordercolor="#111111"
     borderopacity="1"
     inkscape:showpageshadow="0"
     inkscape:pageopacity="0"
     inkscape:pagecheckerboard="1"
     inkscape:deskcolor="#d1d1d1"
     inkscape:zoom="2.8284271"
     inkscape:cx="-56.922096"
     inkscape:cy="26.339728"
     inkscape:window-width="2560"
     inkscape:window-height="1351"
     inkscape:window-x="-9"
     inkscape:window-y="-9"
     inkscape:window-maximized="1"
     inkscape:current-layer="svg38" />
  <path
     d="m 59.394617,9.1364677 2.57372,5.0018073 c 17.05698,6.112397 28.776507,22.570152 28.776507,40.793198 0,23.898743 -19.450183,43.336832 -43.364219,43.336832 -23.913937,0 -43.3547242,-19.438089 -43.3547242,-43.336832 0,-18.232541 11.7195272,-34.680801 28.7765072,-40.793198 l 2.57382,-4.9923117 C 14.719798,14.546388 0.01809814,33.348468 0.01809814,54.931473 c 0,26.100734 21.25469586,47.341997 47.37202186,47.341997 26.117327,0 47.371783,-21.241263 47.371783,-47.341997 0,-21.583005 -14.701361,-40.394482 -35.367286,-45.7950053 z"
     fill="url(#paint0_linear_131_34)"
     id="path15"
     style="fill:url(#paint0_linear_131_34);stroke-width:0.999542" />
  <g
     mask="url(#mask0_131_34)"
     id="g19"
     transform="matrix(0.99954176,0,0,0.99954176,-8.9775378,-26.960284)">
    <path
       d="m 96.9739,80.8568 c -0.228,3.0766 -4.9883,15.8671 -10.8413,15.8671 -2.3754,0 -2.9074,-3.4754 -3.297,-6.0581 -1.0547,4.121 -8.3234,13.0282 -13.7108,13.0282 -9.7961,0 -12.0764,-20.6532 -12.7416,-23.4069 -0.6651,2.7442 -2.9454,23.4069 -12.7415,23.4069 -5.3874,0 -12.6561,-8.8977 -13.7108,-13.0282 -0.3896,2.5827 -0.9121,6.0581 -3.297,6.0581 -5.853,0 -10.6133,-12.7905 -10.8413,-15.8671 -1.2542,1.8517 -1.2352,9.3342 0.6271,14.1294 6.214,15.9998 21.7776,27.3658 39.954,27.3658 18.1765,0 33.7401,-11.366 39.9541,-27.3658 1.8623,-4.7952 1.8813,-12.2682 0.6271,-14.1294 z"
       fill="url(#paint1_linear_131_34)"
       id="path17"
       style="fill:url(#paint1_linear_131_34)" />
    <path
       d="m 56.3922,103.751 c 1.6153,2.962 5.1308,7.397 11.1548,7.397 6.024,0 10.7083,-6.21 12.276,-8.831 -0.5035,1.842 -1.5202,5.783 1.7578,5.783 7.5158,0 12.9507,-11.8793 12.9507,-11.8793 -5.929,15.2693 -20.7895,26.1223 -38.1393,26.1223 -17.3499,0 -32.2103,-10.853 -38.1393,-26.1223 0,0 5.4349,11.8793 12.9507,11.8793 3.2875,0 2.2613,-3.951 1.7577,-5.783 1.5678,2.621 6.1,8.831 12.2761,8.831 6.0239,0 9.53,-4.444 11.1548,-7.397 z"
       fill="url(#paint2_linear_131_34)"
       id="path18"
       style="fill:url(#paint2_linear_131_34)" />
    <path
       d="m 65.9417,117.073 c -3.6961,0 -6.5751,-1.149 -9.549,-3 -2.974,1.842 -5.853,3 -9.5491,3 -5.6344,0 -7.3447,-1.662 -9.3875,-3.181 0.057,1.937 2.0333,4.672 4.0761,5.659 4.5323,1.995 9.6251,2.792 14.8605,2.792 5.2353,0 10.3282,-0.807 14.8604,-2.792 2.0428,-0.997 4.0097,-3.722 4.0762,-5.659 -2.0429,1.519 -3.7531,3.181 -9.3876,3.181 z"
       fill="url(#paint3_linear_131_34)"
       id="path19"
       style="fill:url(#paint3_linear_131_34)" />
  </g>
  <path
     d="m 41.920028,35.171132 -5.812335,12.310056 c -0.237391,0.50307 -0.322852,1.072508 -0.227896,1.632552 l 1.842456,11.123601 c 0.05698,0.360734 0.588829,0.360734 0.645803,0 l 0.997243,-6.06482 c 0.408313,-2.515147 1.747399,-4.793103 3.75138,-6.378077 L 41.920028,35.161637 Z"
     fill="#ff4800"
     id="path20"
     style="stroke-width:0.999542" />
  <path
     d="m 52.861212,35.171132 5.812336,12.310056 c 0.23739,0.50307 0.322851,1.072508 0.227895,1.632552 l -1.842455,11.133096 c -0.05698,0.360735 -0.579335,0.360735 -0.645805,0 l -0.997242,-6.074315 c -0.408313,-2.515147 -1.747399,-4.793103 -3.75138,-6.378077 l 1.196651,-12.632807 z"
     fill="#ff4800"
     id="path21"
     style="stroke-width:0.999542" />
  <path
     d="M 55.975184,15.856287 48.007037,0.40457081 c -0.256382,-0.50296941 -0.968656,-0.50296941 -1.234634,0 L 38.804256,15.846791 c -0.332347,0.635909 -0.455791,1.366774 -0.351339,2.069052 l 4.017259,28.226859 -0.598326,2.63859 2.11793,5.808637 c 0.04748,0.13284 0.170921,0.218301 0.30386,0.218301 h 6.163674 c 0.133039,0 0.256482,-0.08546 0.303961,-0.218301 l 2.117829,-5.808637 -0.598326,-2.63859 4.017358,-28.226859 c 0.104452,-0.711774 -0.01899,-1.433143 -0.351438,-2.069052 z"
     fill="url(#paint4_linear_131_34)"
     id="path22"
     style="fill:url(#paint4_linear_131_34);stroke-width:0.999542" />
  <path
     d="m 47.114847,41.491834 -2.830203,6.994993 c -0.436799,1.082004 -0.522361,2.277956 -0.237391,3.407338 l 3.020116,12.091856 c 0.08546,0.332148 0.560343,0.332148 0.636307,0 l 3.020116,-12.091856 c 0.28487,-1.129382 0.199408,-2.325334 -0.237491,-3.407338 l -2.830103,-6.994993 c -0.104452,-0.246786 -0.455891,-0.246786 -0.550848,0 z"
     fill="#ff4800"
     id="path23"
     style="stroke-width:0.999542" />
  <defs
     id="defs38">
    <linearGradient
       id="paint0_linear_131_34"
       x1="56.393501"
       y1="9.1933804"
       x2="56.393501"
       y2="159.451"
       gradientUnits="userSpaceOnUse"
       gradientTransform="matrix(0.99954176,0,0,0.99954176,-8.9775378,-26.960284)">
      <stop
         offset="0.3"
         stop-color="#00ADFF"
         id="stop23" />
      <stop
         offset="1"
         stop-color="#1542FF"
         id="stop24" />
    </linearGradient>
    <linearGradient
       id="paint1_linear_131_34"
       x1="56.3927"
       y1="82.024803"
       x2="56.3927"
       y2="136.026"
       gradientUnits="userSpaceOnUse">
      <stop
         stop-color="#FCE3AD"
         id="stop25" />
      <stop
         offset="0.07"
         stop-color="#FCE2A4"
         id="stop26" />
      <stop
         offset="0.19"
         stop-color="#FCE08B"
         id="stop27" />
      <stop
         offset="0.33"
         stop-color="#FCDD64"
         id="stop28" />
      <stop
         offset="0.48"
         stop-color="#FCDA32"
         id="stop29" />
      <stop
         offset="0.66"
         stop-color="#F9BC22"
         id="stop30" />
      <stop
         offset="1"
         stop-color="#F57700"
         id="stop31" />
    </linearGradient>
    <linearGradient
       id="paint2_linear_131_34"
       x1="56.3922"
       y1="95.840897"
       x2="56.3922"
       y2="126.531"
       gradientUnits="userSpaceOnUse">
      <stop
         stop-color="#FCD619"
         id="stop32" />
      <stop
         offset="0.35"
         stop-color="#F9B811"
         id="stop33" />
      <stop
         offset="1"
         stop-color="#F57700"
         id="stop34" />
    </linearGradient>
    <linearGradient
       id="paint3_linear_131_34"
       x1="56.3927"
       y1="111.186"
       x2="56.3927"
       y2="125.334"
       gradientUnits="userSpaceOnUse">
      <stop
         stop-color="#F57700"
         id="stop35" />
      <stop
         offset="1"
         stop-color="#FF4800"
         id="stop36" />
    </linearGradient>
    <linearGradient
       id="paint4_linear_131_34"
       x1="56.393101"
       y1="27.007099"
       x2="56.393101"
       y2="98.375702"
       gradientUnits="userSpaceOnUse"
       gradientTransform="matrix(0.99954176,0,0,0.99954176,-8.9775378,-26.960284)">
      <stop
         stop-color="#E4E4E4"
         id="stop37" />
      <stop
         offset="0.88"
         stop-color="#B6B8B8"
         id="stop38" />
    </linearGradient>
  </defs>
</svg>
