<?xml version="1.0" encoding="UTF-8" standalone="no"?>
<svg
   class="ss-logo-mark"
   viewBox="0 0 394.99839 395"
   width="128"
   height="128"
   version="1.1"
   id="svg13"
   sodipodi:docname="streamspace-icon.svg"
   inkscape:version="1.4 (86a8ad7, 2024-10-11)"
   xmlns:inkscape="http://www.inkscape.org/namespaces/inkscape"
   xmlns:sodipodi="http://sodipodi.sourceforge.net/DTD/sodipodi-0.dtd"
   xmlns:xlink="http://www.w3.org/1999/xlink"
   xmlns="http://www.w3.org/2000/svg"
   xmlns:svg="http://www.w3.org/2000/svg">
  <sodipodi:namedview
     id="namedview13"
     pagecolor="#ffffff"
     bordercolor="#000000"
     borderopacity="0.25"
     inkscape:showpageshadow="2"
     inkscape:pageopacity="0.0"
     inkscape:pagecheckerboard="0"
     inkscape:deskcolor="#d1d1d1"
     inkscape:zoom="6.2589999"
     inkscape:cx="52.484423"
     inkscape:cy="74.372904"
     inkscape:window-width="2560"
     inkscape:window-height="1351"
     inkscape:window-x="-9"
     inkscape:window-y="-9"
     inkscape:window-maximized="1"
     inkscape:current-layer="svg13" />
  <defs
     id="defs10">
    <linearGradient
       id="sslc1m-a"
       x1="0"
       x2="1"
       y1="0"
       y2="1">
      <stop
         offset="0%"
         stop-color="#ff44a7"
         id="stop1" />
      <stop
         offset="100%"
         stop-color="#e01b7e"
         id="stop2" />
    </linearGradient>
    <linearGradient
       inkscape:collect="always"
       xlink:href="#sslc1m-a"
       id="linearGradient13"
       x1="-0.0029780632"
       y1="-0.00014401064"
       x2="382.73248"
       y2="382.73532"
       gradientTransform="matrix(0.93703609,0,0,0.9999609,19.273873,5.2614872)"
       gradientUnits="userSpaceOnUse" />
    <linearGradient
       inkscape:collect="always"
       xlink:href="#sslc1m-a"
       id="linearGradient14"
       x1="58.338432"
       y1="89.510727"
       x2="180.29016"
       y2="211.46245"
       gradientTransform="matrix(0.81243814,0,0,1.1533179,19.273873,5.2614872)"
       gradientUnits="userSpaceOnUse" />
    <linearGradient
       inkscape:collect="always"
       xlink:href="#sslc1m-a"
       id="linearGradient15"
       x1="179.92072"
       y1="95.98085"
       x2="323.01697"
       y2="239.07709"
       gradientTransform="matrix(0.91835608,0,0,1.0203009,19.273873,5.2614872)"
       gradientUnits="userSpaceOnUse" />
    <linearGradient
       inkscape:collect="always"
       xlink:href="#sslc1m-a"
       id="linearGradient16"
       x1="293.89828"
       y1="92.016724"
       x2="344.32501"
       y2="142.44344"
       gradientTransform="matrix(0.80204422,0,0,1.1682641,19.273873,5.2614872)"
       gradientUnits="userSpaceOnUse" />
  </defs>
  <path
     fill="url(#sslc1m-a)"
     d="m 217.90486,16.596619 c -2.48094,-0.03291 -4.92028,-0.0939 -7.4051,0.02711 -4.31335,0.185854 -8.54442,0.3901 -12.85196,0.733735 -47.80116,3.81871 -95.22091,22.339212 -128.137321,58.249606 a 120.63058,120.63058 0 0 0 -31.93971,88.34046 c 2.344465,50.61896 33.936668,97.45986 70.538201,130.40144 28.55951,25.702 59.84968,44.57775 95.1212,59.38796 6.23191,2.59808 45.92229,17.15176 49.89685,16.18378 1.62621,-1.36487 0.51787,-4.1033 0.393,-6.00153 -1.42487,-21.40897 8.78741,-41.52859 19.927,-59.11885 35.66839,-56.33202 95.49775,-114.49064 83.71929,-187.48269 A 109.47937,109.47937 0 0 0 329.36379,59.782406 C 300.72876,29.381795 258.56517,17.164828 217.90486,16.597587 M 208.68575,5.3970055 c 6.34032,-0.2874923 12.88972,-0.072599 19.22713,0.222637 39.29837,1.8294961 76.81174,13.7144445 106.77772,39.7291045 a 126.12875,126.12875 0 0 1 40.41347,68.568353 c 3.67157,17.74514 3.62995,32.17396 0.50336,50.09334 -1.63784,9.35463 -3.46056,17.60865 -6.66363,26.68064 -13.69509,38.80176 -39.04474,72.41706 -61.26682,106.61025 -11.64489,17.91938 -24.39232,37.93736 -28.84989,59.10046 -2.22734,8.04204 0.57788,14.74632 3.16821,22.24049 0.71438,2.0618 3.0782,6.894 1.28162,8.9016 -7.14568,3.32697 -61.61433,-13.29047 -71.4607,-16.47901 C 166.62381,355.70969 123.75649,332.63287 88.678564,299.96716 50.547608,264.45946 21.220495,218.55072 19.348408,165.19525 18.031945,127.64025 33.618477,93.931062 58.956513,66.766434 97.688591,25.231066 153.10585,7.3716996 208.68575,5.3979734"
     id="path10"
     style="fill:url(#linearGradient13);stroke-width:0.967987" />
  <path
     fill="url(#sslc1m-a)"
     d="m 99.870434,108.49927 c 41.475336,-0.48012 65.452406,49.19021 65.868626,84.54014 0.25264,21.22023 -4.4392,55.73865 -31.97455,56.10552 -36.34502,-0.17424 -62.238681,-45.2234 -66.420386,-76.3229 -3.054969,-22.70608 3.736431,-61.06645 31.542835,-64.24338 a 7.7438986,7.7438986 0 0 1 0.983475,-0.0794"
     id="path11"
     style="fill:url(#linearGradient14);stroke-width:0.967987" />
  <path
     fill="url(#sslc1m-a)"
     d="m 271.98632,103.20631 c -47.44204,3.06659 -89.54948,65.9064 -87.40249,111.14818 0.42399,8.97615 4.44306,19.93086 11.55971,25.74556 8.94227,7.47287 20.84561,9.75248 32.20495,8.93452 24.22194,-2.15473 46.82153,-15.86917 62.11284,-34.41581 15.38615,-18.65989 27.30014,-45.43443 25.22092,-70.03098 -2.0686,-24.48331 -17.5564,-41.40082 -42.33395,-41.39695 -0.45012,0 -0.90798,0.004 -1.36196,0.0155"
     id="path12"
     style="fill:url(#linearGradient15);stroke-width:0.967987" />
  <path
     fill="url(#sslc1m-a)"
     d="m 275.1284,112.76132 c -0.75987,1.13061 -1.00186,2.95623 -1.17513,4.31432 -0.9041,7.17278 -2.42385,14.20231 -9.98673,16.98818 -1.36873,0.50335 -8.56379,2.39383 -8.97325,3.39569 1.30485,2.72296 12.72421,3.19146 14.66501,8.40988 1.81788,4.89221 2.54001,14.76181 3.71224,19.86987 0.53723,2.02697 0.62726,4.51083 2.32511,5.93377 2.45868,-2.41029 4.17105,-24.07965 6.76138,-27.98935 2.06472,-3.11982 12.28473,-3.91358 12.98072,-5.91441 -0.28362,-0.85376 -0.97574,-1.12286 -1.71721,-1.52651 -2.78974,-1.52458 -10.14064,-2.90397 -11.96723,-5.72565 -2.80136,-4.31722 -3.59994,-11.52486 -5.25907,-16.4703 -0.2691,-0.79762 -0.53337,-1.14223 -1.36487,-1.28549"
     id="path13"
     style="fill:url(#linearGradient16);stroke-width:0.967987" />
</svg>
