<?xml version="1.0" encoding="UTF-8" standalone="no"?>
<svg
   viewBox="0 0 48 48"
   width="48px"
   height="48px"
   version="1.1"
   id="svg15"
   sodipodi:docname="telegram-icon.svg"
   inkscape:version="1.1.2 (b8e25be833, 2022-02-05)"
   xmlns:inkscape="http://www.inkscape.org/namespaces/inkscape"
   xmlns:sodipodi="http://sodipodi.sourceforge.net/DTD/sodipodi-0.dtd"
   xmlns="http://www.w3.org/2000/svg"
   xmlns:svg="http://www.w3.org/2000/svg">
  <defs
     id="defs19" />
  <sodipodi:namedview
     id="namedview17"
     pagecolor="#ffffff"
     bordercolor="#111111"
     borderopacity="1"
     inkscape:pageshadow="0"
     inkscape:pageopacity="0"
     inkscape:pagecheckerboard="1"
     showgrid="false"
     inkscape:zoom="8"
     inkscape:cx="12"
     inkscape:cy="9"
     inkscape:window-width="1920"
     inkscape:window-height="1009"
     inkscape:window-x="-8"
     inkscape:window-y="-8"
     inkscape:window-maximized="1"
     inkscape:current-layer="svg15" />
  <linearGradient
     id="BiF7D16UlC0RZ_VqXJHnXa"
     x1="9.858"
     x2="38.142"
     y1="9.858"
     y2="38.142"
     gradientUnits="userSpaceOnUse"
     gradientTransform="matrix(1.1972099,0,0,1.1972099,-4.6964945,-4.7695761)">
    <stop
       offset="0"
       stop-color="#33bef0"
       id="stop2" />
    <stop
       offset="1"
       stop-color="#0a85d9"
       id="stop4" />
  </linearGradient>
  <path
     fill="url(#BiF7D16UlC0RZ_VqXJHnXa)"
     d="m 47.980737,23.963459 c 0,13.223182 -10.721013,23.944196 -23.944196,23.944196 -13.223182,0 -23.94419593,-10.721014 -23.94419593,-23.944196 0,-13.223183 10.72101393,-23.94419574 23.94419593,-23.94419574 13.223183,0 23.944196,10.72101274 23.944196,23.94419574 z"
     id="path7"
     style="fill:url(#BiF7D16UlC0RZ_VqXJHnXa);stroke-width:1.19721" />
  <path
     d="m 7.4180718,23.324148 c 9.7632462,-4.423689 21.2301202,-9.223305 22.9960052,-9.917684 3.893325,-1.531232 5.59097,0.03353 5.325189,2.529703 -0.326837,3.058871 -1.876026,11.960127 -2.829005,18.337663 -0.557901,3.731702 -2.578791,4.875039 -4.859475,3.427612 -1.729967,-1.097842 -7.677707,-4.992364 -9.242459,-6.323662 -1.066716,-0.907485 -1.810182,-1.925114 -1.053546,-2.961897 0.221485,-0.302895 0.787763,-0.913471 1.102631,-1.217563 1.579118,-1.530034 1.366016,-1.859268 -0.543535,-0.49325 -0.227468,0.16282 -1.546795,1.119392 -2.08913,1.480948 -1.328904,0.885935 -2.551254,0.933823 -4.623625,0.229865 C 9.9058736,27.840025 8.2776685,27.395859 7.2504625,26.951694 5.8317688,26.337527 5.2882355,24.289101 7.4180718,23.324148 Z"
     opacity="0.05"
     id="path9"
     style="stroke-width:1.19721" />
  <path
     d="M 8.2764712,23.4738 C 17.341743,19.421244 28.49016,14.777268 30.120761,14.120001 c 3.907693,-1.577923 5.345543,-0.641704 4.925321,2.407588 -0.39029,2.82302 -1.775462,11.557864 -2.746398,17.413417 -0.572268,3.446767 -2.243572,4.205798 -4.4201,2.797879 -1.363621,-0.878751 -6.85163,-4.494326 -8.182929,-5.546673 -1.029599,-0.812907 -2.096315,-1.751517 -0.850019,-3.110351 0.41663,-0.453742 2.717667,-2.674566 4.438058,-4.326716 0.997275,-0.958966 0.641704,-1.431864 -0.561492,-0.608183 -2.206458,1.512075 -5.816045,3.905298 -6.460143,4.339887 -1.227141,0.826073 -2.380055,1.02481 -4.386578,0.39388 C 10.294967,27.382691 8.7673272,26.900214 7.9711827,26.590137 6.192129,25.900544 6.1681848,24.416004 8.2764712,23.4738 Z"
     opacity="0.07"
     id="path11"
     style="stroke-width:1.19721" />
  <path
     fill="#ffffff"
     d="M 9.1348707,23.624649 C 17.503366,19.943228 28.332129,15.45489 29.827444,14.833537 33.748307,13.207726 34.951502,13.519 34.3517,17.120208 c -0.430995,2.588366 -1.673698,11.156799 -2.664988,16.490367 -0.58783,3.16303 -1.907156,3.537754 -3.980722,2.169345 -0.997277,-0.658466 -6.031545,-3.987907 -7.124597,-4.769683 -0.997276,-0.712341 -2.372869,-1.569542 -0.647691,-3.257608 0.61417,-0.601001 4.637992,-4.444044 7.773485,-7.434674 0.410642,-0.392684 -0.10536,-1.037981 -0.57945,-0.723114 -4.226152,2.802667 -10.085296,6.692403 -10.831157,7.198822 -1.126575,0.765018 -2.208853,1.115799 -4.150727,0.557899 C 10.678075,26.930145 9.245014,26.427317 8.6871141,26.235762 6.5381225,25.498281 7.048134,24.542908 9.1348707,23.624649 Z"
     id="path13"
     style="stroke-width:1.19721" />
</svg>
