<svg id="Layer_1" data-name="Layer 1" xmlns="http://www.w3.org/2000/svg" viewBox="0 0 122.88 122.31"><defs><style>.cls-1{fill:#160c1a;}.cls-1,.cls-2,.cls-3,.cls-4{fill-rule:evenodd;}.cls-2{fill:#26f4ee;}.cls-3{fill:#fb2c53;}.cls-4{fill:#fff;}</style></defs><title>tiktok-app</title><path class="cls-1" d="M27.75,0H95.13a27.83,27.83,0,0,1,27.75,27.75V94.57a27.83,27.83,0,0,1-27.75,27.74H27.75A27.83,27.83,0,0,1,0,94.57V27.75A27.83,27.83,0,0,1,27.75,0Z"/><path class="cls-2" d="M77.57,15.06C79.06,27.79,86.69,36.77,99,37.57V49.64H99V39.39C86.61,38.6,79.52,31,78,18.28H65V71.83c1.89,24.11-16.89,24.83-24.08,15.69C49.3,92.79,63,89.36,61.36,68.62V15.06ZM42.45,103.85A27.71,27.71,0,0,1,24.4,91.46c-9.58-15.67-.94-41.22,26.85-43.85l0,3.77C25.44,55.49,22.85,83.16,30,94.68a22.11,22.11,0,0,0,12.46,9.17Z"/><path class="cls-3" d="M81.29,19.06c.85,7.25,3.52,13.55,7.93,17.79C83,33.64,79.28,27.54,78.1,19.06ZM98.93,42a21.39,21.39,0,0,0,3.29.45V56.72c-7.16.71-13.43-1.65-20.73-6L82.61,75.2c0,7.9,0,11.51-4.21,18.79-10.34,17.72-29.65,17.71-41.09,7.62,14.91,8.56,40.94,1.86,40.89-27.22V47.64c7.3,4.39,13.57,6.74,20.73,6V42ZM51.18,52.31a44.52,44.52,0,0,1,4.72-.71V66.7c-6,1-9.84,2.84-11.63,6.25-5,9.63.23,17.47,7.2,20-8.72-.32-17.36-9.27-11.36-20.75,1.79-3.42,5-5.26,11.07-6.26V52.31Z"/><path class="cls-4" d="M78,18.25C79.49,31,86.59,38.58,98.93,39.37V53.68c-7.16.7-13.43-1.65-20.73-6V74.39C78.26,109.31,40.7,112,30,94.65c-7.13-11.51-4.54-39.19,21.22-43.29V65.89c-6,1-9.28,2.84-11.07,6.26-11,21.12,27.48,33.69,24.82-.34V18.25Z"/></svg>