<?xml version="1.0" encoding="UTF-8" standalone="no"?>
<!-- Created with Inkscape (http://www.inkscape.org/) -->

<svg
   width="256"
   height="256"
   viewBox="0 0 67.733332 67.733335"
   version="1.1"
   id="svg5"
   inkscape:version="1.1.2 (b8e25be833, 2022-02-05)"
   sodipodi:docname="trovo-icon.svg"
   xmlns:inkscape="http://www.inkscape.org/namespaces/inkscape"
   xmlns:sodipodi="http://sodipodi.sourceforge.net/DTD/sodipodi-0.dtd"
   xmlns="http://www.w3.org/2000/svg"
   xmlns:svg="http://www.w3.org/2000/svg">
  <sodipodi:namedview
     id="namedview7"
     pagecolor="#ffffff"
     bordercolor="#111111"
     borderopacity="1"
     inkscape:pageshadow="0"
     inkscape:pageopacity="0"
     inkscape:pagecheckerboard="1"
     inkscape:document-units="mm"
     showgrid="false"
     units="px"
     width="256px"
     inkscape:zoom="2.0107307"
     inkscape:cx="98.471663"
     inkscape:cy="157.90279"
     inkscape:window-width="1920"
     inkscape:window-height="991"
     inkscape:window-x="-9"
     inkscape:window-y="-9"
     inkscape:window-maximized="1"
     inkscape:current-layer="layer1" />
  <defs
     id="defs2" />
  <g
     inkscape:label="Слой 1"
     inkscape:groupmode="layer"
     id="layer1">
    <path
       style="fill:#21b36c;stroke-width:0.693607;fill-opacity:1;stroke:none;stroke-opacity:1"
       d="M 35.688781,64.406721 C 30.124853,63.768374 25.661385,61.524366 22.25244,57.651601 18.667751,53.579178 17.281342,48.730281 17.600342,41.381116 L 17.845377,35.735963 10.562499,35.38916 C 6.3091,35.186617 3.3162747,34.753834 3.3677357,34.348749 3.6299904,32.284358 7.2932946,16.261731 7.5701499,15.968152 7.7500265,15.77741 11.221503,15.465287 15.284543,15.274545 l 7.387345,-0.346804 1.191789,-5.1386267 C 24.51916,6.9628688 25.461996,4.3926308 25.958869,4.0774739 26.455742,3.762317 31.163765,3.4996819 36.421144,3.4938404 47.523956,3.4815034 47.354696,3.365196 45.713785,9.8793165 c -0.593,2.3541015 -0.923126,4.5310695 -0.733614,4.8377065 0.189512,0.306637 4.695873,0.557522 10.014137,0.557522 9.472948,0 9.669569,0.03074 9.669569,1.511884 0,2.211803 -3.519041,16.754716 -4.24157,17.528866 -0.338875,0.363085 -3.358778,0.573331 -6.710897,0.467213 -9.618204,-0.304483 -15.328537,3.015107 -16.433119,9.553071 -1.010556,5.98143 2.198784,10.457435 7.890197,11.004309 3.007146,0.288948 3.663137,0.106223 5.22469,-1.45533 3.180629,-3.180629 1.831849,-9.186825 -1.942129,-8.648404 -1.216227,0.173514 -1.460889,0.65898 -1.398307,2.774566 0.08465,2.861678 -1.00329,3.727324 -2.921587,2.324631 -1.851361,-1.353748 -1.640809,-5.471698 0.390315,-7.633731 2.1322,-2.269622 5.372321,-2.851008 8.531809,-1.530889 6.678365,2.790399 7.057585,12.959815 0.691702,18.549134 -4.588165,4.028462 -10.475353,5.556602 -18.0562,4.686856 z"
       id="path836" />
  </g>
</svg>
