<?xml version="1.0" encoding="UTF-8" standalone="no"?>
<!-- Created with Inkscape (http://www.inkscape.org/) -->

<svg
   width="97.268394mm"
   height="97.268394mm"
   viewBox="0 0 97.268394 97.268394"
   version="1.1"
   id="svg5"
   xml:space="preserve"
   inkscape:version="1.2.2 (732a01da63, 2022-12-09)"
   sodipodi:docname="vkplaylive-icon.svg"
   xmlns:inkscape="http://www.inkscape.org/namespaces/inkscape"
   xmlns:sodipodi="http://sodipodi.sourceforge.net/DTD/sodipodi-0.dtd"
   xmlns="http://www.w3.org/2000/svg"
   xmlns:svg="http://www.w3.org/2000/svg"><sodipodi:namedview
     id="namedview7"
     pagecolor="#ffffff"
     bordercolor="#000000"
     borderopacity="0.25"
     inkscape:showpageshadow="2"
     inkscape:pageopacity="0.0"
     inkscape:pagecheckerboard="0"
     inkscape:deskcolor="#d1d1d1"
     inkscape:document-units="mm"
     showgrid="false"
     inkscape:zoom="1.0444209"
     inkscape:cx="289.15545"
     inkscape:cy="186.70633"
     inkscape:window-width="1920"
     inkscape:window-height="1009"
     inkscape:window-x="-8"
     inkscape:window-y="-8"
     inkscape:window-maximized="1"
     inkscape:current-layer="layer1" /><defs
     id="defs2" /><g
     inkscape:label="Слой 1"
     inkscape:groupmode="layer"
     id="layer1"
     transform="translate(-21.137508,-25.974064)"><circle
       style="fill:#0076fc;fill-opacity:1;stroke-width:0.264583"
       id="path512"
       cx="69.771706"
       cy="74.608261"
       r="48.634197" /><rect
       style="fill:#ffffff;fill-opacity:1;stroke-width:0.264583"
       id="rect3299"
       width="50.919365"
       height="23.053045"
       x="44.839443"
       y="63.079212" /><path
       style="fill:#020bb2;fill-opacity:1;stroke-width:0.264583"
       d="m 51.161634,110.90794 c -4.7998,-1.67815 -7.58625,-4.74318 -8.90363,-9.7938 -1.10944,-4.253373 -1.31144,-8.224537 -1.31894,-25.929163 -0.008,-19.65565 0.1809,-22.677526 1.75125,-27.966358 1.09887,-3.700886 3.62726,-6.394692 7.54816,-8.041964 1.58903,-0.667595 2.12366,-0.757646 4.45175,-0.749829 3.13018,0.01051 5.21718,0.629814 9.65729,2.865745 2.70675,1.363053 9.10426,5.106008 12.83229,7.507714 1.01865,0.656242 2.62599,1.693146 3.57188,2.304231 0.94588,0.611086 3.74385,2.404812 6.2177,3.986057 14.522956,9.282827 18.123956,13.226204 18.123956,19.847103 0,6.528221 -3.7852,10.625172 -18.454006,19.973881 -1.92778,1.22861 -5.14247,3.27968 -7.14375,4.55793 -14.16085,9.044783 -19.619,11.729603 -24.40213,12.003233 -1.64995,0.0944 -2.32302,-0.002 -3.93182,-0.56478 z m 9.42018,-28.111348 c 1.4215,1.416164 2.7212,2.574843 2.88822,2.574843 0.32458,0 5.11081,-4.647586 5.11081,-4.962763 0,-0.103166 -1.19072,-1.382368 -2.64605,-2.84267 l -2.64606,-2.655091 2.64606,-2.636129 c 1.45533,-1.449869 2.64605,-2.759776 2.64605,-2.910901 0,-0.151124 -1.13121,-1.401275 -2.51379,-2.778111 l -2.51379,-2.50334 -2.77788,2.76842 -2.77787,2.768423 -2.71672,-2.707476 -2.71672,-2.707476 -2.63625,2.646177 -2.63625,2.646175 2.70569,2.714924 2.70568,2.714922 -2.70724,2.707238 -2.70723,2.707237 2.6378,2.647736 2.6378,2.647736 2.7166,-2.707357 2.7166,-2.707357 z m 27.43865,1.823329 c 2.3019,-1.077188 4.17239,-2.877011 5.23509,-5.037304 0.81649,-1.659803 1.00866,-3.232203 1.01432,-4.790282 0.005,-1.294318 -0.18414,-3.097408 -1.03994,-4.675158 -1.17336,-2.163123 -2.96848,-3.910021 -5.06992,-4.933728 -1.59541,-0.777195 -3.1323,-0.974646 -4.50255,-0.981639 -1.48314,-0.0076 -2.89577,0.190929 -4.49791,0.980221 -3.28093,1.616339 -5.46984,4.531042 -6.09386,8.114406 -0.75819,4.353853 1.69129,9.049734 5.80895,11.136315 1.91162,0.96869 3.04549,1.197528 5.38256,1.086316 1.59165,-0.07574 2.43352,-0.276884 3.76326,-0.899147 z m -5.57143,-6.768317 c -2.51333,-1.094304 -2.64478,-4.683768 -0.21379,-5.837352 1.0676,-0.506608 1.78611,-0.506608 2.8537,0 2.46191,1.168252 2.29401,4.77641 -0.27215,5.84862 -1.06273,0.444037 -1.32491,0.442789 -2.36776,-0.01127 z"
       id="path302"
       sodipodi:nodetypes="cscssssssssssscsssscssscccccccccccccccsssscsssssssssssss" /></g></svg>
