<?xml version="1.0" encoding="UTF-8" standalone="no"?>
<!-- Generator: Adobe Illustrator 26.3.1, SVG Export Plug-In . SVG Version: 6.00 Build 0)  -->

<svg
   version="1.1"
   id="Слой_1"
   x="0px"
   y="0px"
   width="110.2"
   height="110.2"
   viewBox="0 0 110.19999 110.2"
   xml:space="preserve"
   sodipodi:docname="vkvideo.svg"
   inkscape:version="1.1.2 (b8e25be833, 2022-02-05)"
   xmlns:inkscape="http://www.inkscape.org/namespaces/inkscape"
   xmlns:sodipodi="http://sodipodi.sourceforge.net/DTD/sodipodi-0.dtd"
   xmlns="http://www.w3.org/2000/svg"
   xmlns:svg="http://www.w3.org/2000/svg"><defs
   id="defs21">
	
	
</defs><sodipodi:namedview
   id="namedview19"
   pagecolor="#ffffff"
   bordercolor="#111111"
   borderopacity="1"
   inkscape:pageshadow="0"
   inkscape:pageopacity="0"
   inkscape:pagecheckerboard="1"
   showgrid="false"
   fit-margin-top="0"
   fit-margin-left="0"
   fit-margin-right="0"
   fit-margin-bottom="0"
   inkscape:zoom="3.0716719"
   inkscape:cx="-12.045558"
   inkscape:cy="15.626669"
   inkscape:window-width="1920"
   inkscape:window-height="1009"
   inkscape:window-x="-8"
   inkscape:window-y="-8"
   inkscape:window-maximized="1"
   inkscape:current-layer="Слой_1" />
<style
   type="text/css"
   id="style2">
	.st0{fill:#FF2B42;}
	.st1{fill-rule:evenodd;clip-rule:evenodd;fill:#0077FF;}
	.st2{fill-rule:evenodd;clip-rule:evenodd;fill:#FF2B42;}
	.st3{fill-rule:evenodd;clip-rule:evenodd;fill:#FFFFFF;}
	.st4{fill-rule:evenodd;clip-rule:evenodd;}
</style>
<g
   id="g14">
		<path
   class="st1"
   d="m 110.1,57.4 c 0,24.9 0,37.3 -7.7,45.1 -7.7,7.7 -20.2,7.7 -45.1,7.7 h -4.6 c -24.9,0 -37.3,0 -45.1,-7.7 C 0,94.7 0,82.2 0,57.4 V 52.8 C 0,27.9 0,15.5 7.7,7.7 15.5,0 27.9,0 52.8,0 h 4.6 c 24.9,0 37.3,0 45.1,7.7 7.7,7.7 7.7,20.2 7.7,45.1 v 4.6 z m 0,0"
   id="path6" />
		<path
   class="st2"
   d="m 45.6,0 c 20.2,0.1 30.9,0.8 37.9,7.7 7.7,7.7 7.7,20.2 7.7,45.1 v 4.6 c 0,24.9 0,37.3 -7.7,45.1 -6.9,6.9 -17.7,7.6 -37.9,7.7 C 25.4,110.1 14.7,109.4 7.7,102.5 0,94.7 0,82.2 0,57.4 V 52.8 C 0,27.9 0,15.5 7.7,7.7 14.7,0.8 25.4,0.1 45.6,0 Z m 0,0"
   id="path8" />
		<path
   class="st3"
   d="m 36.9,38.2 c -1.4,-0.6 -3,0.3 -3.2,1.8 -0.9,5 -1.4,9.9 -1.4,15 0,5.2 0.5,10.3 1.5,15.2 0.2,1.5 1.8,2.4 3.2,1.8 9.2,-3.4 17.6,-8.5 24.9,-15.1 1.1,-1 1.1,-2.6 0,-3.6 C 54.6,46.7 46.1,41.5 36.9,38.2 Z M 22.5,37.8 c 1.6,-8.3 10.3,-13.2 18.2,-10.3 10.6,3.9 20.4,9.8 28.8,17.4 6.1,5.5 6.1,15 0,20.5 C 61.2,73 51.4,78.9 40.8,82.8 32.9,85.7 24.2,80.8 22.6,72.6 21.4,66.8 20.9,61 20.9,55.1 c -0.1,-6 0.5,-11.8 1.6,-17.3 z m 0,0"
   id="path10" />
		
	</g>
</svg>
