<?xml version="1.0" encoding="UTF-8" standalone="no"?>
<svg
   width="130.58521"
   height="130.58521"
   viewBox="0 0 130.58521 130.58521"
   fill="none"
   version="1.1"
   id="svg15"
   sodipodi:docname="wasd-icon.svg"
   inkscape:version="1.1.2 (b8e25be833, 2022-02-05)"
   xmlns:inkscape="http://www.inkscape.org/namespaces/inkscape"
   xmlns:sodipodi="http://sodipodi.sourceforge.net/DTD/sodipodi-0.dtd"
   xmlns="http://www.w3.org/2000/svg"
   xmlns:svg="http://www.w3.org/2000/svg">
  <sodipodi:namedview
     id="namedview17"
     pagecolor="#ffffff"
     bordercolor="#111111"
     borderopacity="1"
     inkscape:pageshadow="0"
     inkscape:pageopacity="0"
     inkscape:pagecheckerboard="1"
     showgrid="false"
     fit-margin-top="0"
     fit-margin-left="0"
     fit-margin-right="0"
     fit-margin-bottom="0"
     inkscape:zoom="2.1402805"
     inkscape:cx="156.05431"
     inkscape:cy="165.86611"
     inkscape:window-width="1920"
     inkscape:window-height="1009"
     inkscape:window-x="-8"
     inkscape:window-y="-8"
     inkscape:window-maximized="1"
     inkscape:current-layer="svg15" />
  <path
     fill-rule="evenodd"
     clip-rule="evenodd"
     d="M 9.2933005,0 C 4.1624036,0 0,4.1596694 0,9.2960346 V 121.28918 c 0,5.13648 4.1624036,9.29603 9.2933005,9.29603 H 121.28918 c 5.13648,0 9.29603,-4.15955 9.29603,-9.29603 V 9.2960346 C 130.58521,4.1596694 126.42566,0 121.28918,0 Z"
     fill="url(#paint0_linear_3827_48328)"
     id="path2"
     style="fill:url(#paint0_linear_3827_48328);stroke-width:4.08079" />
  <path
     d="m 61.218346,53.831712 c 0.843499,-2.086506 3.223823,-3.098542 5.313186,-2.252595 2.089363,0.846356 3.09895,3.223823 2.255452,5.313186 L 53.233877,95.376989 c -0.625993,1.542538 -2.12201,2.549268 -3.784523,2.549268 h -0.0706 c -1.689446,-0.0302 -3.185871,-1.096508 -3.762487,-2.68271 L 25.277542,39.388539 c -0.769881,-2.122009 0.321036,-4.461647 2.437618,-5.23157 2.116582,-0.775349 4.458954,0.318302 5.23157,2.434884 l 16.701359,45.873523 z"
     fill="#ffffff"
     id="path4"
     style="stroke-width:4.08079" />
  <path
     d="m 97.058273,36.59373 c 0.77535,-2.116582 3.117727,-3.204765 5.231567,-2.437577 2.1163,0.769882 3.20995,3.112254 2.43746,5.23157 L 84.391508,95.242731 c -0.579472,1.586202 -2.075897,2.655368 -3.762486,2.68271 h -0.07346 c -1.659656,0 -3.158937,-1.006731 -3.781666,-2.549268 l -6.959375,-17.21562 c -0.845947,-2.091812 0.166088,-4.469687 2.255451,-5.313186 2.084059,-0.845947 4.464382,0.160783 5.310329,2.252595 l 2.976527,7.364598 z"
     fill="#ffffff"
     id="path6"
     style="stroke-width:4.08079" />
  <defs
     id="defs13">
    <linearGradient
       id="paint0_linear_3827_48328"
       x1="-0.079517402"
       y1="0"
       x2="32.045399"
       y2="1.76185e-08"
       gradientUnits="userSpaceOnUse"
       gradientTransform="scale(4.0807878)">
      <stop
         stop-color="#9013FE"
         id="stop8" />
      <stop
         offset="1"
         stop-color="#008FEC"
         id="stop10" />
    </linearGradient>
  </defs>
</svg>
