<svg xmlns="http://www.w3.org/2000/svg" viewBox="0 0 98.94 122.88" style="enable-background:new 0 0 98.94 122.88" xml:space="preserve">
	<path d="M63.49 2.71c11.59-6.04 25.94-1.64 32.04 9.83 6.1 11.47 1.65 25.66-9.94 31.7l-9.53 5.01c8.21.3 16.04 4.81 20.14 12.52 6.1 11.47 1.66 25.66-9.94 31.7l-50.82 26.7c-11.59 6.04-25.94 1.64-32.04-9.83-6.1-11.47-1.65-25.66 9.94-31.7l9.53-5.01c-8.21-.3-16.04-4.81-20.14-12.52-6.1-11.47-1.65-25.66 9.94-31.7l50.82-26.7zM36.06 42.53l30.76 18.99-30.76 18.9V42.53z" fill="#ff0033"/>
	<path d="M36.06,42.53 V 80.42 L 66.82,61.52Z" fill="#fff"/>
</svg>