<?xml version="1.0" encoding="UTF-8" standalone="no"?>
<svg
   xmlns:dc="http://purl.org/dc/elements/1.1/"
   xmlns:cc="http://creativecommons.org/ns#"
   xmlns:rdf="http://www.w3.org/1999/02/22-rdf-syntax-ns#"
   xmlns:svg="http://www.w3.org/2000/svg"
   xmlns="http://www.w3.org/2000/svg"
   version="1.1"
   id="Layer_1"
   x="0px"
   y="0px"
   viewBox="0 0 71.412065 71.412064"
   xml:space="preserve"
   width="71.412064"
   height="71.412064"><metadata
     id="metadata33"><rdf:RDF><cc:Work
         rdf:about=""><dc:format>image/svg+xml</dc:format><dc:type
           rdf:resource="http://purl.org/dc/dcmitype/StillImage" /><dc:title></dc:title></cc:Work></rdf:RDF></metadata><defs
     id="defs31" /><style
     type="text/css"
     id="style3">
	.st0{fill:#FF0000;}
	.st1{fill:#FFFFFF;}
	.st2{fill:#282828;}
</style><g
     id="g5"
     transform="matrix(0.58823529,0,0,0.58823529,0,10.5001)"><path
       class="st0"
       d="M 118.9,13.3 C 117.5,8.1 113.4,4 108.2,2.6 98.7,0 76.556333,-1.1733573 60.7002,-1.19 44.844067,-1.2066427 22.7,0 13.2,2.5 8.1,3.9 3.9,8.1 2.5,13.3 0,22.8 0,42.5 0,42.5 0,42.5 0,62.3 2.5,71.7 3.9,76.9 8,81 13.2,82.4 22.8,85 44.843867,86.173358 60.7,86.190001 76.556133,86.206643 98.7,85 108.2,82.5 c 5.2,-1.4 9.3,-5.5 10.7,-10.7 2.5,-9.5 2.5,-29.2 2.5,-29.2 0,0 0.1,-19.8 -2.5,-29.3 z"
       id="path7"
       style="fill:#ff0000" /><polygon
       class="st1"
       points="80.2,42.5 48.6,24.3 48.6,60.7 "
       id="polygon9"
       style="fill:#ffffff" /></g></svg>
